 0
SECTION
 2
HEADER
 9
$ACADVER
 1
AC1009
 0
ENDSEC
 0
SECTION
 2
ENTITIES
 0
POLYLINE
 8
TITLE
 66
1
 70
1
 10
0.0
 20
0.0
 30
0.0
 0
VERTEX
 8
TITLE
 10
 -0.1000
 20
  0.1000
 30
0.0
 0
VERTEX
 8
TITLE
 10
  9.6000
 20
  0.1000
 30
0.0
 0
VERTEX
 8
TITLE
 10
  9.6000
 20
  7.3000
 30
0.0
 0
VERTEX
 8
TITLE
 10
 -0.1000
 20
  7.3000
 30
0.0
 0
SEQEND
 8
TITLE
 0
POLYLINE
 8
TITLE
 66
1
 70
1
 10
0.0
 20
0.0
 30
0.0
 0
VERTEX
 8
TITLE
 10
  0.0000
 20
  0.2000
 30
0.0
 0
VERTEX
 8
TITLE
 10
  9.5000
 20
  0.2000
 30
0.0
 0
VERTEX
 8
TITLE
 10
  9.5000
 20
  7.2000
 30
0.0
 0
VERTEX
 8
TITLE
 10
  0.0000
 20
  7.2000
 30
0.0
 0
SEQEND
 8
TITLE
 0
POLYLINE
 8
TITLE
 66
1
 10
0.0
 20
0.0
 30
0.0
 0
VERTEX
 8
TITLE
 10
  2.0600
 20
  0.2000
 30
0.0
 0
VERTEX
 8
TITLE
 10
  2.0600
 20
  0.1000
 30
0.0
 0
SEQEND
 8
TITLE
 0
POLYLINE
 8
TITLE
 66
1
 10
0.0
 20
0.0
 30
0.0
 0
VERTEX
 8
TITLE
 10
  2.0600
 20
  7.2000
 30
0.0
 0
VERTEX
 8
TITLE
 10
  2.0600
 20
  7.3000
 30
0.0
 0
SEQEND
 8
TITLE
 0
POLYLINE
 8
TITLE
 66
1
 10
0.0
 20
0.0
 30
0.0
 0
VERTEX
 8
TITLE
 10
  3.9200
 20
  0.2000
 30
0.0
 0
VERTEX
 8
TITLE
 10
  3.9200
 20
  0.1000
 30
0.0
 0
SEQEND
 8
TITLE
 0
POLYLINE
 8
TITLE
 66
1
 10
0.0
 20
0.0
 30
0.0
 0
VERTEX
 8
TITLE
 10
  3.9200
 20
  7.2000
 30
0.0
 0
VERTEX
 8
TITLE
 10
  3.9200
 20
  7.3000
 30
0.0
 0
SEQEND
 8
TITLE
 0
POLYLINE
 8
TITLE
 66
1
 10
0.0
 20
0.0
 30
0.0
 0
VERTEX
 8
TITLE
 10
  5.7800
 20
  0.2000
 30
0.0
 0
VERTEX
 8
TITLE
 10
  5.7800
 20
  0.1000
 30
0.0
 0
SEQEND
 8
TITLE
 0
POLYLINE
 8
TITLE
 66
1
 10
0.0
 20
0.0
 30
0.0
 0
VERTEX
 8
TITLE
 10
  5.7800
 20
  7.2000
 30
0.0
 0
VERTEX
 8
TITLE
 10
  5.7800
 20
  7.3000
 30
0.0
 0
SEQEND
 8
TITLE
 0
POLYLINE
 8
TITLE
 66
1
 10
0.0
 20
0.0
 30
0.0
 0
VERTEX
 8
TITLE
 10
  7.6400
 20
  0.2000
 30
0.0
 0
VERTEX
 8
TITLE
 10
  7.6400
 20
  0.1000
 30
0.0
 0
SEQEND
 8
TITLE
 0
POLYLINE
 8
TITLE
 66
1
 10
0.0
 20
0.0
 30
0.0
 0
VERTEX
 8
TITLE
 10
  7.6400
 20
  7.2000
 30
0.0
 0
VERTEX
 8
TITLE
 10
  7.6400
 20
  7.3000
 30
0.0
 0
SEQEND
 8
TITLE
 0
TEXT
 8
TITLE
 10
  1.1300
 20
  0.1200
 30
0.0
 40
  0.0500
 1
5
 0
TEXT
 8
TITLE
 10
  1.1300
 20
  7.2200
 30
0.0
 40
  0.0500
 1
5
 0
TEXT
 8
TITLE
 10
  2.9900
 20
  0.1200
 30
0.0
 40
  0.0500
 1
4
 0
TEXT
 8
TITLE
 10
  2.9900
 20
  7.2200
 30
0.0
 40
  0.0500
 1
4
 0
TEXT
 8
TITLE
 10
  4.8500
 20
  0.1200
 30
0.0
 40
  0.0500
 1
3
 0
TEXT
 8
TITLE
 10
  4.8500
 20
  7.2200
 30
0.0
 40
  0.0500
 1
3
 0
TEXT
 8
TITLE
 10
  6.7100
 20
  0.1200
 30
0.0
 40
  0.0500
 1
2
 0
TEXT
 8
TITLE
 10
  6.7100
 20
  7.2200
 30
0.0
 40
  0.0500
 1
2
 0
TEXT
 8
TITLE
 10
  8.5700
 20
  0.1200
 30
0.0
 40
  0.0500
 1
1
 0
TEXT
 8
TITLE
 10
  8.5700
 20
  7.2200
 30
0.0
 40
  0.0500
 1
1
 0
POLYLINE
 8
TITLE
 66
1
 10
0.0
 20
0.0
 30
0.0
 0
VERTEX
 8
TITLE
 10
 -0.1000
 20
  5.3000
 30
0.0
 0
VERTEX
 8
TITLE
 10
  0.0000
 20
  5.3000
 30
0.0
 0
SEQEND
 8
TITLE
 0
POLYLINE
 8
TITLE
 66
1
 10
0.0
 20
0.0
 30
0.0
 0
VERTEX
 8
TITLE
 10
  9.5000
 20
  5.3000
 30
0.0
 0
VERTEX
 8
TITLE
 10
  9.6000
 20
  5.3000
 30
0.0
 0
SEQEND
 8
TITLE
 0
SOLID
 8
TITLE
 10
  0.0000
 20
  3.6000
 30
0.0
 11
 -0.0500
 21
  3.6200
 31
0.0
 12
 -0.0500
 22
  3.5800
 32
0.0
 13
 -0.0500
 23
  3.6000
 33
0.0
 0
SOLID
 8
TITLE
 10
  9.5000
 20
  3.6000
 30
0.0
 11
  9.5500
 21
  3.6200
 31
0.0
 12
  9.5500
 22
  3.5800
 32
0.0
 13
  9.5500
 23
  3.6000
 33
0.0
 0
POLYLINE
 8
TITLE
 66
1
 10
0.0
 20
0.0
 30
0.0
 0
VERTEX
 8
TITLE
 10
 -0.1000
 20
  3.6000
 30
0.0
 0
VERTEX
 8
TITLE
 10
  0.0000
 20
  3.6000
 30
0.0
 0
SEQEND
 8
TITLE
 0
POLYLINE
 8
TITLE
 66
1
 10
0.0
 20
0.0
 30
0.0
 0
VERTEX
 8
TITLE
 10
  9.5000
 20
  3.6000
 30
0.0
 0
VERTEX
 8
TITLE
 10
  9.6000
 20
  3.6000
 30
0.0
 0
SEQEND
 8
TITLE
 0
SOLID
 8
TITLE
 10
  0.0000
 20
  3.6000
 30
0.0
 11
 -0.0500
 21
  3.6200
 31
0.0
 12
 -0.0500
 22
  3.5800
 32
0.0
 13
 -0.0500
 23
  3.6000
 33
0.0
 0
SOLID
 8
TITLE
 10
  9.5000
 20
  3.6000
 30
0.0
 11
  9.5500
 21
  3.6200
 31
0.0
 12
  9.5500
 22
  3.5800
 32
0.0
 13
  9.5500
 23
  3.6000
 33
0.0
 0
POLYLINE
 8
TITLE
 66
1
 10
0.0
 20
0.0
 30
0.0
 0
VERTEX
 8
TITLE
 10
 -0.1000
 20
  1.9000
 30
0.0
 0
VERTEX
 8
TITLE
 10
  0.0000
 20
  1.9000
 30
0.0
 0
SEQEND
 8
TITLE
 0
POLYLINE
 8
TITLE
 66
1
 10
0.0
 20
0.0
 30
0.0
 0
VERTEX
 8
TITLE
 10
  9.5000
 20
  1.9000
 30
0.0
 0
VERTEX
 8
TITLE
 10
  9.6000
 20
  1.9000
 30
0.0
 0
SEQEND
 8
TITLE
 0
SOLID
 8
TITLE
 10
  0.0000
 20
  3.6000
 30
0.0
 11
 -0.0500
 21
  3.6200
 31
0.0
 12
 -0.0500
 22
  3.5800
 32
0.0
 13
 -0.0500
 23
  3.6000
 33
0.0
 0
SOLID
 8
TITLE
 10
  9.5000
 20
  3.6000
 30
0.0
 11
  9.5500
 21
  3.6200
 31
0.0
 12
  9.5500
 22
  3.5800
 32
0.0
 13
  9.5500
 23
  3.6000
 33
0.0
 0
TEXT
 8
TITLE
 10
 -0.0800
 20
  6.1500
 30
0.0
 40
  0.0500
 1
D
 0
TEXT
 8
TITLE
 10
  9.5200
 20
  6.1500
 30
0.0
 40
  0.0500
 1
D
 0
TEXT
 8
TITLE
 10
 -0.0800
 20
  4.4500
 30
0.0
 40
  0.0500
 1
C
 0
TEXT
 8
TITLE
 10
  9.5200
 20
  4.4500
 30
0.0
 40
  0.0500
 1
C
 0
TEXT
 8
TITLE
 10
 -0.0800
 20
  2.7500
 30
0.0
 40
  0.0500
 1
B
 0
TEXT
 8
TITLE
 10
  9.5200
 20
  2.7500
 30
0.0
 40
  0.0500
 1
B
 0
TEXT
 8
TITLE
 10
 -0.0800
 20
  1.0500
 30
0.0
 40
  0.0500
 1
A
 0
TEXT
 8
TITLE
 10
  9.5200
 20
  1.0500
 30
0.0
 40
  0.0500
 1
A
 0
TEXT
 8
PARTTEXT
 10
  2.6000
 20
  2.2186
 30
0.0
 40
  0.0514
 1
R22
 0
TEXT
 8
PARTTEXT
 10
  2.8000
 20
  2.0786
 30
0.0
 40
  0.0514
 1
33 Ohm
 0
LINE
 8
PARTS
 10
  2.7000
 20
  2.2000
 30
0.0
 11
  2.8000
 21
  2.2000
 31
0.0
 0
LINE
 8
PARTS
 10
  3.2000
 20
  2.2000
 30
0.0
 11
  3.1000
 21
  2.2000
 31
0.0
 0
POLYLINE
 8
PARTS
 66
1
 10
0.0
 20
0.0
 30
0.0
 0
VERTEX
 8
PARTS
 10
  2.8000
 20
  2.2200
 30
0.0
 0
VERTEX
 8
PARTS
 10
  3.1000
 20
  2.2200
 30
0.0
 0
SEQEND
 8
PARTS
 0
POLYLINE
 8
PARTS
 66
1
 10
0.0
 20
0.0
 30
0.0
 0
VERTEX
 8
PARTS
 10
  3.1000
 20
  2.2200
 30
0.0
 0
VERTEX
 8
PARTS
 10
  3.1000
 20
  2.1800
 30
0.0
 0
SEQEND
 8
PARTS
 0
POLYLINE
 8
PARTS
 66
1
 10
0.0
 20
0.0
 30
0.0
 0
VERTEX
 8
PARTS
 10
  3.1000
 20
  2.1800
 30
0.0
 0
VERTEX
 8
PARTS
 10
  2.8000
 20
  2.1800
 30
0.0
 0
SEQEND
 8
PARTS
 0
POLYLINE
 8
PARTS
 66
1
 10
0.0
 20
0.0
 30
0.0
 0
VERTEX
 8
PARTS
 10
  2.8000
 20
  2.1800
 30
0.0
 0
VERTEX
 8
PARTS
 10
  2.8000
 20
  2.2200
 30
0.0
 0
SEQEND
 8
PARTS
 0
POLYLINE
 8
PARTS
 66
1
 10
0.0
 20
0.0
 30
0.0
 0
VERTEX
 8
PARTS
 10
  2.8000
 20
  2.2000
 30
0.0
 0
VERTEX
 8
PARTS
 10
  2.8000
 20
  2.2000
 30
0.0
 0
SEQEND
 8
PARTS
 0
POLYLINE
 8
PARTS
 66
1
 10
0.0
 20
0.0
 30
0.0
 0
VERTEX
 8
PARTS
 10
  3.1000
 20
  2.2000
 30
0.0
 0
VERTEX
 8
PARTS
 10
  3.1000
 20
  2.2000
 30
0.0
 0
SEQEND
 8
PARTS
 0
TEXT
 8
PARTTEXT
 10
  6.2000
 20
  4.1186
 30
0.0
 40
  0.0514
 1
TP8
 0
TEXT
 8
PARTTEXT
 10
  6.2000
 20
  3.6186
 30
0.0
 40
  0.0514
 1
TP_VSYNC
 0
LINE
 8
PARTS
 10
  5.9000
 20
  3.9000
 30
0.0
 11
  6.2000
 21
  3.9000
 31
0.0
 0
TEXT
 8
PARTS
 10
  6.1000
 20
  3.9300
 30
0.0
 40
  0.0500
 1
1
 0
POLYLINE
 8
PARTS
 66
1
 70
1
 10
0.0
 20
0.0
 30
0.0
 0
VERTEX
 8
PARTS
 10
  6.2000
 20
  4.0000
 30
0.0
 0
VERTEX
 8
PARTS
 10
  6.3000
 20
  4.0000
 30
0.0
 0
VERTEX
 8
PARTS
 10
  6.3000
 20
  3.8000
 30
0.0
 0
VERTEX
 8
PARTS
 10
  6.2000
 20
  3.8000
 30
0.0
 0
SEQEND
 8
PARTS
 0
TEXT
 8
PARTTEXT
 10
  2.6000
 20
  1.8186
 30
0.0
 40
  0.0514
 1
R24
 0
TEXT
 8
PARTTEXT
 10
  2.8000
 20
  1.6786
 30
0.0
 40
  0.0514
 1
33 Ohm
 0
LINE
 8
PARTS
 10
  2.7000
 20
  1.8000
 30
0.0
 11
  2.8000
 21
  1.8000
 31
0.0
 0
LINE
 8
PARTS
 10
  3.2000
 20
  1.8000
 30
0.0
 11
  3.1000
 21
  1.8000
 31
0.0
 0
POLYLINE
 8
PARTS
 66
1
 10
0.0
 20
0.0
 30
0.0
 0
VERTEX
 8
PARTS
 10
  2.8000
 20
  1.8200
 30
0.0
 0
VERTEX
 8
PARTS
 10
  3.1000
 20
  1.8200
 30
0.0
 0
SEQEND
 8
PARTS
 0
POLYLINE
 8
PARTS
 66
1
 10
0.0
 20
0.0
 30
0.0
 0
VERTEX
 8
PARTS
 10
  3.1000
 20
  1.8200
 30
0.0
 0
VERTEX
 8
PARTS
 10
  3.1000
 20
  1.7800
 30
0.0
 0
SEQEND
 8
PARTS
 0
POLYLINE
 8
PARTS
 66
1
 10
0.0
 20
0.0
 30
0.0
 0
VERTEX
 8
PARTS
 10
  3.1000
 20
  1.7800
 30
0.0
 0
VERTEX
 8
PARTS
 10
  2.8000
 20
  1.7800
 30
0.0
 0
SEQEND
 8
PARTS
 0
POLYLINE
 8
PARTS
 66
1
 10
0.0
 20
0.0
 30
0.0
 0
VERTEX
 8
PARTS
 10
  2.8000
 20
  1.7800
 30
0.0
 0
VERTEX
 8
PARTS
 10
  2.8000
 20
  1.8200
 30
0.0
 0
SEQEND
 8
PARTS
 0
POLYLINE
 8
PARTS
 66
1
 10
0.0
 20
0.0
 30
0.0
 0
VERTEX
 8
PARTS
 10
  2.8000
 20
  1.8000
 30
0.0
 0
VERTEX
 8
PARTS
 10
  2.8000
 20
  1.8000
 30
0.0
 0
SEQEND
 8
PARTS
 0
POLYLINE
 8
PARTS
 66
1
 10
0.0
 20
0.0
 30
0.0
 0
VERTEX
 8
PARTS
 10
  3.1000
 20
  1.8000
 30
0.0
 0
VERTEX
 8
PARTS
 10
  3.1000
 20
  1.8000
 30
0.0
 0
SEQEND
 8
PARTS
 0
TEXT
 8
PARTTEXT
 10
  3.5000
 20
  3.1186
 30
0.0
 40
  0.0514
 1
0 Ohm
 0
TEXT
 8
PARTTEXT
 10
  3.5000
 20
  3.2186
 30
0.0
 40
  0.0514
 1
R4
 0
LINE
 8
PARTS
 10
  3.6000
 20
  3.2000
 30
0.0
 11
  3.5000
 21
  3.2000
 31
0.0
 0
TEXT
 8
PARTS
 10
  3.3700
 20
  3.1750
 30
0.0
 40
  0.0500
 1
1
 0
LINE
 8
PARTS
 10
  3.1000
 20
  3.2000
 30
0.0
 11
  3.2000
 21
  3.2000
 31
0.0
 0
TEXT
 8
PARTS
 10
  3.2900
 20
  3.1750
 30
0.0
 40
  0.0500
 1
2
 0
POLYLINE
 8
PARTS
 66
1
 10
0.0
 20
0.0
 30
0.0
 40
  0.0600
 41
  0.0600
 0
VERTEX
 8
PARTS
 10
  3.2300
 20
  3.2500
 30
0.0
 0
VERTEX
 8
PARTS
 10
  3.2800
 20
  3.1500
 30
0.0
 0
SEQEND
 8
PARTS
 0
POLYLINE
 8
PARTS
 66
1
 10
0.0
 20
0.0
 30
0.0
 40
  0.0600
 41
  0.0600
 0
VERTEX
 8
PARTS
 10
  3.2800
 20
  3.1500
 30
0.0
 0
VERTEX
 8
PARTS
 10
  3.3300
 20
  3.2500
 30
0.0
 0
SEQEND
 8
PARTS
 0
POLYLINE
 8
PARTS
 66
1
 10
0.0
 20
0.0
 30
0.0
 40
  0.0600
 41
  0.0600
 0
VERTEX
 8
PARTS
 10
  3.3300
 20
  3.2500
 30
0.0
 0
VERTEX
 8
PARTS
 10
  3.3800
 20
  3.1500
 30
0.0
 0
SEQEND
 8
PARTS
 0
POLYLINE
 8
PARTS
 66
1
 10
0.0
 20
0.0
 30
0.0
 40
  0.0600
 41
  0.0600
 0
VERTEX
 8
PARTS
 10
  3.3800
 20
  3.1500
 30
0.0
 0
VERTEX
 8
PARTS
 10
  3.4300
 20
  3.2500
 30
0.0
 0
SEQEND
 8
PARTS
 0
POLYLINE
 8
PARTS
 66
1
 10
0.0
 20
0.0
 30
0.0
 40
  0.0600
 41
  0.0600
 0
VERTEX
 8
PARTS
 10
  3.4300
 20
  3.2500
 30
0.0
 0
VERTEX
 8
PARTS
 10
  3.4800
 20
  3.1500
 30
0.0
 0
SEQEND
 8
PARTS
 0
POLYLINE
 8
PARTS
 66
1
 10
0.0
 20
0.0
 30
0.0
 40
  0.0600
 41
  0.0600
 0
VERTEX
 8
PARTS
 10
  3.2000
 20
  3.2000
 30
0.0
 0
VERTEX
 8
PARTS
 10
  3.2300
 20
  3.2500
 30
0.0
 0
SEQEND
 8
PARTS
 0
POLYLINE
 8
PARTS
 66
1
 10
0.0
 20
0.0
 30
0.0
 40
  0.0600
 41
  0.0600
 0
VERTEX
 8
PARTS
 10
  3.4800
 20
  3.1500
 30
0.0
 0
VERTEX
 8
PARTS
 10
  3.5000
 20
  3.2000
 30
0.0
 0
SEQEND
 8
PARTS
 0
TEXT
 8
PARTTEXT
 10
  4.2000
 20
  4.9086
 30
0.0
 40
  0.0514
 1
J1
 0
TEXT
 8
PARTTEXT
 10
  4.2000
 20
  1.9786
 30
0.0
 40
  0.0514
 1
2-1734839-4
 0
LINE
 8
PARTS
 10
  3.9000
 20
  2.3000
 30
0.0
 11
  4.0000
 21
  2.3000
 31
0.0
 0
LINE
 8
PARTS
 10
  3.8750
 20
  2.3250
 30
0.0
 11
  3.9250
 21
  2.2750
 31
0.0
 0
LINE
 8
PARTS
 10
  3.9250
 20
  2.3250
 30
0.0
 11
  3.8750
 21
  2.2750
 31
0.0
 0
TEXT
 8
PARTS
 10
  4.0900
 20
  2.2750
 30
0.0
 40
  0.0500
 1
SHIELD
 0
TEXT
 8
PARTS
 10
  3.8200
 20
  2.3300
 30
0.0
 40
  0.0500
 1
SH1
 0
LINE
 8
PARTS
 10
  3.9000
 20
  2.2000
 30
0.0
 11
  4.0000
 21
  2.2000
 31
0.0
 0
LINE
 8
PARTS
 10
  3.8750
 20
  2.2250
 30
0.0
 11
  3.9250
 21
  2.1750
 31
0.0
 0
LINE
 8
PARTS
 10
  3.9250
 20
  2.2250
 30
0.0
 11
  3.8750
 21
  2.1750
 31
0.0
 0
TEXT
 8
PARTS
 10
  4.0900
 20
  2.1750
 30
0.0
 40
  0.0500
 1
SHIELD_1
 0
TEXT
 8
PARTS
 10
  3.8200
 20
  2.2300
 30
0.0
 40
  0.0500
 1
SH2
 0
LINE
 8
PARTS
 10
  3.9000
 20
  4.8000
 30
0.0
 11
  4.0000
 21
  4.8000
 31
0.0
 0
LINE
 8
PARTS
 10
  3.8750
 20
  4.8250
 30
0.0
 11
  3.9250
 21
  4.7750
 31
0.0
 0
LINE
 8
PARTS
 10
  3.9250
 20
  4.8250
 30
0.0
 11
  3.8750
 21
  4.7750
 31
0.0
 0
TEXT
 8
PARTS
 10
  4.0900
 20
  4.7750
 30
0.0
 40
  0.0500
 1
1
 0
TEXT
 8
PARTS
 10
  3.9000
 20
  4.8300
 30
0.0
 40
  0.0500
 1
1
 0
LINE
 8
PARTS
 10
  3.9000
 20
  4.7000
 30
0.0
 11
  4.0000
 21
  4.7000
 31
0.0
 0
TEXT
 8
PARTS
 10
  4.0900
 20
  4.6750
 30
0.0
 40
  0.0500
 1
2
 0
TEXT
 8
PARTS
 10
  3.9000
 20
  4.7300
 30
0.0
 40
  0.0500
 1
2
 0
LINE
 8
PARTS
 10
  3.9000
 20
  4.6000
 30
0.0
 11
  4.0000
 21
  4.6000
 31
0.0
 0
TEXT
 8
PARTS
 10
  4.0900
 20
  4.5750
 30
0.0
 40
  0.0500
 1
3
 0
TEXT
 8
PARTS
 10
  3.9000
 20
  4.6300
 30
0.0
 40
  0.0500
 1
3
 0
LINE
 8
PARTS
 10
  3.9000
 20
  4.5000
 30
0.0
 11
  4.0000
 21
  4.5000
 31
0.0
 0
TEXT
 8
PARTS
 10
  4.0900
 20
  4.4750
 30
0.0
 40
  0.0500
 1
4
 0
TEXT
 8
PARTS
 10
  3.9000
 20
  4.5300
 30
0.0
 40
  0.0500
 1
4
 0
LINE
 8
PARTS
 10
  3.9000
 20
  4.4000
 30
0.0
 11
  4.0000
 21
  4.4000
 31
0.0
 0
TEXT
 8
PARTS
 10
  4.0900
 20
  4.3750
 30
0.0
 40
  0.0500
 1
5
 0
TEXT
 8
PARTS
 10
  3.9000
 20
  4.4300
 30
0.0
 40
  0.0500
 1
5
 0
LINE
 8
PARTS
 10
  3.9000
 20
  4.3000
 30
0.0
 11
  4.0000
 21
  4.3000
 31
0.0
 0
TEXT
 8
PARTS
 10
  4.0900
 20
  4.2750
 30
0.0
 40
  0.0500
 1
6
 0
TEXT
 8
PARTS
 10
  3.9000
 20
  4.3300
 30
0.0
 40
  0.0500
 1
6
 0
LINE
 8
PARTS
 10
  3.9000
 20
  4.2000
 30
0.0
 11
  4.0000
 21
  4.2000
 31
0.0
 0
TEXT
 8
PARTS
 10
  4.0900
 20
  4.1750
 30
0.0
 40
  0.0500
 1
7
 0
TEXT
 8
PARTS
 10
  3.9000
 20
  4.2300
 30
0.0
 40
  0.0500
 1
7
 0
LINE
 8
PARTS
 10
  3.9000
 20
  4.1000
 30
0.0
 11
  4.0000
 21
  4.1000
 31
0.0
 0
TEXT
 8
PARTS
 10
  4.0900
 20
  4.0750
 30
0.0
 40
  0.0500
 1
8
 0
TEXT
 8
PARTS
 10
  3.9000
 20
  4.1300
 30
0.0
 40
  0.0500
 1
8
 0
LINE
 8
PARTS
 10
  3.9000
 20
  4.0000
 30
0.0
 11
  4.0000
 21
  4.0000
 31
0.0
 0
TEXT
 8
PARTS
 10
  4.0900
 20
  3.9750
 30
0.0
 40
  0.0500
 1
9
 0
TEXT
 8
PARTS
 10
  3.9000
 20
  4.0300
 30
0.0
 40
  0.0500
 1
9
 0
LINE
 8
PARTS
 10
  3.9000
 20
  3.9000
 30
0.0
 11
  4.0000
 21
  3.9000
 31
0.0
 0
TEXT
 8
PARTS
 10
  4.0900
 20
  3.8750
 30
0.0
 40
  0.0500
 1
10
 0
TEXT
 8
PARTS
 10
  3.8600
 20
  3.9300
 30
0.0
 40
  0.0500
 1
10
 0
LINE
 8
PARTS
 10
  3.9000
 20
  3.8000
 30
0.0
 11
  4.0000
 21
  3.8000
 31
0.0
 0
TEXT
 8
PARTS
 10
  4.0900
 20
  3.7750
 30
0.0
 40
  0.0500
 1
11
 0
TEXT
 8
PARTS
 10
  3.8600
 20
  3.8300
 30
0.0
 40
  0.0500
 1
11
 0
LINE
 8
PARTS
 10
  3.9000
 20
  3.7000
 30
0.0
 11
  4.0000
 21
  3.7000
 31
0.0
 0
TEXT
 8
PARTS
 10
  4.0900
 20
  3.6750
 30
0.0
 40
  0.0500
 1
12
 0
TEXT
 8
PARTS
 10
  3.8600
 20
  3.7300
 30
0.0
 40
  0.0500
 1
12
 0
LINE
 8
PARTS
 10
  3.9000
 20
  3.6000
 30
0.0
 11
  4.0000
 21
  3.6000
 31
0.0
 0
TEXT
 8
PARTS
 10
  4.0900
 20
  3.5750
 30
0.0
 40
  0.0500
 1
13
 0
TEXT
 8
PARTS
 10
  3.8600
 20
  3.6300
 30
0.0
 40
  0.0500
 1
13
 0
LINE
 8
PARTS
 10
  3.9000
 20
  3.5000
 30
0.0
 11
  4.0000
 21
  3.5000
 31
0.0
 0
TEXT
 8
PARTS
 10
  4.0900
 20
  3.4750
 30
0.0
 40
  0.0500
 1
14
 0
TEXT
 8
PARTS
 10
  3.8600
 20
  3.5300
 30
0.0
 40
  0.0500
 1
14
 0
LINE
 8
PARTS
 10
  3.9000
 20
  3.4000
 30
0.0
 11
  4.0000
 21
  3.4000
 31
0.0
 0
LINE
 8
PARTS
 10
  3.8750
 20
  3.4250
 30
0.0
 11
  3.9250
 21
  3.3750
 31
0.0
 0
LINE
 8
PARTS
 10
  3.9250
 20
  3.4250
 30
0.0
 11
  3.8750
 21
  3.3750
 31
0.0
 0
TEXT
 8
PARTS
 10
  4.0900
 20
  3.3750
 30
0.0
 40
  0.0500
 1
15
 0
TEXT
 8
PARTS
 10
  3.8600
 20
  3.4300
 30
0.0
 40
  0.0500
 1
15
 0
LINE
 8
PARTS
 10
  3.9000
 20
  3.3000
 30
0.0
 11
  4.0000
 21
  3.3000
 31
0.0
 0
TEXT
 8
PARTS
 10
  4.0900
 20
  3.2750
 30
0.0
 40
  0.0500
 1
16
 0
TEXT
 8
PARTS
 10
  3.8600
 20
  3.3300
 30
0.0
 40
  0.0500
 1
16
 0
LINE
 8
PARTS
 10
  3.9000
 20
  3.2000
 30
0.0
 11
  4.0000
 21
  3.2000
 31
0.0
 0
TEXT
 8
PARTS
 10
  4.0900
 20
  3.1750
 30
0.0
 40
  0.0500
 1
17
 0
TEXT
 8
PARTS
 10
  3.8600
 20
  3.2300
 30
0.0
 40
  0.0500
 1
17
 0
LINE
 8
PARTS
 10
  3.9000
 20
  3.1000
 30
0.0
 11
  4.0000
 21
  3.1000
 31
0.0
 0
TEXT
 8
PARTS
 10
  4.0900
 20
  3.0750
 30
0.0
 40
  0.0500
 1
18
 0
TEXT
 8
PARTS
 10
  3.8600
 20
  3.1300
 30
0.0
 40
  0.0500
 1
18
 0
LINE
 8
PARTS
 10
  3.9000
 20
  3.0000
 30
0.0
 11
  4.0000
 21
  3.0000
 31
0.0
 0
TEXT
 8
PARTS
 10
  4.0900
 20
  2.9750
 30
0.0
 40
  0.0500
 1
19
 0
TEXT
 8
PARTS
 10
  3.8600
 20
  3.0300
 30
0.0
 40
  0.0500
 1
19
 0
LINE
 8
PARTS
 10
  3.9000
 20
  2.9000
 30
0.0
 11
  4.0000
 21
  2.9000
 31
0.0
 0
TEXT
 8
PARTS
 10
  4.0900
 20
  2.8750
 30
0.0
 40
  0.0500
 1
20
 0
TEXT
 8
PARTS
 10
  3.8600
 20
  2.9300
 30
0.0
 40
  0.0500
 1
20
 0
LINE
 8
PARTS
 10
  3.9000
 20
  2.8000
 30
0.0
 11
  4.0000
 21
  2.8000
 31
0.0
 0
TEXT
 8
PARTS
 10
  4.0900
 20
  2.7750
 30
0.0
 40
  0.0500
 1
21
 0
TEXT
 8
PARTS
 10
  3.8600
 20
  2.8300
 30
0.0
 40
  0.0500
 1
21
 0
LINE
 8
PARTS
 10
  3.9000
 20
  2.7000
 30
0.0
 11
  4.0000
 21
  2.7000
 31
0.0
 0
TEXT
 8
PARTS
 10
  4.0900
 20
  2.6750
 30
0.0
 40
  0.0500
 1
22
 0
TEXT
 8
PARTS
 10
  3.8600
 20
  2.7300
 30
0.0
 40
  0.0500
 1
22
 0
LINE
 8
PARTS
 10
  3.9000
 20
  2.6000
 30
0.0
 11
  4.0000
 21
  2.6000
 31
0.0
 0
LINE
 8
PARTS
 10
  3.8750
 20
  2.6250
 30
0.0
 11
  3.9250
 21
  2.5750
 31
0.0
 0
LINE
 8
PARTS
 10
  3.9250
 20
  2.6250
 30
0.0
 11
  3.8750
 21
  2.5750
 31
0.0
 0
TEXT
 8
PARTS
 10
  4.0900
 20
  2.5750
 30
0.0
 40
  0.0500
 1
23
 0
TEXT
 8
PARTS
 10
  3.8600
 20
  2.6300
 30
0.0
 40
  0.0500
 1
23
 0
LINE
 8
PARTS
 10
  3.9000
 20
  2.5000
 30
0.0
 11
  4.0000
 21
  2.5000
 31
0.0
 0
LINE
 8
PARTS
 10
  3.8750
 20
  2.5250
 30
0.0
 11
  3.9250
 21
  2.4750
 31
0.0
 0
LINE
 8
PARTS
 10
  3.9250
 20
  2.5250
 30
0.0
 11
  3.8750
 21
  2.4750
 31
0.0
 0
TEXT
 8
PARTS
 10
  4.0900
 20
  2.4750
 30
0.0
 40
  0.0500
 1
24
 0
TEXT
 8
PARTS
 10
  3.8600
 20
  2.5300
 30
0.0
 40
  0.0500
 1
24
 0
POLYLINE
 8
PARTS
 66
1
 10
0.0
 20
0.0
 30
0.0
 0
VERTEX
 8
PARTS
 10
  4.0000
 20
  2.1000
 30
0.0
 0
VERTEX
 8
PARTS
 10
  4.8000
 20
  2.1000
 30
0.0
 0
SEQEND
 8
PARTS
 0
POLYLINE
 8
PARTS
 66
1
 10
0.0
 20
0.0
 30
0.0
 0
VERTEX
 8
PARTS
 10
  4.8000
 20
  2.1000
 30
0.0
 0
VERTEX
 8
PARTS
 10
  4.8000
 20
  4.9000
 30
0.0
 0
SEQEND
 8
PARTS
 0
POLYLINE
 8
PARTS
 66
1
 10
0.0
 20
0.0
 30
0.0
 0
VERTEX
 8
PARTS
 10
  4.8000
 20
  4.9000
 30
0.0
 0
VERTEX
 8
PARTS
 10
  4.0000
 20
  4.9000
 30
0.0
 0
SEQEND
 8
PARTS
 0
POLYLINE
 8
PARTS
 66
1
 10
0.0
 20
0.0
 30
0.0
 0
VERTEX
 8
PARTS
 10
  4.0000
 20
  4.9000
 30
0.0
 0
VERTEX
 8
PARTS
 10
  4.0000
 20
  2.1000
 30
0.0
 0
SEQEND
 8
PARTS
 0
POLYLINE
 8
PARTS
 66
1
 10
0.0
 20
0.0
 30
0.0
 0
VERTEX
 8
PARTS
 10
  4.0000
 20
  4.8000
 30
0.0
 0
VERTEX
 8
PARTS
 10
  4.0000
 20
  4.8000
 30
0.0
 0
SEQEND
 8
PARTS
 0
POLYLINE
 8
PARTS
 66
1
 10
0.0
 20
0.0
 30
0.0
 0
VERTEX
 8
PARTS
 10
  4.0000
 20
  4.7000
 30
0.0
 0
VERTEX
 8
PARTS
 10
  4.0000
 20
  4.7000
 30
0.0
 0
SEQEND
 8
PARTS
 0
POLYLINE
 8
PARTS
 66
1
 10
0.0
 20
0.0
 30
0.0
 0
VERTEX
 8
PARTS
 10
  4.0000
 20
  4.6000
 30
0.0
 0
VERTEX
 8
PARTS
 10
  4.0000
 20
  4.6000
 30
0.0
 0
SEQEND
 8
PARTS
 0
POLYLINE
 8
PARTS
 66
1
 10
0.0
 20
0.0
 30
0.0
 0
VERTEX
 8
PARTS
 10
  4.0000
 20
  4.5000
 30
0.0
 0
VERTEX
 8
PARTS
 10
  4.0000
 20
  4.5000
 30
0.0
 0
SEQEND
 8
PARTS
 0
POLYLINE
 8
PARTS
 66
1
 10
0.0
 20
0.0
 30
0.0
 0
VERTEX
 8
PARTS
 10
  4.0000
 20
  4.4000
 30
0.0
 0
VERTEX
 8
PARTS
 10
  4.0000
 20
  4.4000
 30
0.0
 0
SEQEND
 8
PARTS
 0
POLYLINE
 8
PARTS
 66
1
 10
0.0
 20
0.0
 30
0.0
 0
VERTEX
 8
PARTS
 10
  4.0000
 20
  4.3000
 30
0.0
 0
VERTEX
 8
PARTS
 10
  4.0000
 20
  4.3000
 30
0.0
 0
SEQEND
 8
PARTS
 0
POLYLINE
 8
PARTS
 66
1
 10
0.0
 20
0.0
 30
0.0
 0
VERTEX
 8
PARTS
 10
  4.0000
 20
  4.2000
 30
0.0
 0
VERTEX
 8
PARTS
 10
  4.0000
 20
  4.2000
 30
0.0
 0
SEQEND
 8
PARTS
 0
POLYLINE
 8
PARTS
 66
1
 10
0.0
 20
0.0
 30
0.0
 0
VERTEX
 8
PARTS
 10
  4.0000
 20
  4.1000
 30
0.0
 0
VERTEX
 8
PARTS
 10
  4.0000
 20
  4.1000
 30
0.0
 0
SEQEND
 8
PARTS
 0
POLYLINE
 8
PARTS
 66
1
 10
0.0
 20
0.0
 30
0.0
 0
VERTEX
 8
PARTS
 10
  4.0000
 20
  2.3000
 30
0.0
 0
VERTEX
 8
PARTS
 10
  4.0000
 20
  2.3000
 30
0.0
 0
SEQEND
 8
PARTS
 0
POLYLINE
 8
PARTS
 66
1
 10
0.0
 20
0.0
 30
0.0
 0
VERTEX
 8
PARTS
 10
  4.0000
 20
  4.0000
 30
0.0
 0
VERTEX
 8
PARTS
 10
  4.0000
 20
  4.0000
 30
0.0
 0
SEQEND
 8
PARTS
 0
POLYLINE
 8
PARTS
 66
1
 10
0.0
 20
0.0
 30
0.0
 0
VERTEX
 8
PARTS
 10
  4.0000
 20
  3.9000
 30
0.0
 0
VERTEX
 8
PARTS
 10
  4.0000
 20
  3.9000
 30
0.0
 0
SEQEND
 8
PARTS
 0
POLYLINE
 8
PARTS
 66
1
 10
0.0
 20
0.0
 30
0.0
 0
VERTEX
 8
PARTS
 10
  4.0000
 20
  3.8000
 30
0.0
 0
VERTEX
 8
PARTS
 10
  4.0000
 20
  3.8000
 30
0.0
 0
SEQEND
 8
PARTS
 0
POLYLINE
 8
PARTS
 66
1
 10
0.0
 20
0.0
 30
0.0
 0
VERTEX
 8
PARTS
 10
  4.0000
 20
  3.7000
 30
0.0
 0
VERTEX
 8
PARTS
 10
  4.0000
 20
  3.7000
 30
0.0
 0
SEQEND
 8
PARTS
 0
POLYLINE
 8
PARTS
 66
1
 10
0.0
 20
0.0
 30
0.0
 0
VERTEX
 8
PARTS
 10
  4.0000
 20
  3.6000
 30
0.0
 0
VERTEX
 8
PARTS
 10
  4.0000
 20
  3.6000
 30
0.0
 0
SEQEND
 8
PARTS
 0
POLYLINE
 8
PARTS
 66
1
 10
0.0
 20
0.0
 30
0.0
 0
VERTEX
 8
PARTS
 10
  4.0000
 20
  3.5000
 30
0.0
 0
VERTEX
 8
PARTS
 10
  4.0000
 20
  3.5000
 30
0.0
 0
SEQEND
 8
PARTS
 0
POLYLINE
 8
PARTS
 66
1
 10
0.0
 20
0.0
 30
0.0
 0
VERTEX
 8
PARTS
 10
  4.0000
 20
  3.4000
 30
0.0
 0
VERTEX
 8
PARTS
 10
  4.0000
 20
  3.4000
 30
0.0
 0
SEQEND
 8
PARTS
 0
POLYLINE
 8
PARTS
 66
1
 10
0.0
 20
0.0
 30
0.0
 0
VERTEX
 8
PARTS
 10
  4.0000
 20
  3.3000
 30
0.0
 0
VERTEX
 8
PARTS
 10
  4.0000
 20
  3.3000
 30
0.0
 0
SEQEND
 8
PARTS
 0
POLYLINE
 8
PARTS
 66
1
 10
0.0
 20
0.0
 30
0.0
 0
VERTEX
 8
PARTS
 10
  4.0000
 20
  3.2000
 30
0.0
 0
VERTEX
 8
PARTS
 10
  4.0000
 20
  3.2000
 30
0.0
 0
SEQEND
 8
PARTS
 0
POLYLINE
 8
PARTS
 66
1
 10
0.0
 20
0.0
 30
0.0
 0
VERTEX
 8
PARTS
 10
  4.0000
 20
  3.1000
 30
0.0
 0
VERTEX
 8
PARTS
 10
  4.0000
 20
  3.1000
 30
0.0
 0
SEQEND
 8
PARTS
 0
POLYLINE
 8
PARTS
 66
1
 10
0.0
 20
0.0
 30
0.0
 0
VERTEX
 8
PARTS
 10
  4.0000
 20
  3.0000
 30
0.0
 0
VERTEX
 8
PARTS
 10
  4.0000
 20
  3.0000
 30
0.0
 0
SEQEND
 8
PARTS
 0
POLYLINE
 8
PARTS
 66
1
 10
0.0
 20
0.0
 30
0.0
 0
VERTEX
 8
PARTS
 10
  4.0000
 20
  2.9000
 30
0.0
 0
VERTEX
 8
PARTS
 10
  4.0000
 20
  2.9000
 30
0.0
 0
SEQEND
 8
PARTS
 0
POLYLINE
 8
PARTS
 66
1
 10
0.0
 20
0.0
 30
0.0
 0
VERTEX
 8
PARTS
 10
  4.0000
 20
  2.8000
 30
0.0
 0
VERTEX
 8
PARTS
 10
  4.0000
 20
  2.8000
 30
0.0
 0
SEQEND
 8
PARTS
 0
POLYLINE
 8
PARTS
 66
1
 10
0.0
 20
0.0
 30
0.0
 0
VERTEX
 8
PARTS
 10
  4.0000
 20
  2.7000
 30
0.0
 0
VERTEX
 8
PARTS
 10
  4.0000
 20
  2.7000
 30
0.0
 0
SEQEND
 8
PARTS
 0
POLYLINE
 8
PARTS
 66
1
 10
0.0
 20
0.0
 30
0.0
 0
VERTEX
 8
PARTS
 10
  4.0000
 20
  2.6000
 30
0.0
 0
VERTEX
 8
PARTS
 10
  4.0000
 20
  2.6000
 30
0.0
 0
SEQEND
 8
PARTS
 0
POLYLINE
 8
PARTS
 66
1
 10
0.0
 20
0.0
 30
0.0
 0
VERTEX
 8
PARTS
 10
  4.0000
 20
  2.5000
 30
0.0
 0
VERTEX
 8
PARTS
 10
  4.0000
 20
  2.5000
 30
0.0
 0
SEQEND
 8
PARTS
 0
POLYLINE
 8
PARTS
 66
1
 10
0.0
 20
0.0
 30
0.0
 0
VERTEX
 8
PARTS
 10
  4.0000
 20
  2.2000
 30
0.0
 0
VERTEX
 8
PARTS
 10
  4.0000
 20
  2.2000
 30
0.0
 0
SEQEND
 8
PARTS
 0
TEXT
 8
PARTTEXT
 10
  1.5000
 20
  3.5186
 30
0.0
 40
  0.0514
 1
C18
 0
TEXT
 8
PARTTEXT
 10
  1.4000
 20
  3.4186
 30
0.0
 40
  0.0514
 1
4.7 uf
 0
LINE
 8
PARTS
 10
  1.7000
 20
  3.7000
 30
0.0
 11
  1.7000
 21
  3.6000
 31
0.0
 0
TEXT
 8
PARTS
 10
  1.6700
 20
  3.6600
 30
0.0
 40
  0.0500
 50
 90.0000
 1
1
 0
LINE
 8
PARTS
 10
  1.7000
 20
  3.4000
 30
0.0
 11
  1.7000
 21
  3.5000
 31
0.0
 0
TEXT
 8
PARTS
 10
  1.6700
 20
  3.3800
 30
0.0
 40
  0.0500
 50
 90.0000
 1
2
 0
POLYLINE
 8
PARTS
 66
1
 70
1
 10
0.0
 20
0.0
 30
0.0
 0
VERTEX
 8
PARTS
 10
  1.6200
 20
  3.6000
 30
0.0
 0
VERTEX
 8
PARTS
 10
  1.7700
 20
  3.6000
 30
0.0
 0
VERTEX
 8
PARTS
 10
  1.7700
 20
  3.5800
 30
0.0
 0
VERTEX
 8
PARTS
 10
  1.6200
 20
  3.5800
 30
0.0
 0
SEQEND
 8
PARTS
 0
POLYLINE
 8
PARTS
 66
1
 70
1
 10
0.0
 20
0.0
 30
0.0
 0
VERTEX
 8
PARTS
 10
  1.6200
 20
  3.5200
 30
0.0
 0
VERTEX
 8
PARTS
 10
  1.7700
 20
  3.5200
 30
0.0
 0
VERTEX
 8
PARTS
 10
  1.7700
 20
  3.5000
 30
0.0
 0
VERTEX
 8
PARTS
 10
  1.6200
 20
  3.5000
 30
0.0
 0
SEQEND
 8
PARTS
 0
POLYLINE
 8
PARTS
 66
1
 10
0.0
 20
0.0
 30
0.0
 0
VERTEX
 8
PARTS
 10
  1.7000
 20
  3.5000
 30
0.0
 0
VERTEX
 8
PARTS
 10
  1.7000
 20
  3.5000
 30
0.0
 0
SEQEND
 8
PARTS
 0
POLYLINE
 8
PARTS
 66
1
 10
0.0
 20
0.0
 30
0.0
 0
VERTEX
 8
PARTS
 10
  1.7000
 20
  3.6000
 30
0.0
 0
VERTEX
 8
PARTS
 10
  1.7000
 20
  3.6000
 30
0.0
 0
SEQEND
 8
PARTS
 0
TEXT
 8
PARTTEXT
 10
  3.5000
 20
  3.5186
 30
0.0
 40
  0.0514
 1
0 Ohm
 0
TEXT
 8
PARTTEXT
 10
  3.5000
 20
  3.6186
 30
0.0
 40
  0.0514
 1
R3
 0
LINE
 8
PARTS
 10
  3.6000
 20
  3.6000
 30
0.0
 11
  3.5000
 21
  3.6000
 31
0.0
 0
TEXT
 8
PARTS
 10
  3.3700
 20
  3.5750
 30
0.0
 40
  0.0500
 1
1
 0
LINE
 8
PARTS
 10
  3.1000
 20
  3.6000
 30
0.0
 11
  3.2000
 21
  3.6000
 31
0.0
 0
TEXT
 8
PARTS
 10
  3.2900
 20
  3.5750
 30
0.0
 40
  0.0500
 1
2
 0
POLYLINE
 8
PARTS
 66
1
 10
0.0
 20
0.0
 30
0.0
 40
  0.0600
 41
  0.0600
 0
VERTEX
 8
PARTS
 10
  3.2300
 20
  3.6500
 30
0.0
 0
VERTEX
 8
PARTS
 10
  3.2800
 20
  3.5500
 30
0.0
 0
SEQEND
 8
PARTS
 0
POLYLINE
 8
PARTS
 66
1
 10
0.0
 20
0.0
 30
0.0
 40
  0.0600
 41
  0.0600
 0
VERTEX
 8
PARTS
 10
  3.2800
 20
  3.5500
 30
0.0
 0
VERTEX
 8
PARTS
 10
  3.3300
 20
  3.6500
 30
0.0
 0
SEQEND
 8
PARTS
 0
POLYLINE
 8
PARTS
 66
1
 10
0.0
 20
0.0
 30
0.0
 40
  0.0600
 41
  0.0600
 0
VERTEX
 8
PARTS
 10
  3.3300
 20
  3.6500
 30
0.0
 0
VERTEX
 8
PARTS
 10
  3.3800
 20
  3.5500
 30
0.0
 0
SEQEND
 8
PARTS
 0
POLYLINE
 8
PARTS
 66
1
 10
0.0
 20
0.0
 30
0.0
 40
  0.0600
 41
  0.0600
 0
VERTEX
 8
PARTS
 10
  3.3800
 20
  3.5500
 30
0.0
 0
VERTEX
 8
PARTS
 10
  3.4300
 20
  3.6500
 30
0.0
 0
SEQEND
 8
PARTS
 0
POLYLINE
 8
PARTS
 66
1
 10
0.0
 20
0.0
 30
0.0
 40
  0.0600
 41
  0.0600
 0
VERTEX
 8
PARTS
 10
  3.4300
 20
  3.6500
 30
0.0
 0
VERTEX
 8
PARTS
 10
  3.4800
 20
  3.5500
 30
0.0
 0
SEQEND
 8
PARTS
 0
POLYLINE
 8
PARTS
 66
1
 10
0.0
 20
0.0
 30
0.0
 40
  0.0600
 41
  0.0600
 0
VERTEX
 8
PARTS
 10
  3.2000
 20
  3.6000
 30
0.0
 0
VERTEX
 8
PARTS
 10
  3.2300
 20
  3.6500
 30
0.0
 0
SEQEND
 8
PARTS
 0
POLYLINE
 8
PARTS
 66
1
 10
0.0
 20
0.0
 30
0.0
 40
  0.0600
 41
  0.0600
 0
VERTEX
 8
PARTS
 10
  3.4800
 20
  3.5500
 30
0.0
 0
VERTEX
 8
PARTS
 10
  3.5000
 20
  3.6000
 30
0.0
 0
SEQEND
 8
PARTS
 0
TEXT
 8
PARTTEXT
 10
  1.8000
 20
  4.3186
 30
0.0
 40
  0.0514
 1
C16
 0
TEXT
 8
PARTTEXT
 10
  1.7000
 20
  4.2186
 30
0.0
 40
  0.0514
 1
4.7 uf
 0
LINE
 8
PARTS
 10
  2.0000
 20
  4.4000
 30
0.0
 11
  2.0000
 21
  4.3000
 31
0.0
 0
TEXT
 8
PARTS
 10
  1.9700
 20
  4.3600
 30
0.0
 40
  0.0500
 50
 90.0000
 1
1
 0
LINE
 8
PARTS
 10
  2.0000
 20
  4.1000
 30
0.0
 11
  2.0000
 21
  4.2000
 31
0.0
 0
TEXT
 8
PARTS
 10
  1.9700
 20
  4.0800
 30
0.0
 40
  0.0500
 50
 90.0000
 1
2
 0
POLYLINE
 8
PARTS
 66
1
 70
1
 10
0.0
 20
0.0
 30
0.0
 0
VERTEX
 8
PARTS
 10
  1.9200
 20
  4.3000
 30
0.0
 0
VERTEX
 8
PARTS
 10
  2.0700
 20
  4.3000
 30
0.0
 0
VERTEX
 8
PARTS
 10
  2.0700
 20
  4.2800
 30
0.0
 0
VERTEX
 8
PARTS
 10
  1.9200
 20
  4.2800
 30
0.0
 0
SEQEND
 8
PARTS
 0
POLYLINE
 8
PARTS
 66
1
 70
1
 10
0.0
 20
0.0
 30
0.0
 0
VERTEX
 8
PARTS
 10
  1.9200
 20
  4.2200
 30
0.0
 0
VERTEX
 8
PARTS
 10
  2.0700
 20
  4.2200
 30
0.0
 0
VERTEX
 8
PARTS
 10
  2.0700
 20
  4.2000
 30
0.0
 0
VERTEX
 8
PARTS
 10
  1.9200
 20
  4.2000
 30
0.0
 0
SEQEND
 8
PARTS
 0
POLYLINE
 8
PARTS
 66
1
 10
0.0
 20
0.0
 30
0.0
 0
VERTEX
 8
PARTS
 10
  2.0000
 20
  4.2000
 30
0.0
 0
VERTEX
 8
PARTS
 10
  2.0000
 20
  4.2000
 30
0.0
 0
SEQEND
 8
PARTS
 0
POLYLINE
 8
PARTS
 66
1
 10
0.0
 20
0.0
 30
0.0
 0
VERTEX
 8
PARTS
 10
  2.0000
 20
  4.3000
 30
0.0
 0
VERTEX
 8
PARTS
 10
  2.0000
 20
  4.3000
 30
0.0
 0
SEQEND
 8
PARTS
 0
TEXT
 8
PARTTEXT
 10
  6.2000
 20
  4.8186
 30
0.0
 40
  0.0514
 1
TP7
 0
TEXT
 8
PARTTEXT
 10
  6.2000
 20
  4.3186
 30
0.0
 40
  0.0514
 1
TP_HSYNC
 0
LINE
 8
PARTS
 10
  5.9000
 20
  4.6000
 30
0.0
 11
  6.2000
 21
  4.6000
 31
0.0
 0
TEXT
 8
PARTS
 10
  6.1000
 20
  4.6300
 30
0.0
 40
  0.0500
 1
1
 0
POLYLINE
 8
PARTS
 66
1
 70
1
 10
0.0
 20
0.0
 30
0.0
 0
VERTEX
 8
PARTS
 10
  6.2000
 20
  4.7000
 30
0.0
 0
VERTEX
 8
PARTS
 10
  6.3000
 20
  4.7000
 30
0.0
 0
VERTEX
 8
PARTS
 10
  6.3000
 20
  4.5000
 30
0.0
 0
VERTEX
 8
PARTS
 10
  6.2000
 20
  4.5000
 30
0.0
 0
SEQEND
 8
PARTS
 0
TEXT
 8
PARTTEXT
 10
  2.6000
 20
  3.7186
 30
0.0
 40
  0.0514
 1
R17
 0
TEXT
 8
PARTTEXT
 10
  2.8000
 20
  3.6186
 30
0.0
 40
  0.0514
 1
33 Ohm
 0
LINE
 8
PARTS
 10
  2.7000
 20
  3.7000
 30
0.0
 11
  2.8000
 21
  3.7000
 31
0.0
 0
LINE
 8
PARTS
 10
  3.2000
 20
  3.7000
 30
0.0
 11
  3.1000
 21
  3.7000
 31
0.0
 0
POLYLINE
 8
PARTS
 66
1
 10
0.0
 20
0.0
 30
0.0
 0
VERTEX
 8
PARTS
 10
  2.8000
 20
  3.7200
 30
0.0
 0
VERTEX
 8
PARTS
 10
  3.1000
 20
  3.7200
 30
0.0
 0
SEQEND
 8
PARTS
 0
POLYLINE
 8
PARTS
 66
1
 10
0.0
 20
0.0
 30
0.0
 0
VERTEX
 8
PARTS
 10
  3.1000
 20
  3.7200
 30
0.0
 0
VERTEX
 8
PARTS
 10
  3.1000
 20
  3.6800
 30
0.0
 0
SEQEND
 8
PARTS
 0
POLYLINE
 8
PARTS
 66
1
 10
0.0
 20
0.0
 30
0.0
 0
VERTEX
 8
PARTS
 10
  3.1000
 20
  3.6800
 30
0.0
 0
VERTEX
 8
PARTS
 10
  2.8000
 20
  3.6800
 30
0.0
 0
SEQEND
 8
PARTS
 0
POLYLINE
 8
PARTS
 66
1
 10
0.0
 20
0.0
 30
0.0
 0
VERTEX
 8
PARTS
 10
  2.8000
 20
  3.6800
 30
0.0
 0
VERTEX
 8
PARTS
 10
  2.8000
 20
  3.7200
 30
0.0
 0
SEQEND
 8
PARTS
 0
POLYLINE
 8
PARTS
 66
1
 10
0.0
 20
0.0
 30
0.0
 0
VERTEX
 8
PARTS
 10
  2.8000
 20
  3.7000
 30
0.0
 0
VERTEX
 8
PARTS
 10
  2.8000
 20
  3.7000
 30
0.0
 0
SEQEND
 8
PARTS
 0
POLYLINE
 8
PARTS
 66
1
 10
0.0
 20
0.0
 30
0.0
 0
VERTEX
 8
PARTS
 10
  3.1000
 20
  3.7000
 30
0.0
 0
VERTEX
 8
PARTS
 10
  3.1000
 20
  3.7000
 30
0.0
 0
SEQEND
 8
PARTS
 0
TEXT
 8
PARTTEXT
 10
  6.2000
 20
  3.5186
 30
0.0
 40
  0.0514
 1
TP9
 0
TEXT
 8
PARTTEXT
 10
  6.2000
 20
  3.0186
 30
0.0
 40
  0.0514
 1
TP_XCLK
 0
LINE
 8
PARTS
 10
  5.9000
 20
  3.3000
 30
0.0
 11
  6.2000
 21
  3.3000
 31
0.0
 0
TEXT
 8
PARTS
 10
  6.1000
 20
  3.3300
 30
0.0
 40
  0.0500
 1
1
 0
POLYLINE
 8
PARTS
 66
1
 70
1
 10
0.0
 20
0.0
 30
0.0
 0
VERTEX
 8
PARTS
 10
  6.2000
 20
  3.4000
 30
0.0
 0
VERTEX
 8
PARTS
 10
  6.3000
 20
  3.4000
 30
0.0
 0
VERTEX
 8
PARTS
 10
  6.3000
 20
  3.2000
 30
0.0
 0
VERTEX
 8
PARTS
 10
  6.2000
 20
  3.2000
 30
0.0
 0
SEQEND
 8
PARTS
 0
TEXT
 8
PARTTEXT
 10
  2.6000
 20
  3.3186
 30
0.0
 40
  0.0514
 1
R19
 0
TEXT
 8
PARTTEXT
 10
  2.8000
 20
  3.2186
 30
0.0
 40
  0.0514
 1
33 Ohm
 0
LINE
 8
PARTS
 10
  2.7000
 20
  3.3000
 30
0.0
 11
  2.8000
 21
  3.3000
 31
0.0
 0
LINE
 8
PARTS
 10
  3.2000
 20
  3.3000
 30
0.0
 11
  3.1000
 21
  3.3000
 31
0.0
 0
POLYLINE
 8
PARTS
 66
1
 10
0.0
 20
0.0
 30
0.0
 0
VERTEX
 8
PARTS
 10
  2.8000
 20
  3.3200
 30
0.0
 0
VERTEX
 8
PARTS
 10
  3.1000
 20
  3.3200
 30
0.0
 0
SEQEND
 8
PARTS
 0
POLYLINE
 8
PARTS
 66
1
 10
0.0
 20
0.0
 30
0.0
 0
VERTEX
 8
PARTS
 10
  3.1000
 20
  3.3200
 30
0.0
 0
VERTEX
 8
PARTS
 10
  3.1000
 20
  3.2800
 30
0.0
 0
SEQEND
 8
PARTS
 0
POLYLINE
 8
PARTS
 66
1
 10
0.0
 20
0.0
 30
0.0
 0
VERTEX
 8
PARTS
 10
  3.1000
 20
  3.2800
 30
0.0
 0
VERTEX
 8
PARTS
 10
  2.8000
 20
  3.2800
 30
0.0
 0
SEQEND
 8
PARTS
 0
POLYLINE
 8
PARTS
 66
1
 10
0.0
 20
0.0
 30
0.0
 0
VERTEX
 8
PARTS
 10
  2.8000
 20
  3.2800
 30
0.0
 0
VERTEX
 8
PARTS
 10
  2.8000
 20
  3.3200
 30
0.0
 0
SEQEND
 8
PARTS
 0
POLYLINE
 8
PARTS
 66
1
 10
0.0
 20
0.0
 30
0.0
 0
VERTEX
 8
PARTS
 10
  2.8000
 20
  3.3000
 30
0.0
 0
VERTEX
 8
PARTS
 10
  2.8000
 20
  3.3000
 30
0.0
 0
SEQEND
 8
PARTS
 0
POLYLINE
 8
PARTS
 66
1
 10
0.0
 20
0.0
 30
0.0
 0
VERTEX
 8
PARTS
 10
  3.1000
 20
  3.3000
 30
0.0
 0
VERTEX
 8
PARTS
 10
  3.1000
 20
  3.3000
 30
0.0
 0
SEQEND
 8
PARTS
 0
TEXT
 8
PARTTEXT
 10
  2.6000
 20
  2.4186
 30
0.0
 40
  0.0514
 1
R21
 0
TEXT
 8
PARTTEXT
 10
  2.8000
 20
  2.2786
 30
0.0
 40
  0.0514
 1
33 Ohm
 0
LINE
 8
PARTS
 10
  2.7000
 20
  2.4000
 30
0.0
 11
  2.8000
 21
  2.4000
 31
0.0
 0
LINE
 8
PARTS
 10
  3.2000
 20
  2.4000
 30
0.0
 11
  3.1000
 21
  2.4000
 31
0.0
 0
POLYLINE
 8
PARTS
 66
1
 10
0.0
 20
0.0
 30
0.0
 0
VERTEX
 8
PARTS
 10
  2.8000
 20
  2.4200
 30
0.0
 0
VERTEX
 8
PARTS
 10
  3.1000
 20
  2.4200
 30
0.0
 0
SEQEND
 8
PARTS
 0
POLYLINE
 8
PARTS
 66
1
 10
0.0
 20
0.0
 30
0.0
 0
VERTEX
 8
PARTS
 10
  3.1000
 20
  2.4200
 30
0.0
 0
VERTEX
 8
PARTS
 10
  3.1000
 20
  2.3800
 30
0.0
 0
SEQEND
 8
PARTS
 0
POLYLINE
 8
PARTS
 66
1
 10
0.0
 20
0.0
 30
0.0
 0
VERTEX
 8
PARTS
 10
  3.1000
 20
  2.3800
 30
0.0
 0
VERTEX
 8
PARTS
 10
  2.8000
 20
  2.3800
 30
0.0
 0
SEQEND
 8
PARTS
 0
POLYLINE
 8
PARTS
 66
1
 10
0.0
 20
0.0
 30
0.0
 0
VERTEX
 8
PARTS
 10
  2.8000
 20
  2.3800
 30
0.0
 0
VERTEX
 8
PARTS
 10
  2.8000
 20
  2.4200
 30
0.0
 0
SEQEND
 8
PARTS
 0
POLYLINE
 8
PARTS
 66
1
 10
0.0
 20
0.0
 30
0.0
 0
VERTEX
 8
PARTS
 10
  2.8000
 20
  2.4000
 30
0.0
 0
VERTEX
 8
PARTS
 10
  2.8000
 20
  2.4000
 30
0.0
 0
SEQEND
 8
PARTS
 0
POLYLINE
 8
PARTS
 66
1
 10
0.0
 20
0.0
 30
0.0
 0
VERTEX
 8
PARTS
 10
  3.1000
 20
  2.4000
 30
0.0
 0
VERTEX
 8
PARTS
 10
  3.1000
 20
  2.4000
 30
0.0
 0
SEQEND
 8
PARTS
 0
TEXT
 8
PARTTEXT
 10
  2.6000
 20
  2.0186
 30
0.0
 40
  0.0514
 1
R23
 0
TEXT
 8
PARTTEXT
 10
  2.8000
 20
  1.8786
 30
0.0
 40
  0.0514
 1
33 Ohm
 0
LINE
 8
PARTS
 10
  2.7000
 20
  2.0000
 30
0.0
 11
  2.8000
 21
  2.0000
 31
0.0
 0
LINE
 8
PARTS
 10
  3.2000
 20
  2.0000
 30
0.0
 11
  3.1000
 21
  2.0000
 31
0.0
 0
POLYLINE
 8
PARTS
 66
1
 10
0.0
 20
0.0
 30
0.0
 0
VERTEX
 8
PARTS
 10
  2.8000
 20
  2.0200
 30
0.0
 0
VERTEX
 8
PARTS
 10
  3.1000
 20
  2.0200
 30
0.0
 0
SEQEND
 8
PARTS
 0
POLYLINE
 8
PARTS
 66
1
 10
0.0
 20
0.0
 30
0.0
 0
VERTEX
 8
PARTS
 10
  3.1000
 20
  2.0200
 30
0.0
 0
VERTEX
 8
PARTS
 10
  3.1000
 20
  1.9800
 30
0.0
 0
SEQEND
 8
PARTS
 0
POLYLINE
 8
PARTS
 66
1
 10
0.0
 20
0.0
 30
0.0
 0
VERTEX
 8
PARTS
 10
  3.1000
 20
  1.9800
 30
0.0
 0
VERTEX
 8
PARTS
 10
  2.8000
 20
  1.9800
 30
0.0
 0
SEQEND
 8
PARTS
 0
POLYLINE
 8
PARTS
 66
1
 10
0.0
 20
0.0
 30
0.0
 0
VERTEX
 8
PARTS
 10
  2.8000
 20
  1.9800
 30
0.0
 0
VERTEX
 8
PARTS
 10
  2.8000
 20
  2.0200
 30
0.0
 0
SEQEND
 8
PARTS
 0
POLYLINE
 8
PARTS
 66
1
 10
0.0
 20
0.0
 30
0.0
 0
VERTEX
 8
PARTS
 10
  2.8000
 20
  2.0000
 30
0.0
 0
VERTEX
 8
PARTS
 10
  2.8000
 20
  2.0000
 30
0.0
 0
SEQEND
 8
PARTS
 0
POLYLINE
 8
PARTS
 66
1
 10
0.0
 20
0.0
 30
0.0
 0
VERTEX
 8
PARTS
 10
  3.1000
 20
  2.0000
 30
0.0
 0
VERTEX
 8
PARTS
 10
  3.1000
 20
  2.0000
 30
0.0
 0
SEQEND
 8
PARTS
 0
TEXT
 8
PARTTEXT
 10
  1.9000
 20
  4.9186
 30
0.0
 40
  0.0514
 1
C13
 0
TEXT
 8
PARTTEXT
 10
  1.9000
 20
  4.8186
 30
0.0
 40
  0.0514
 1
4.7 uf
 0
LINE
 8
PARTS
 10
  1.8000
 20
  5.0000
 30
0.0
 11
  1.8000
 21
  4.9000
 31
0.0
 0
TEXT
 8
PARTS
 10
  1.7700
 20
  4.9600
 30
0.0
 40
  0.0500
 50
 90.0000
 1
1
 0
LINE
 8
PARTS
 10
  1.8000
 20
  4.7000
 30
0.0
 11
  1.8000
 21
  4.8000
 31
0.0
 0
TEXT
 8
PARTS
 10
  1.7700
 20
  4.6800
 30
0.0
 40
  0.0500
 50
 90.0000
 1
2
 0
POLYLINE
 8
PARTS
 66
1
 70
1
 10
0.0
 20
0.0
 30
0.0
 0
VERTEX
 8
PARTS
 10
  1.7200
 20
  4.9000
 30
0.0
 0
VERTEX
 8
PARTS
 10
  1.8700
 20
  4.9000
 30
0.0
 0
VERTEX
 8
PARTS
 10
  1.8700
 20
  4.8800
 30
0.0
 0
VERTEX
 8
PARTS
 10
  1.7200
 20
  4.8800
 30
0.0
 0
SEQEND
 8
PARTS
 0
POLYLINE
 8
PARTS
 66
1
 70
1
 10
0.0
 20
0.0
 30
0.0
 0
VERTEX
 8
PARTS
 10
  1.7200
 20
  4.8200
 30
0.0
 0
VERTEX
 8
PARTS
 10
  1.8700
 20
  4.8200
 30
0.0
 0
VERTEX
 8
PARTS
 10
  1.8700
 20
  4.8000
 30
0.0
 0
VERTEX
 8
PARTS
 10
  1.7200
 20
  4.8000
 30
0.0
 0
SEQEND
 8
PARTS
 0
POLYLINE
 8
PARTS
 66
1
 10
0.0
 20
0.0
 30
0.0
 0
VERTEX
 8
PARTS
 10
  1.8000
 20
  4.8000
 30
0.0
 0
VERTEX
 8
PARTS
 10
  1.8000
 20
  4.8000
 30
0.0
 0
SEQEND
 8
PARTS
 0
POLYLINE
 8
PARTS
 66
1
 10
0.0
 20
0.0
 30
0.0
 0
VERTEX
 8
PARTS
 10
  1.8000
 20
  4.9000
 30
0.0
 0
VERTEX
 8
PARTS
 10
  1.8000
 20
  4.9000
 30
0.0
 0
SEQEND
 8
PARTS
 0
TEXT
 8
PARTTEXT
 10
  6.2000
 20
  5.5186
 30
0.0
 40
  0.0514
 1
TP10
 0
TEXT
 8
PARTTEXT
 10
  6.2000
 20
  5.0186
 30
0.0
 40
  0.0514
 1
TP_PCLK
 0
LINE
 8
PARTS
 10
  5.9000
 20
  5.3000
 30
0.0
 11
  6.2000
 21
  5.3000
 31
0.0
 0
TEXT
 8
PARTS
 10
  6.1000
 20
  5.3300
 30
0.0
 40
  0.0500
 1
1
 0
POLYLINE
 8
PARTS
 66
1
 70
1
 10
0.0
 20
0.0
 30
0.0
 0
VERTEX
 8
PARTS
 10
  6.2000
 20
  5.4000
 30
0.0
 0
VERTEX
 8
PARTS
 10
  6.3000
 20
  5.4000
 30
0.0
 0
VERTEX
 8
PARTS
 10
  6.3000
 20
  5.2000
 30
0.0
 0
VERTEX
 8
PARTS
 10
  6.2000
 20
  5.2000
 30
0.0
 0
SEQEND
 8
PARTS
 0
TEXT
 8
PARTTEXT
 10
  1.2000
 20
  4.3186
 30
0.0
 40
  0.0514
 1
C15
 0
TEXT
 8
PARTTEXT
 10
  1.2000
 20
  4.2186
 30
0.0
 40
  0.0514
 1
0.1uf
 0
LINE
 8
PARTS
 10
  1.5000
 20
  4.4000
 30
0.0
 11
  1.5000
 21
  4.3000
 31
0.0
 0
TEXT
 8
PARTS
 10
  1.4700
 20
  4.3600
 30
0.0
 40
  0.0500
 50
 90.0000
 1
1
 0
LINE
 8
PARTS
 10
  1.5000
 20
  4.1000
 30
0.0
 11
  1.5000
 21
  4.2000
 31
0.0
 0
TEXT
 8
PARTS
 10
  1.4700
 20
  4.0800
 30
0.0
 40
  0.0500
 50
 90.0000
 1
2
 0
POLYLINE
 8
PARTS
 66
1
 70
1
 10
0.0
 20
0.0
 30
0.0
 0
VERTEX
 8
PARTS
 10
  1.4200
 20
  4.3000
 30
0.0
 0
VERTEX
 8
PARTS
 10
  1.5700
 20
  4.3000
 30
0.0
 0
VERTEX
 8
PARTS
 10
  1.5700
 20
  4.2800
 30
0.0
 0
VERTEX
 8
PARTS
 10
  1.4200
 20
  4.2800
 30
0.0
 0
SEQEND
 8
PARTS
 0
POLYLINE
 8
PARTS
 66
1
 70
1
 10
0.0
 20
0.0
 30
0.0
 0
VERTEX
 8
PARTS
 10
  1.4200
 20
  4.2200
 30
0.0
 0
VERTEX
 8
PARTS
 10
  1.5700
 20
  4.2200
 30
0.0
 0
VERTEX
 8
PARTS
 10
  1.5700
 20
  4.2000
 30
0.0
 0
VERTEX
 8
PARTS
 10
  1.4200
 20
  4.2000
 30
0.0
 0
SEQEND
 8
PARTS
 0
POLYLINE
 8
PARTS
 66
1
 10
0.0
 20
0.0
 30
0.0
 0
VERTEX
 8
PARTS
 10
  1.5000
 20
  4.2000
 30
0.0
 0
VERTEX
 8
PARTS
 10
  1.5000
 20
  4.2000
 30
0.0
 0
SEQEND
 8
PARTS
 0
POLYLINE
 8
PARTS
 66
1
 10
0.0
 20
0.0
 30
0.0
 0
VERTEX
 8
PARTS
 10
  1.5000
 20
  4.3000
 30
0.0
 0
VERTEX
 8
PARTS
 10
  1.5000
 20
  4.3000
 30
0.0
 0
SEQEND
 8
PARTS
 0
TEXT
 8
PARTTEXT
 10
  1.0000
 20
  3.5186
 30
0.0
 40
  0.0514
 1
C17
 0
TEXT
 8
PARTTEXT
 10
  0.9000
 20
  3.4186
 30
0.0
 40
  0.0514
 1
0.1uf
 0
LINE
 8
PARTS
 10
  1.2000
 20
  3.7000
 30
0.0
 11
  1.2000
 21
  3.6000
 31
0.0
 0
TEXT
 8
PARTS
 10
  1.1700
 20
  3.6600
 30
0.0
 40
  0.0500
 50
 90.0000
 1
1
 0
LINE
 8
PARTS
 10
  1.2000
 20
  3.4000
 30
0.0
 11
  1.2000
 21
  3.5000
 31
0.0
 0
TEXT
 8
PARTS
 10
  1.1700
 20
  3.3800
 30
0.0
 40
  0.0500
 50
 90.0000
 1
2
 0
POLYLINE
 8
PARTS
 66
1
 70
1
 10
0.0
 20
0.0
 30
0.0
 0
VERTEX
 8
PARTS
 10
  1.1200
 20
  3.6000
 30
0.0
 0
VERTEX
 8
PARTS
 10
  1.2700
 20
  3.6000
 30
0.0
 0
VERTEX
 8
PARTS
 10
  1.2700
 20
  3.5800
 30
0.0
 0
VERTEX
 8
PARTS
 10
  1.1200
 20
  3.5800
 30
0.0
 0
SEQEND
 8
PARTS
 0
POLYLINE
 8
PARTS
 66
1
 70
1
 10
0.0
 20
0.0
 30
0.0
 0
VERTEX
 8
PARTS
 10
  1.1200
 20
  3.5200
 30
0.0
 0
VERTEX
 8
PARTS
 10
  1.2700
 20
  3.5200
 30
0.0
 0
VERTEX
 8
PARTS
 10
  1.2700
 20
  3.5000
 30
0.0
 0
VERTEX
 8
PARTS
 10
  1.1200
 20
  3.5000
 30
0.0
 0
SEQEND
 8
PARTS
 0
POLYLINE
 8
PARTS
 66
1
 10
0.0
 20
0.0
 30
0.0
 0
VERTEX
 8
PARTS
 10
  1.2000
 20
  3.5000
 30
0.0
 0
VERTEX
 8
PARTS
 10
  1.2000
 20
  3.5000
 30
0.0
 0
SEQEND
 8
PARTS
 0
POLYLINE
 8
PARTS
 66
1
 10
0.0
 20
0.0
 30
0.0
 0
VERTEX
 8
PARTS
 10
  1.2000
 20
  3.6000
 30
0.0
 0
VERTEX
 8
PARTS
 10
  1.2000
 20
  3.6000
 30
0.0
 0
SEQEND
 8
PARTS
 0
TEXT
 8
PARTTEXT
 10
  1.1000
 20
  4.9186
 30
0.0
 40
  0.0514
 1
C14
 0
TEXT
 8
PARTTEXT
 10
  1.1000
 20
  4.8186
 30
0.0
 40
  0.0514
 1
0.1uf
 0
LINE
 8
PARTS
 10
  1.5000
 20
  5.0000
 30
0.0
 11
  1.5000
 21
  4.9000
 31
0.0
 0
TEXT
 8
PARTS
 10
  1.4700
 20
  4.9600
 30
0.0
 40
  0.0500
 50
 90.0000
 1
1
 0
LINE
 8
PARTS
 10
  1.5000
 20
  4.7000
 30
0.0
 11
  1.5000
 21
  4.8000
 31
0.0
 0
TEXT
 8
PARTS
 10
  1.4700
 20
  4.6800
 30
0.0
 40
  0.0500
 50
 90.0000
 1
2
 0
POLYLINE
 8
PARTS
 66
1
 70
1
 10
0.0
 20
0.0
 30
0.0
 0
VERTEX
 8
PARTS
 10
  1.4200
 20
  4.9000
 30
0.0
 0
VERTEX
 8
PARTS
 10
  1.5700
 20
  4.9000
 30
0.0
 0
VERTEX
 8
PARTS
 10
  1.5700
 20
  4.8800
 30
0.0
 0
VERTEX
 8
PARTS
 10
  1.4200
 20
  4.8800
 30
0.0
 0
SEQEND
 8
PARTS
 0
POLYLINE
 8
PARTS
 66
1
 70
1
 10
0.0
 20
0.0
 30
0.0
 0
VERTEX
 8
PARTS
 10
  1.4200
 20
  4.8200
 30
0.0
 0
VERTEX
 8
PARTS
 10
  1.5700
 20
  4.8200
 30
0.0
 0
VERTEX
 8
PARTS
 10
  1.5700
 20
  4.8000
 30
0.0
 0
VERTEX
 8
PARTS
 10
  1.4200
 20
  4.8000
 30
0.0
 0
SEQEND
 8
PARTS
 0
POLYLINE
 8
PARTS
 66
1
 10
0.0
 20
0.0
 30
0.0
 0
VERTEX
 8
PARTS
 10
  1.5000
 20
  4.8000
 30
0.0
 0
VERTEX
 8
PARTS
 10
  1.5000
 20
  4.8000
 30
0.0
 0
SEQEND
 8
PARTS
 0
POLYLINE
 8
PARTS
 66
1
 10
0.0
 20
0.0
 30
0.0
 0
VERTEX
 8
PARTS
 10
  1.5000
 20
  4.9000
 30
0.0
 0
VERTEX
 8
PARTS
 10
  1.5000
 20
  4.9000
 30
0.0
 0
SEQEND
 8
PARTS
 0
TEXT
 8
PARTTEXT
 10
  2.6000
 20
  3.5186
 30
0.0
 40
  0.0514
 1
R18
 0
TEXT
 8
PARTTEXT
 10
  2.8000
 20
  3.4186
 30
0.0
 40
  0.0514
 1
33 Ohm
 0
LINE
 8
PARTS
 10
  2.7000
 20
  3.5000
 30
0.0
 11
  2.8000
 21
  3.5000
 31
0.0
 0
LINE
 8
PARTS
 10
  3.2000
 20
  3.5000
 30
0.0
 11
  3.1000
 21
  3.5000
 31
0.0
 0
POLYLINE
 8
PARTS
 66
1
 10
0.0
 20
0.0
 30
0.0
 0
VERTEX
 8
PARTS
 10
  2.8000
 20
  3.5200
 30
0.0
 0
VERTEX
 8
PARTS
 10
  3.1000
 20
  3.5200
 30
0.0
 0
SEQEND
 8
PARTS
 0
POLYLINE
 8
PARTS
 66
1
 10
0.0
 20
0.0
 30
0.0
 0
VERTEX
 8
PARTS
 10
  3.1000
 20
  3.5200
 30
0.0
 0
VERTEX
 8
PARTS
 10
  3.1000
 20
  3.4800
 30
0.0
 0
SEQEND
 8
PARTS
 0
POLYLINE
 8
PARTS
 66
1
 10
0.0
 20
0.0
 30
0.0
 0
VERTEX
 8
PARTS
 10
  3.1000
 20
  3.4800
 30
0.0
 0
VERTEX
 8
PARTS
 10
  2.8000
 20
  3.4800
 30
0.0
 0
SEQEND
 8
PARTS
 0
POLYLINE
 8
PARTS
 66
1
 10
0.0
 20
0.0
 30
0.0
 0
VERTEX
 8
PARTS
 10
  2.8000
 20
  3.4800
 30
0.0
 0
VERTEX
 8
PARTS
 10
  2.8000
 20
  3.5200
 30
0.0
 0
SEQEND
 8
PARTS
 0
POLYLINE
 8
PARTS
 66
1
 10
0.0
 20
0.0
 30
0.0
 0
VERTEX
 8
PARTS
 10
  2.8000
 20
  3.5000
 30
0.0
 0
VERTEX
 8
PARTS
 10
  2.8000
 20
  3.5000
 30
0.0
 0
SEQEND
 8
PARTS
 0
POLYLINE
 8
PARTS
 66
1
 10
0.0
 20
0.0
 30
0.0
 0
VERTEX
 8
PARTS
 10
  3.1000
 20
  3.5000
 30
0.0
 0
VERTEX
 8
PARTS
 10
  3.1000
 20
  3.5000
 30
0.0
 0
SEQEND
 8
PARTS
 0
TEXT
 8
PARTTEXT
 10
  2.6000
 20
  2.6186
 30
0.0
 40
  0.0514
 1
R20
 0
TEXT
 8
PARTTEXT
 10
  2.8000
 20
  2.4786
 30
0.0
 40
  0.0514
 1
33 Ohm
 0
LINE
 8
PARTS
 10
  2.7000
 20
  2.6000
 30
0.0
 11
  2.8000
 21
  2.6000
 31
0.0
 0
LINE
 8
PARTS
 10
  3.2000
 20
  2.6000
 30
0.0
 11
  3.1000
 21
  2.6000
 31
0.0
 0
POLYLINE
 8
PARTS
 66
1
 10
0.0
 20
0.0
 30
0.0
 0
VERTEX
 8
PARTS
 10
  2.8000
 20
  2.6200
 30
0.0
 0
VERTEX
 8
PARTS
 10
  3.1000
 20
  2.6200
 30
0.0
 0
SEQEND
 8
PARTS
 0
POLYLINE
 8
PARTS
 66
1
 10
0.0
 20
0.0
 30
0.0
 0
VERTEX
 8
PARTS
 10
  3.1000
 20
  2.6200
 30
0.0
 0
VERTEX
 8
PARTS
 10
  3.1000
 20
  2.5800
 30
0.0
 0
SEQEND
 8
PARTS
 0
POLYLINE
 8
PARTS
 66
1
 10
0.0
 20
0.0
 30
0.0
 0
VERTEX
 8
PARTS
 10
  3.1000
 20
  2.5800
 30
0.0
 0
VERTEX
 8
PARTS
 10
  2.8000
 20
  2.5800
 30
0.0
 0
SEQEND
 8
PARTS
 0
POLYLINE
 8
PARTS
 66
1
 10
0.0
 20
0.0
 30
0.0
 0
VERTEX
 8
PARTS
 10
  2.8000
 20
  2.5800
 30
0.0
 0
VERTEX
 8
PARTS
 10
  2.8000
 20
  2.6200
 30
0.0
 0
SEQEND
 8
PARTS
 0
POLYLINE
 8
PARTS
 66
1
 10
0.0
 20
0.0
 30
0.0
 0
VERTEX
 8
PARTS
 10
  2.8000
 20
  2.6000
 30
0.0
 0
VERTEX
 8
PARTS
 10
  2.8000
 20
  2.6000
 30
0.0
 0
SEQEND
 8
PARTS
 0
POLYLINE
 8
PARTS
 66
1
 10
0.0
 20
0.0
 30
0.0
 0
VERTEX
 8
PARTS
 10
  3.1000
 20
  2.6000
 30
0.0
 0
VERTEX
 8
PARTS
 10
  3.1000
 20
  2.6000
 30
0.0
 0
SEQEND
 8
PARTS
 0
POLYLINE
 8
WIRE
 66
1
 10
0.0
 20
0.0
 30
0.0
 0
VERTEX
 8
WIRE
 10
  1.2000
 20
  3.2000
 30
0.0
 0
VERTEX
 8
WIRE
 10
  0.9000
 20
  3.2000
 30
0.0
 0
SEQEND
 8
WIRE
 0
POLYLINE
 8
WIRE
 66
1
 10
0.0
 20
0.0
 30
0.0
 0
VERTEX
 8
WIRE
 10
  1.2000
 20
  4.5000
 30
0.0
 0
VERTEX
 8
WIRE
 10
  1.5000
 20
  4.5000
 30
0.0
 0
SEQEND
 8
WIRE
 0
POLYLINE
 8
WIRE
 66
1
 70
1
 10
0.0
 20
0.0
 30
0.0
 40
  0.0200
 41
  0.0200
 0
VERTEX
 8
WIRE
 10
  1.4900
 20
  4.5000
 30
0.0
 42
1.0
 0
VERTEX
 8
WIRE
 10
  1.5100
 20
  4.5000
 30
0.0
 42
1.0
 0
SEQEND
 8
WIRE
 0
POLYLINE
 8
WIRE
 66
1
 10
0.0
 20
0.0
 30
0.0
 0
VERTEX
 8
WIRE
 10
  1.5000
 20
  4.5000
 30
0.0
 0
VERTEX
 8
WIRE
 10
  1.5000
 20
  4.7000
 30
0.0
 0
SEQEND
 8
WIRE
 0
POLYLINE
 8
WIRE
 66
1
 10
0.0
 20
0.0
 30
0.0
 0
VERTEX
 8
WIRE
 10
  1.5000
 20
  4.5000
 30
0.0
 0
VERTEX
 8
WIRE
 10
  1.8000
 20
  4.5000
 30
0.0
 0
SEQEND
 8
WIRE
 0
POLYLINE
 8
WIRE
 66
1
 10
0.0
 20
0.0
 30
0.0
 0
VERTEX
 8
WIRE
 10
  1.8000
 20
  4.5000
 30
0.0
 0
VERTEX
 8
WIRE
 10
  1.8000
 20
  4.7000
 30
0.0
 0
SEQEND
 8
WIRE
 0
POLYLINE
 8
WIRE
 66
1
 10
0.0
 20
0.0
 30
0.0
 0
VERTEX
 8
WIRE
 10
  3.9000
 20
  4.5000
 30
0.0
 0
VERTEX
 8
WIRE
 10
  1.8000
 20
  4.5000
 30
0.0
 0
SEQEND
 8
WIRE
 0
POLYLINE
 8
WIRE
 66
1
 70
1
 10
0.0
 20
0.0
 30
0.0
 40
  0.0200
 41
  0.0200
 0
VERTEX
 8
WIRE
 10
  1.7900
 20
  4.5000
 30
0.0
 42
1.0
 0
VERTEX
 8
WIRE
 10
  1.8100
 20
  4.5000
 30
0.0
 42
1.0
 0
SEQEND
 8
WIRE
 0
POLYLINE
 8
WIRE
 66
1
 10
0.0
 20
0.0
 30
0.0
 0
VERTEX
 8
WIRE
 10
  1.2000
 20
  5.2000
 30
0.0
 0
VERTEX
 8
WIRE
 10
  1.5000
 20
  5.2000
 30
0.0
 0
SEQEND
 8
WIRE
 0
POLYLINE
 8
WIRE
 66
1
 70
1
 10
0.0
 20
0.0
 30
0.0
 40
  0.0200
 41
  0.0200
 0
VERTEX
 8
WIRE
 10
  1.4900
 20
  5.2000
 30
0.0
 42
1.0
 0
VERTEX
 8
WIRE
 10
  1.5100
 20
  5.2000
 30
0.0
 42
1.0
 0
SEQEND
 8
WIRE
 0
POLYLINE
 8
WIRE
 66
1
 10
0.0
 20
0.0
 30
0.0
 0
VERTEX
 8
WIRE
 10
  1.5000
 20
  5.2000
 30
0.0
 0
VERTEX
 8
WIRE
 10
  1.5000
 20
  5.0000
 30
0.0
 0
SEQEND
 8
WIRE
 0
POLYLINE
 8
WIRE
 66
1
 10
0.0
 20
0.0
 30
0.0
 0
VERTEX
 8
WIRE
 10
  1.8000
 20
  5.0000
 30
0.0
 0
VERTEX
 8
WIRE
 10
  1.8000
 20
  5.2000
 30
0.0
 0
SEQEND
 8
WIRE
 0
POLYLINE
 8
WIRE
 66
1
 10
0.0
 20
0.0
 30
0.0
 0
VERTEX
 8
WIRE
 10
  1.5000
 20
  5.2000
 30
0.0
 0
VERTEX
 8
WIRE
 10
  1.8000
 20
  5.2000
 30
0.0
 0
SEQEND
 8
WIRE
 0
POLYLINE
 8
WIRE
 66
1
 10
0.0
 20
0.0
 30
0.0
 0
VERTEX
 8
WIRE
 10
  3.6000
 20
  5.2000
 30
0.0
 0
VERTEX
 8
WIRE
 10
  1.8000
 20
  5.2000
 30
0.0
 0
SEQEND
 8
WIRE
 0
POLYLINE
 8
WIRE
 66
1
 70
1
 10
0.0
 20
0.0
 30
0.0
 40
  0.0200
 41
  0.0200
 0
VERTEX
 8
WIRE
 10
  1.7900
 20
  5.2000
 30
0.0
 42
1.0
 0
VERTEX
 8
WIRE
 10
  1.8100
 20
  5.2000
 30
0.0
 42
1.0
 0
SEQEND
 8
WIRE
 0
POLYLINE
 8
WIRE
 66
1
 10
0.0
 20
0.0
 30
0.0
 0
VERTEX
 8
WIRE
 10
  1.5000
 20
  3.9000
 30
0.0
 0
VERTEX
 8
WIRE
 10
  1.2000
 20
  3.9000
 30
0.0
 0
SEQEND
 8
WIRE
 0
POLYLINE
 8
WIRE
 66
1
 70
1
 10
0.0
 20
0.0
 30
0.0
 40
  0.0200
 41
  0.0200
 0
VERTEX
 8
WIRE
 10
  1.4900
 20
  3.9000
 30
0.0
 42
1.0
 0
VERTEX
 8
WIRE
 10
  1.5100
 20
  3.9000
 30
0.0
 42
1.0
 0
SEQEND
 8
WIRE
 0
POLYLINE
 8
WIRE
 66
1
 10
0.0
 20
0.0
 30
0.0
 0
VERTEX
 8
WIRE
 10
  2.0000
 20
  3.9000
 30
0.0
 0
VERTEX
 8
WIRE
 10
  1.5000
 20
  3.9000
 30
0.0
 0
SEQEND
 8
WIRE
 0
POLYLINE
 8
WIRE
 66
1
 10
0.0
 20
0.0
 30
0.0
 0
VERTEX
 8
WIRE
 10
  2.0000
 20
  3.9000
 30
0.0
 0
VERTEX
 8
WIRE
 10
  3.9000
 20
  3.9000
 30
0.0
 0
SEQEND
 8
WIRE
 0
POLYLINE
 8
WIRE
 66
1
 70
1
 10
0.0
 20
0.0
 30
0.0
 40
  0.0200
 41
  0.0200
 0
VERTEX
 8
WIRE
 10
  1.9900
 20
  3.9000
 30
0.0
 42
1.0
 0
VERTEX
 8
WIRE
 10
  2.0100
 20
  3.9000
 30
0.0
 42
1.0
 0
SEQEND
 8
WIRE
 0
POLYLINE
 8
WIRE
 66
1
 10
0.0
 20
0.0
 30
0.0
 0
VERTEX
 8
WIRE
 10
  0.4000
 20
  4.4000
 30
0.0
 0
VERTEX
 8
WIRE
 10
  1.5000
 20
  4.4000
 30
0.0
 0
SEQEND
 8
WIRE
 0
POLYLINE
 8
WIRE
 66
1
 70
1
 10
0.0
 20
0.0
 30
0.0
 40
  0.0200
 41
  0.0200
 0
VERTEX
 8
WIRE
 10
  1.4900
 20
  4.4000
 30
0.0
 42
1.0
 0
VERTEX
 8
WIRE
 10
  1.5100
 20
  4.4000
 30
0.0
 42
1.0
 0
SEQEND
 8
WIRE
 0
POLYLINE
 8
WIRE
 66
1
 10
0.0
 20
0.0
 30
0.0
 0
VERTEX
 8
WIRE
 10
  1.5000
 20
  4.4000
 30
0.0
 0
VERTEX
 8
WIRE
 10
  2.0000
 20
  4.4000
 30
0.0
 0
SEQEND
 8
WIRE
 0
POLYLINE
 8
WIRE
 66
1
 10
0.0
 20
0.0
 30
0.0
 0
VERTEX
 8
WIRE
 10
  0.9000
 20
  3.7000
 30
0.0
 0
VERTEX
 8
WIRE
 10
  1.2000
 20
  3.7000
 30
0.0
 0
SEQEND
 8
WIRE
 0
POLYLINE
 8
WIRE
 66
1
 10
0.0
 20
0.0
 30
0.0
 0
VERTEX
 8
WIRE
 10
  1.7000
 20
  3.7000
 30
0.0
 0
VERTEX
 8
WIRE
 10
  1.2000
 20
  3.7000
 30
0.0
 0
SEQEND
 8
WIRE
 0
POLYLINE
 8
WIRE
 66
1
 70
1
 10
0.0
 20
0.0
 30
0.0
 40
  0.0200
 41
  0.0200
 0
VERTEX
 8
WIRE
 10
  1.1900
 20
  3.7000
 30
0.0
 42
1.0
 0
VERTEX
 8
WIRE
 10
  1.2100
 20
  3.7000
 30
0.0
 42
1.0
 0
SEQEND
 8
WIRE
 0
POLYLINE
 8
WIRE
 66
1
 10
0.0
 20
0.0
 30
0.0
 0
VERTEX
 8
WIRE
 10
  3.9000
 20
  3.8000
 30
0.0
 0
VERTEX
 8
WIRE
 10
  1.7000
 20
  3.8000
 30
0.0
 0
SEQEND
 8
WIRE
 0
POLYLINE
 8
WIRE
 66
1
 10
0.0
 20
0.0
 30
0.0
 0
VERTEX
 8
WIRE
 10
  1.2000
 20
  3.2000
 30
0.0
 0
VERTEX
 8
WIRE
 10
  1.2000
 20
  3.4000
 30
0.0
 0
SEQEND
 8
WIRE
 0
POLYLINE
 8
WIRE
 66
1
 10
0.0
 20
0.0
 30
0.0
 0
VERTEX
 8
WIRE
 10
  1.7000
 20
  3.2000
 30
0.0
 0
VERTEX
 8
WIRE
 10
  1.2000
 20
  3.2000
 30
0.0
 0
SEQEND
 8
WIRE
 0
POLYLINE
 8
WIRE
 66
1
 70
1
 10
0.0
 20
0.0
 30
0.0
 40
  0.0200
 41
  0.0200
 0
VERTEX
 8
WIRE
 10
  1.1900
 20
  3.2000
 30
0.0
 42
1.0
 0
VERTEX
 8
WIRE
 10
  1.2100
 20
  3.2000
 30
0.0
 42
1.0
 0
SEQEND
 8
WIRE
 0
POLYLINE
 8
WIRE
 66
1
 10
0.0
 20
0.0
 30
0.0
 0
VERTEX
 8
WIRE
 10
  1.7000
 20
  3.2000
 30
0.0
 0
VERTEX
 8
WIRE
 10
  1.7000
 20
  3.4000
 30
0.0
 0
SEQEND
 8
WIRE
 0
POLYLINE
 8
WIRE
 66
1
 10
0.0
 20
0.0
 30
0.0
 0
VERTEX
 8
WIRE
 10
  0.4000
 20
  4.3000
 30
0.0
 0
VERTEX
 8
WIRE
 10
  0.4000
 20
  4.4000
 30
0.0
 0
SEQEND
 8
WIRE
 0
POLYLINE
 8
WIRE
 66
1
 10
0.0
 20
0.0
 30
0.0
 0
VERTEX
 8
WIRE
 10
  3.9000
 20
  4.4000
 30
0.0
 0
VERTEX
 8
WIRE
 10
  3.0000
 20
  4.4000
 30
0.0
 0
SEQEND
 8
WIRE
 0
POLYLINE
 8
WIRE
 66
1
 10
0.0
 20
0.0
 30
0.0
 0
VERTEX
 8
WIRE
 10
  3.5000
 20
  4.9000
 30
0.0
 0
VERTEX
 8
WIRE
 10
  3.0000
 20
  4.9000
 30
0.0
 0
SEQEND
 8
WIRE
 0
POLYLINE
 8
WIRE
 66
1
 10
0.0
 20
0.0
 30
0.0
 0
VERTEX
 8
WIRE
 10
  3.9000
 20
  4.3000
 30
0.0
 0
VERTEX
 8
WIRE
 10
  3.0000
 20
  4.3000
 30
0.0
 0
SEQEND
 8
WIRE
 0
POLYLINE
 8
WIRE
 66
1
 10
0.0
 20
0.0
 30
0.0
 0
VERTEX
 8
WIRE
 10
  2.9000
 20
  4.1000
 30
0.0
 0
VERTEX
 8
WIRE
 10
  3.9000
 20
  4.1000
 30
0.0
 0
SEQEND
 8
WIRE
 0
POLYLINE
 8
WIRE
 66
1
 10
0.0
 20
0.0
 30
0.0
 0
VERTEX
 8
WIRE
 10
  2.9000
 20
  4.2000
 30
0.0
 0
VERTEX
 8
WIRE
 10
  3.9000
 20
  4.2000
 30
0.0
 0
SEQEND
 8
WIRE
 0
POLYLINE
 8
WIRE
 66
1
 10
0.0
 20
0.0
 30
0.0
 0
VERTEX
 8
WIRE
 10
  2.0000
 20
  3.9000
 30
0.0
 0
VERTEX
 8
WIRE
 10
  2.0000
 20
  4.1000
 30
0.0
 0
SEQEND
 8
WIRE
 0
POLYLINE
 8
WIRE
 66
1
 10
0.0
 20
0.0
 30
0.0
 0
VERTEX
 8
WIRE
 10
  3.9000
 20
  4.0000
 30
0.0
 0
VERTEX
 8
WIRE
 10
  2.9000
 20
  4.0000
 30
0.0
 0
SEQEND
 8
WIRE
 0
POLYLINE
 8
WIRE
 66
1
 10
0.0
 20
0.0
 30
0.0
 0
VERTEX
 8
WIRE
 10
  1.7000
 20
  3.7000
 30
0.0
 0
VERTEX
 8
WIRE
 10
  1.7000
 20
  3.8000
 30
0.0
 0
SEQEND
 8
WIRE
 0
POLYLINE
 8
WIRE
 66
1
 10
0.0
 20
0.0
 30
0.0
 0
VERTEX
 8
WIRE
 10
  3.1000
 20
  3.6000
 30
0.0
 0
VERTEX
 8
WIRE
 10
  2.4000
 20
  3.6000
 30
0.0
 0
SEQEND
 8
WIRE
 0
POLYLINE
 8
WIRE
 66
1
 10
0.0
 20
0.0
 30
0.0
 0
VERTEX
 8
WIRE
 10
  3.9000
 20
  3.6000
 30
0.0
 0
VERTEX
 8
WIRE
 10
  3.6000
 20
  3.6000
 30
0.0
 0
SEQEND
 8
WIRE
 0
POLYLINE
 8
WIRE
 66
1
 10
0.0
 20
0.0
 30
0.0
 0
VERTEX
 8
WIRE
 10
  3.1000
 20
  2.8000
 30
0.0
 0
VERTEX
 8
WIRE
 10
  2.4000
 20
  2.8000
 30
0.0
 0
SEQEND
 8
WIRE
 0
POLYLINE
 8
WIRE
 66
1
 10
0.0
 20
0.0
 30
0.0
 0
VERTEX
 8
WIRE
 10
  3.9000
 20
  3.2000
 30
0.0
 0
VERTEX
 8
WIRE
 10
  3.6000
 20
  3.2000
 30
0.0
 0
SEQEND
 8
WIRE
 0
POLYLINE
 8
WIRE
 66
1
 10
0.0
 20
0.0
 30
0.0
 0
VERTEX
 8
WIRE
 10
  2.7000
 20
  3.7000
 30
0.0
 0
VERTEX
 8
WIRE
 10
  2.4000
 20
  3.7000
 30
0.0
 0
SEQEND
 8
WIRE
 0
POLYLINE
 8
WIRE
 66
1
 10
0.0
 20
0.0
 30
0.0
 0
VERTEX
 8
WIRE
 10
  3.9000
 20
  3.7000
 30
0.0
 0
VERTEX
 8
WIRE
 10
  3.2000
 20
  3.7000
 30
0.0
 0
SEQEND
 8
WIRE
 0
POLYLINE
 8
WIRE
 66
1
 10
0.0
 20
0.0
 30
0.0
 0
VERTEX
 8
WIRE
 10
  2.6000
 20
  3.2000
 30
0.0
 0
VERTEX
 8
WIRE
 10
  2.4000
 20
  3.2000
 30
0.0
 0
SEQEND
 8
WIRE
 0
POLYLINE
 8
WIRE
 66
1
 10
0.0
 20
0.0
 30
0.0
 0
VERTEX
 8
WIRE
 10
  3.9000
 20
  3.3000
 30
0.0
 0
VERTEX
 8
WIRE
 10
  3.2000
 20
  3.3000
 30
0.0
 0
SEQEND
 8
WIRE
 0
POLYLINE
 8
WIRE
 66
1
 10
0.0
 20
0.0
 30
0.0
 0
VERTEX
 8
WIRE
 10
  2.7000
 20
  3.0000
 30
0.0
 0
VERTEX
 8
WIRE
 10
  2.4000
 20
  3.0000
 30
0.0
 0
SEQEND
 8
WIRE
 0
POLYLINE
 8
WIRE
 66
1
 10
0.0
 20
0.0
 30
0.0
 0
VERTEX
 8
WIRE
 10
  2.7000
 20
  2.6000
 30
0.0
 0
VERTEX
 8
WIRE
 10
  2.4000
 20
  2.6000
 30
0.0
 0
SEQEND
 8
WIRE
 0
POLYLINE
 8
WIRE
 66
1
 10
0.0
 20
0.0
 30
0.0
 0
VERTEX
 8
WIRE
 10
  2.7000
 20
  2.4000
 30
0.0
 0
VERTEX
 8
WIRE
 10
  2.4000
 20
  2.4000
 30
0.0
 0
SEQEND
 8
WIRE
 0
POLYLINE
 8
WIRE
 66
1
 10
0.0
 20
0.0
 30
0.0
 0
VERTEX
 8
WIRE
 10
  2.7000
 20
  2.2000
 30
0.0
 0
VERTEX
 8
WIRE
 10
  2.4000
 20
  2.2000
 30
0.0
 0
SEQEND
 8
WIRE
 0
POLYLINE
 8
WIRE
 66
1
 10
0.0
 20
0.0
 30
0.0
 0
VERTEX
 8
WIRE
 10
  2.7000
 20
  2.0000
 30
0.0
 0
VERTEX
 8
WIRE
 10
  2.4000
 20
  2.0000
 30
0.0
 0
SEQEND
 8
WIRE
 0
POLYLINE
 8
WIRE
 66
1
 10
0.0
 20
0.0
 30
0.0
 0
VERTEX
 8
WIRE
 10
  3.9000
 20
  3.5000
 30
0.0
 0
VERTEX
 8
WIRE
 10
  3.2000
 20
  3.5000
 30
0.0
 0
SEQEND
 8
WIRE
 0
POLYLINE
 8
WIRE
 66
1
 10
0.0
 20
0.0
 30
0.0
 0
VERTEX
 8
WIRE
 10
  3.2000
 20
  3.1000
 30
0.0
 0
VERTEX
 8
WIRE
 10
  3.2000
 20
  2.6000
 30
0.0
 0
SEQEND
 8
WIRE
 0
POLYLINE
 8
WIRE
 66
1
 10
0.0
 20
0.0
 30
0.0
 0
VERTEX
 8
WIRE
 10
  3.2000
 20
  3.1000
 30
0.0
 0
VERTEX
 8
WIRE
 10
  3.9000
 20
  3.1000
 30
0.0
 0
SEQEND
 8
WIRE
 0
POLYLINE
 8
WIRE
 66
1
 10
0.0
 20
0.0
 30
0.0
 0
VERTEX
 8
WIRE
 10
  3.3000
 20
  2.4000
 30
0.0
 0
VERTEX
 8
WIRE
 10
  3.2000
 20
  2.4000
 30
0.0
 0
SEQEND
 8
WIRE
 0
POLYLINE
 8
WIRE
 66
1
 10
0.0
 20
0.0
 30
0.0
 0
VERTEX
 8
WIRE
 10
  3.9000
 20
  3.0000
 30
0.0
 0
VERTEX
 8
WIRE
 10
  3.3000
 20
  3.0000
 30
0.0
 0
SEQEND
 8
WIRE
 0
POLYLINE
 8
WIRE
 66
1
 10
0.0
 20
0.0
 30
0.0
 0
VERTEX
 8
WIRE
 10
  3.3000
 20
  3.0000
 30
0.0
 0
VERTEX
 8
WIRE
 10
  3.3000
 20
  2.4000
 30
0.0
 0
SEQEND
 8
WIRE
 0
POLYLINE
 8
WIRE
 66
1
 10
0.0
 20
0.0
 30
0.0
 0
VERTEX
 8
WIRE
 10
  3.4000
 20
  2.2000
 30
0.0
 0
VERTEX
 8
WIRE
 10
  3.2000
 20
  2.2000
 30
0.0
 0
SEQEND
 8
WIRE
 0
POLYLINE
 8
WIRE
 66
1
 10
0.0
 20
0.0
 30
0.0
 0
VERTEX
 8
WIRE
 10
  3.4000
 20
  2.9000
 30
0.0
 0
VERTEX
 8
WIRE
 10
  3.4000
 20
  2.2000
 30
0.0
 0
SEQEND
 8
WIRE
 0
POLYLINE
 8
WIRE
 66
1
 10
0.0
 20
0.0
 30
0.0
 0
VERTEX
 8
WIRE
 10
  3.4000
 20
  2.9000
 30
0.0
 0
VERTEX
 8
WIRE
 10
  3.9000
 20
  2.9000
 30
0.0
 0
SEQEND
 8
WIRE
 0
POLYLINE
 8
WIRE
 66
1
 10
0.0
 20
0.0
 30
0.0
 0
VERTEX
 8
WIRE
 10
  3.9000
 20
  2.8000
 30
0.0
 0
VERTEX
 8
WIRE
 10
  3.5000
 20
  2.8000
 30
0.0
 0
SEQEND
 8
WIRE
 0
POLYLINE
 8
WIRE
 66
1
 10
0.0
 20
0.0
 30
0.0
 0
VERTEX
 8
WIRE
 10
  3.5000
 20
  2.8000
 30
0.0
 0
VERTEX
 8
WIRE
 10
  3.5000
 20
  2.0000
 30
0.0
 0
SEQEND
 8
WIRE
 0
POLYLINE
 8
WIRE
 66
1
 10
0.0
 20
0.0
 30
0.0
 0
VERTEX
 8
WIRE
 10
  3.5000
 20
  2.0000
 30
0.0
 0
VERTEX
 8
WIRE
 10
  3.2000
 20
  2.0000
 30
0.0
 0
SEQEND
 8
WIRE
 0
POLYLINE
 8
WIRE
 66
1
 10
0.0
 20
0.0
 30
0.0
 0
VERTEX
 8
WIRE
 10
  3.6000
 20
  1.8000
 30
0.0
 0
VERTEX
 8
WIRE
 10
  3.2000
 20
  1.8000
 30
0.0
 0
SEQEND
 8
WIRE
 0
POLYLINE
 8
WIRE
 66
1
 10
0.0
 20
0.0
 30
0.0
 0
VERTEX
 8
WIRE
 10
  3.6000
 20
  2.7000
 30
0.0
 0
VERTEX
 8
WIRE
 10
  3.6000
 20
  1.8000
 30
0.0
 0
SEQEND
 8
WIRE
 0
POLYLINE
 8
WIRE
 66
1
 10
0.0
 20
0.0
 30
0.0
 0
VERTEX
 8
WIRE
 10
  3.9000
 20
  2.7000
 30
0.0
 0
VERTEX
 8
WIRE
 10
  3.6000
 20
  2.7000
 30
0.0
 0
SEQEND
 8
WIRE
 0
POLYLINE
 8
WIRE
 66
1
 10
0.0
 20
0.0
 30
0.0
 0
VERTEX
 8
WIRE
 10
  3.6000
 20
  5.2000
 30
0.0
 0
VERTEX
 8
WIRE
 10
  3.6000
 20
  4.7000
 30
0.0
 0
SEQEND
 8
WIRE
 0
POLYLINE
 8
WIRE
 66
1
 10
0.0
 20
0.0
 30
0.0
 0
VERTEX
 8
WIRE
 10
  3.6000
 20
  4.7000
 30
0.0
 0
VERTEX
 8
WIRE
 10
  3.9000
 20
  4.7000
 30
0.0
 0
SEQEND
 8
WIRE
 0
POLYLINE
 8
WIRE
 66
1
 10
0.0
 20
0.0
 30
0.0
 0
VERTEX
 8
WIRE
 10
  0.9000
 20
  3.7000
 30
0.0
 0
VERTEX
 8
WIRE
 10
  0.9000
 20
  3.6000
 30
0.0
 0
SEQEND
 8
WIRE
 0
POLYLINE
 8
WIRE
 66
1
 10
0.0
 20
0.0
 30
0.0
 0
VERTEX
 8
WIRE
 10
  3.5000
 20
  4.6000
 30
0.0
 0
VERTEX
 8
WIRE
 10
  3.5000
 20
  4.9000
 30
0.0
 0
SEQEND
 8
WIRE
 0
POLYLINE
 8
WIRE
 66
1
 10
0.0
 20
0.0
 30
0.0
 0
VERTEX
 8
WIRE
 10
  3.9000
 20
  4.6000
 30
0.0
 0
VERTEX
 8
WIRE
 10
  3.5000
 20
  4.6000
 30
0.0
 0
SEQEND
 8
WIRE
 0
POLYLINE
 8
WIRE
 66
1
 10
0.0
 20
0.0
 30
0.0
 0
VERTEX
 8
WIRE
 10
  1.5000
 20
  3.9000
 30
0.0
 0
VERTEX
 8
WIRE
 10
  1.5000
 20
  4.1000
 30
0.0
 0
SEQEND
 8
WIRE
 0
POLYLINE
 8
WIRE
 66
1
 10
0.0
 20
0.0
 30
0.0
 0
VERTEX
 8
WIRE
 10
  3.1000
 20
  2.8000
 30
0.0
 0
VERTEX
 8
WIRE
 10
  3.1000
 20
  3.2000
 30
0.0
 0
SEQEND
 8
WIRE
 0
POLYLINE
 8
WIRE
 66
1
 10
0.0
 20
0.0
 30
0.0
 0
VERTEX
 8
WIRE
 10
  2.7000
 20
  1.8000
 30
0.0
 0
VERTEX
 8
WIRE
 10
  2.4000
 20
  1.8000
 30
0.0
 0
SEQEND
 8
WIRE
 0
POLYLINE
 8
WIRE
 66
1
 10
0.0
 20
0.0
 30
0.0
 0
VERTEX
 8
WIRE
 10
  2.7000
 20
  3.0000
 30
0.0
 0
VERTEX
 8
WIRE
 10
  2.7000
 20
  3.3000
 30
0.0
 0
SEQEND
 8
WIRE
 0
POLYLINE
 8
WIRE
 66
1
 10
0.0
 20
0.0
 30
0.0
 0
VERTEX
 8
WIRE
 10
  2.6000
 20
  3.5000
 30
0.0
 0
VERTEX
 8
WIRE
 10
  2.6000
 20
  3.2000
 30
0.0
 0
SEQEND
 8
WIRE
 0
POLYLINE
 8
WIRE
 66
1
 10
0.0
 20
0.0
 30
0.0
 0
VERTEX
 8
WIRE
 10
  2.6000
 20
  3.5000
 30
0.0
 0
VERTEX
 8
WIRE
 10
  2.7000
 20
  3.5000
 30
0.0
 0
SEQEND
 8
WIRE
 0
POLYLINE
 8
WIRE
 66
1
 10
0.0
 20
0.0
 30
0.0
 0
VERTEX
 8
WIRE
 10
  2.4000
 20
  3.4000
 30
0.0
 0
VERTEX
 8
WIRE
 10
  2.4000
 20
  3.6000
 30
0.0
 0
SEQEND
 8
WIRE
 0
POLYLINE
 8
WIRE
 66
1
 10
0.0
 20
0.0
 30
0.0
 0
VERTEX
 8
WIRE
 10
  3.9000
 20
  2.3000
 30
0.0
 0
VERTEX
 8
WIRE
 10
  3.7000
 20
  2.3000
 30
0.0
 0
SEQEND
 8
WIRE
 0
POLYLINE
 8
WIRE
 66
1
 10
0.0
 20
0.0
 30
0.0
 0
VERTEX
 8
WIRE
 10
  3.7000
 20
  2.3000
 30
0.0
 0
VERTEX
 8
WIRE
 10
  3.7000
 20
  1.5000
 30
0.0
 0
SEQEND
 8
WIRE
 0
POLYLINE
 8
WIRE
 66
1
 70
1
 10
0.0
 20
0.0
 30
0.0
 40
  0.0200
 41
  0.0200
 0
VERTEX
 8
WIRE
 10
  3.6900
 20
  1.5000
 30
0.0
 42
1.0
 0
VERTEX
 8
WIRE
 10
  3.7100
 20
  1.5000
 30
0.0
 42
1.0
 0
SEQEND
 8
WIRE
 0
POLYLINE
 8
WIRE
 66
1
 10
0.0
 20
0.0
 30
0.0
 0
VERTEX
 8
WIRE
 10
  3.7000
 20
  1.5000
 30
0.0
 0
VERTEX
 8
WIRE
 10
  3.6000
 20
  1.5000
 30
0.0
 0
SEQEND
 8
WIRE
 0
POLYLINE
 8
WIRE
 66
1
 10
0.0
 20
0.0
 30
0.0
 0
VERTEX
 8
WIRE
 10
  3.9000
 20
  2.2000
 30
0.0
 0
VERTEX
 8
WIRE
 10
  3.9000
 20
  1.5000
 30
0.0
 0
SEQEND
 8
WIRE
 0
POLYLINE
 8
WIRE
 66
1
 10
0.0
 20
0.0
 30
0.0
 0
VERTEX
 8
WIRE
 10
  3.9000
 20
  1.5000
 30
0.0
 0
VERTEX
 8
WIRE
 10
  3.7000
 20
  1.5000
 30
0.0
 0
SEQEND
 8
WIRE
 0
POLYLINE
 8
WIRE
 66
1
 10
0.0
 20
0.0
 30
0.0
 0
VERTEX
 8
WIRE
 10
  5.9000
 20
  4.6000
 30
0.0
 0
VERTEX
 8
WIRE
 10
  5.4000
 20
  4.6000
 30
0.0
 0
SEQEND
 8
WIRE
 0
TEXT
 8
WIRETEXT
 10
  5.4000
 20
  4.6300
 30
0.0
 40
  0.0514
 1
CAM_HSYNC
 0
POLYLINE
 8
WIRE
 66
1
 10
0.0
 20
0.0
 30
0.0
 0
VERTEX
 8
WIRE
 10
  5.9000
 20
  5.3000
 30
0.0
 0
VERTEX
 8
WIRE
 10
  5.4000
 20
  5.3000
 30
0.0
 0
SEQEND
 8
WIRE
 0
TEXT
 8
WIRETEXT
 10
  5.4000
 20
  5.3300
 30
0.0
 40
  0.0514
 1
CAM_PCLK
 0
POLYLINE
 8
WIRE
 66
1
 10
0.0
 20
0.0
 30
0.0
 0
VERTEX
 8
WIRE
 10
  5.9000
 20
  3.9000
 30
0.0
 0
VERTEX
 8
WIRE
 10
  5.4000
 20
  3.9000
 30
0.0
 0
SEQEND
 8
WIRE
 0
TEXT
 8
WIRETEXT
 10
  5.4000
 20
  3.9300
 30
0.0
 40
  0.0514
 1
CAM_VSYNC
 0
POLYLINE
 8
WIRE
 66
1
 10
0.0
 20
0.0
 30
0.0
 0
VERTEX
 8
WIRE
 10
  5.9000
 20
  3.3000
 30
0.0
 0
VERTEX
 8
WIRE
 10
  5.4000
 20
  3.3000
 30
0.0
 0
SEQEND
 8
WIRE
 0
TEXT
 8
WIRETEXT
 10
  5.4000
 20
  3.3300
 30
0.0
 40
  0.0514
 1
CAM_XCLK
 0
POLYLINE
 8
PARTS
 66
1
 10
0.0
 20
0.0
 30
0.0
 0
VERTEX
 8
PARTS
 10
  0.3000
 20
  4.3000
 30
0.0
 0
VERTEX
 8
PARTS
 10
  0.5000
 20
  4.3000
 30
0.0
 0
SEQEND
 8
PARTS
 0
POLYLINE
 8
PARTS
 66
1
 10
0.0
 20
0.0
 30
0.0
 0
VERTEX
 8
PARTS
 10
  0.3300
 20
  4.2700
 30
0.0
 0
VERTEX
 8
PARTS
 10
  0.4700
 20
  4.2700
 30
0.0
 0
SEQEND
 8
PARTS
 0
POLYLINE
 8
PARTS
 66
1
 10
0.0
 20
0.0
 30
0.0
 0
VERTEX
 8
PARTS
 10
  0.4400
 20
  4.2400
 30
0.0
 0
VERTEX
 8
PARTS
 10
  0.3600
 20
  4.2400
 30
0.0
 0
SEQEND
 8
PARTS
 0
POLYLINE
 8
PARTS
 66
1
 10
0.0
 20
0.0
 30
0.0
 0
VERTEX
 8
PARTS
 10
  0.3900
 20
  4.2100
 30
0.0
 0
VERTEX
 8
PARTS
 10
  0.4100
 20
  4.2100
 30
0.0
 0
SEQEND
 8
PARTS
 0
TEXT
 8
PARTTEXT
 10
  0.8900
 20
  5.1786
 30
0.0
 40
  0.0514
 1
GND
 0
POLYLINE
 8
PARTS
 66
1
 10
0.0
 20
0.0
 30
0.0
 0
VERTEX
 8
PARTS
 10
  1.2000
 20
  5.2000
 30
0.0
 0
VERTEX
 8
PARTS
 10
  1.1500
 20
  5.1500
 30
0.0
 0
SEQEND
 8
PARTS
 0
POLYLINE
 8
PARTS
 66
1
 10
0.0
 20
0.0
 30
0.0
 0
VERTEX
 8
PARTS
 10
  1.2000
 20
  5.2000
 30
0.0
 0
VERTEX
 8
PARTS
 10
  1.1500
 20
  5.2500
 30
0.0
 0
SEQEND
 8
PARTS
 0
POLYLINE
 8
PARTS
 66
1
 10
0.0
 20
0.0
 30
0.0
 0
VERTEX
 8
PARTS
 10
  1.1500
 20
  5.2000
 30
0.0
 0
VERTEX
 8
PARTS
 10
  1.1000
 20
  5.2500
 30
0.0
 0
SEQEND
 8
PARTS
 0
POLYLINE
 8
PARTS
 66
1
 10
0.0
 20
0.0
 30
0.0
 0
VERTEX
 8
PARTS
 10
  1.1500
 20
  5.2000
 30
0.0
 0
VERTEX
 8
PARTS
 10
  1.1000
 20
  5.1500
 30
0.0
 0
SEQEND
 8
PARTS
 0
TEXT
 8
PARTTEXT
 10
  0.5900
 20
  3.1786
 30
0.0
 40
  0.0514
 1
GND
 0
POLYLINE
 8
PARTS
 66
1
 10
0.0
 20
0.0
 30
0.0
 0
VERTEX
 8
PARTS
 10
  0.9000
 20
  3.2000
 30
0.0
 0
VERTEX
 8
PARTS
 10
  0.8500
 20
  3.1500
 30
0.0
 0
SEQEND
 8
PARTS
 0
POLYLINE
 8
PARTS
 66
1
 10
0.0
 20
0.0
 30
0.0
 0
VERTEX
 8
PARTS
 10
  0.9000
 20
  3.2000
 30
0.0
 0
VERTEX
 8
PARTS
 10
  0.8500
 20
  3.2500
 30
0.0
 0
SEQEND
 8
PARTS
 0
POLYLINE
 8
PARTS
 66
1
 10
0.0
 20
0.0
 30
0.0
 0
VERTEX
 8
PARTS
 10
  0.8500
 20
  3.2000
 30
0.0
 0
VERTEX
 8
PARTS
 10
  0.8000
 20
  3.2500
 30
0.0
 0
SEQEND
 8
PARTS
 0
POLYLINE
 8
PARTS
 66
1
 10
0.0
 20
0.0
 30
0.0
 0
VERTEX
 8
PARTS
 10
  0.8500
 20
  3.2000
 30
0.0
 0
VERTEX
 8
PARTS
 10
  0.8000
 20
  3.1500
 30
0.0
 0
SEQEND
 8
PARTS
 0
TEXT
 8
PARTTEXT
 10
  0.3300
 20
  3.5786
 30
0.0
 40
  0.0514
 1
V3V3_CAM
 0
POLYLINE
 8
PARTS
 66
1
 10
0.0
 20
0.0
 30
0.0
 0
VERTEX
 8
PARTS
 10
  0.9000
 20
  3.6000
 30
0.0
 0
VERTEX
 8
PARTS
 10
  0.8500
 20
  3.5500
 30
0.0
 0
SEQEND
 8
PARTS
 0
POLYLINE
 8
PARTS
 66
1
 10
0.0
 20
0.0
 30
0.0
 0
VERTEX
 8
PARTS
 10
  0.9000
 20
  3.6000
 30
0.0
 0
VERTEX
 8
PARTS
 10
  0.8500
 20
  3.6500
 30
0.0
 0
SEQEND
 8
PARTS
 0
POLYLINE
 8
PARTS
 66
1
 10
0.0
 20
0.0
 30
0.0
 0
VERTEX
 8
PARTS
 10
  0.8500
 20
  3.6000
 30
0.0
 0
VERTEX
 8
PARTS
 10
  0.8000
 20
  3.6500
 30
0.0
 0
SEQEND
 8
PARTS
 0
POLYLINE
 8
PARTS
 66
1
 10
0.0
 20
0.0
 30
0.0
 0
VERTEX
 8
PARTS
 10
  0.8500
 20
  3.6000
 30
0.0
 0
VERTEX
 8
PARTS
 10
  0.8000
 20
  3.5500
 30
0.0
 0
SEQEND
 8
PARTS
 0
TEXT
 8
PARTTEXT
 10
  0.6300
 20
  4.4786
 30
0.0
 40
  0.0514
 1
V2V8_CAM
 0
POLYLINE
 8
PARTS
 66
1
 10
0.0
 20
0.0
 30
0.0
 0
VERTEX
 8
PARTS
 10
  1.2000
 20
  4.5000
 30
0.0
 0
VERTEX
 8
PARTS
 10
  1.1500
 20
  4.4500
 30
0.0
 0
SEQEND
 8
PARTS
 0
POLYLINE
 8
PARTS
 66
1
 10
0.0
 20
0.0
 30
0.0
 0
VERTEX
 8
PARTS
 10
  1.2000
 20
  4.5000
 30
0.0
 0
VERTEX
 8
PARTS
 10
  1.1500
 20
  4.5500
 30
0.0
 0
SEQEND
 8
PARTS
 0
POLYLINE
 8
PARTS
 66
1
 10
0.0
 20
0.0
 30
0.0
 0
VERTEX
 8
PARTS
 10
  1.1500
 20
  4.5000
 30
0.0
 0
VERTEX
 8
PARTS
 10
  1.1000
 20
  4.5500
 30
0.0
 0
SEQEND
 8
PARTS
 0
POLYLINE
 8
PARTS
 66
1
 10
0.0
 20
0.0
 30
0.0
 0
VERTEX
 8
PARTS
 10
  1.1500
 20
  4.5000
 30
0.0
 0
VERTEX
 8
PARTS
 10
  1.1000
 20
  4.4500
 30
0.0
 0
SEQEND
 8
PARTS
 0
TEXT
 8
PARTTEXT
 10
  0.6300
 20
  3.8786
 30
0.0
 40
  0.0514
 1
V1V2_CAM
 0
POLYLINE
 8
PARTS
 66
1
 10
0.0
 20
0.0
 30
0.0
 0
VERTEX
 8
PARTS
 10
  1.2000
 20
  3.9000
 30
0.0
 0
VERTEX
 8
PARTS
 10
  1.1500
 20
  3.8500
 30
0.0
 0
SEQEND
 8
PARTS
 0
POLYLINE
 8
PARTS
 66
1
 10
0.0
 20
0.0
 30
0.0
 0
VERTEX
 8
PARTS
 10
  1.2000
 20
  3.9000
 30
0.0
 0
VERTEX
 8
PARTS
 10
  1.1500
 20
  3.9500
 30
0.0
 0
SEQEND
 8
PARTS
 0
POLYLINE
 8
PARTS
 66
1
 10
0.0
 20
0.0
 30
0.0
 0
VERTEX
 8
PARTS
 10
  1.1500
 20
  3.9000
 30
0.0
 0
VERTEX
 8
PARTS
 10
  1.1000
 20
  3.9500
 30
0.0
 0
SEQEND
 8
PARTS
 0
POLYLINE
 8
PARTS
 66
1
 10
0.0
 20
0.0
 30
0.0
 0
VERTEX
 8
PARTS
 10
  1.1500
 20
  3.9000
 30
0.0
 0
VERTEX
 8
PARTS
 10
  1.1000
 20
  3.8500
 30
0.0
 0
SEQEND
 8
PARTS
 0
TEXT
 8
PARTTEXT
 10
  2.1500
 20
  4.8786
 30
0.0
 40
  0.0514
 1
CAM_SCCB_SDA
 0
POLYLINE
 8
PARTS
 66
1
 10
0.0
 20
0.0
 30
0.0
 0
VERTEX
 8
PARTS
 10
  3.0000
 20
  4.9000
 30
0.0
 0
VERTEX
 8
PARTS
 10
  2.9500
 20
  4.8500
 30
0.0
 0
SEQEND
 8
PARTS
 0
POLYLINE
 8
PARTS
 66
1
 10
0.0
 20
0.0
 30
0.0
 0
VERTEX
 8
PARTS
 10
  3.0000
 20
  4.9000
 30
0.0
 0
VERTEX
 8
PARTS
 10
  2.9500
 20
  4.9500
 30
0.0
 0
SEQEND
 8
PARTS
 0
POLYLINE
 8
PARTS
 66
1
 10
0.0
 20
0.0
 30
0.0
 0
VERTEX
 8
PARTS
 10
  2.9500
 20
  4.9000
 30
0.0
 0
VERTEX
 8
PARTS
 10
  2.9000
 20
  4.9500
 30
0.0
 0
SEQEND
 8
PARTS
 0
POLYLINE
 8
PARTS
 66
1
 10
0.0
 20
0.0
 30
0.0
 0
VERTEX
 8
PARTS
 10
  2.9500
 20
  4.9000
 30
0.0
 0
VERTEX
 8
PARTS
 10
  2.9000
 20
  4.8500
 30
0.0
 0
SEQEND
 8
PARTS
 0
TEXT
 8
PARTTEXT
 10
  2.1600
 20
  4.3786
 30
0.0
 40
  0.0514
 1
CAM_SCCB_SCL
 0
POLYLINE
 8
PARTS
 66
1
 10
0.0
 20
0.0
 30
0.0
 0
VERTEX
 8
PARTS
 10
  3.0000
 20
  4.4000
 30
0.0
 0
VERTEX
 8
PARTS
 10
  2.9500
 20
  4.3500
 30
0.0
 0
SEQEND
 8
PARTS
 0
POLYLINE
 8
PARTS
 66
1
 10
0.0
 20
0.0
 30
0.0
 0
VERTEX
 8
PARTS
 10
  3.0000
 20
  4.4000
 30
0.0
 0
VERTEX
 8
PARTS
 10
  2.9500
 20
  4.4500
 30
0.0
 0
SEQEND
 8
PARTS
 0
POLYLINE
 8
PARTS
 66
1
 10
0.0
 20
0.0
 30
0.0
 0
VERTEX
 8
PARTS
 10
  2.9500
 20
  4.4000
 30
0.0
 0
VERTEX
 8
PARTS
 10
  2.9000
 20
  4.4500
 30
0.0
 0
SEQEND
 8
PARTS
 0
POLYLINE
 8
PARTS
 66
1
 10
0.0
 20
0.0
 30
0.0
 0
VERTEX
 8
PARTS
 10
  2.9500
 20
  4.4000
 30
0.0
 0
VERTEX
 8
PARTS
 10
  2.9000
 20
  4.3500
 30
0.0
 0
SEQEND
 8
PARTS
 0
TEXT
 8
PARTTEXT
 10
  2.3500
 20
  4.2786
 30
0.0
 40
  0.0514
 1
CAM_RESET
 0
POLYLINE
 8
PARTS
 66
1
 10
0.0
 20
0.0
 30
0.0
 0
VERTEX
 8
PARTS
 10
  3.0000
 20
  4.3000
 30
0.0
 0
VERTEX
 8
PARTS
 10
  2.9500
 20
  4.2500
 30
0.0
 0
SEQEND
 8
PARTS
 0
POLYLINE
 8
PARTS
 66
1
 10
0.0
 20
0.0
 30
0.0
 0
VERTEX
 8
PARTS
 10
  3.0000
 20
  4.3000
 30
0.0
 0
VERTEX
 8
PARTS
 10
  2.9500
 20
  4.3500
 30
0.0
 0
SEQEND
 8
PARTS
 0
POLYLINE
 8
PARTS
 66
1
 10
0.0
 20
0.0
 30
0.0
 0
VERTEX
 8
PARTS
 10
  2.9500
 20
  4.3000
 30
0.0
 0
VERTEX
 8
PARTS
 10
  2.9000
 20
  4.3500
 30
0.0
 0
SEQEND
 8
PARTS
 0
POLYLINE
 8
PARTS
 66
1
 10
0.0
 20
0.0
 30
0.0
 0
VERTEX
 8
PARTS
 10
  2.9500
 20
  4.3000
 30
0.0
 0
VERTEX
 8
PARTS
 10
  2.9000
 20
  4.2500
 30
0.0
 0
SEQEND
 8
PARTS
 0
TEXT
 8
PARTTEXT
 10
  2.2600
 20
  4.0786
 30
0.0
 40
  0.0514
 1
CAM_PWDN
 0
POLYLINE
 8
PARTS
 66
1
 10
0.0
 20
0.0
 30
0.0
 0
VERTEX
 8
PARTS
 10
  2.9000
 20
  4.1000
 30
0.0
 0
VERTEX
 8
PARTS
 10
  2.8500
 20
  4.0500
 30
0.0
 0
SEQEND
 8
PARTS
 0
POLYLINE
 8
PARTS
 66
1
 10
0.0
 20
0.0
 30
0.0
 0
VERTEX
 8
PARTS
 10
  2.9000
 20
  4.1000
 30
0.0
 0
VERTEX
 8
PARTS
 10
  2.8500
 20
  4.1500
 30
0.0
 0
SEQEND
 8
PARTS
 0
POLYLINE
 8
PARTS
 66
1
 10
0.0
 20
0.0
 30
0.0
 0
VERTEX
 8
PARTS
 10
  2.8500
 20
  4.1000
 30
0.0
 0
VERTEX
 8
PARTS
 10
  2.8000
 20
  4.1500
 30
0.0
 0
SEQEND
 8
PARTS
 0
POLYLINE
 8
PARTS
 66
1
 10
0.0
 20
0.0
 30
0.0
 0
VERTEX
 8
PARTS
 10
  2.8500
 20
  4.1000
 30
0.0
 0
VERTEX
 8
PARTS
 10
  2.8000
 20
  4.0500
 30
0.0
 0
SEQEND
 8
PARTS
 0
TEXT
 8
PARTTEXT
 10
  1.9300
 20
  2.3786
 30
0.0
 40
  0.0514
 1
CAM_D0
 0
POLYLINE
 8
PARTS
 66
1
 10
0.0
 20
0.0
 30
0.0
 0
VERTEX
 8
PARTS
 10
  2.4000
 20
  2.4000
 30
0.0
 0
VERTEX
 8
PARTS
 10
  2.3500
 20
  2.3500
 30
0.0
 0
SEQEND
 8
PARTS
 0
POLYLINE
 8
PARTS
 66
1
 10
0.0
 20
0.0
 30
0.0
 0
VERTEX
 8
PARTS
 10
  2.4000
 20
  2.4000
 30
0.0
 0
VERTEX
 8
PARTS
 10
  2.3500
 20
  2.4500
 30
0.0
 0
SEQEND
 8
PARTS
 0
POLYLINE
 8
PARTS
 66
1
 10
0.0
 20
0.0
 30
0.0
 0
VERTEX
 8
PARTS
 10
  2.3500
 20
  2.4000
 30
0.0
 0
VERTEX
 8
PARTS
 10
  2.3000
 20
  2.4500
 30
0.0
 0
SEQEND
 8
PARTS
 0
POLYLINE
 8
PARTS
 66
1
 10
0.0
 20
0.0
 30
0.0
 0
VERTEX
 8
PARTS
 10
  2.3500
 20
  2.4000
 30
0.0
 0
VERTEX
 8
PARTS
 10
  2.3000
 20
  2.3500
 30
0.0
 0
SEQEND
 8
PARTS
 0
TEXT
 8
PARTTEXT
 10
  1.9300
 20
  1.9786
 30
0.0
 40
  0.0514
 1
CAM_D1
 0
POLYLINE
 8
PARTS
 66
1
 10
0.0
 20
0.0
 30
0.0
 0
VERTEX
 8
PARTS
 10
  2.4000
 20
  2.0000
 30
0.0
 0
VERTEX
 8
PARTS
 10
  2.3500
 20
  1.9500
 30
0.0
 0
SEQEND
 8
PARTS
 0
POLYLINE
 8
PARTS
 66
1
 10
0.0
 20
0.0
 30
0.0
 0
VERTEX
 8
PARTS
 10
  2.4000
 20
  2.0000
 30
0.0
 0
VERTEX
 8
PARTS
 10
  2.3500
 20
  2.0500
 30
0.0
 0
SEQEND
 8
PARTS
 0
POLYLINE
 8
PARTS
 66
1
 10
0.0
 20
0.0
 30
0.0
 0
VERTEX
 8
PARTS
 10
  2.3500
 20
  2.0000
 30
0.0
 0
VERTEX
 8
PARTS
 10
  2.3000
 20
  2.0500
 30
0.0
 0
SEQEND
 8
PARTS
 0
POLYLINE
 8
PARTS
 66
1
 10
0.0
 20
0.0
 30
0.0
 0
VERTEX
 8
PARTS
 10
  2.3500
 20
  2.0000
 30
0.0
 0
VERTEX
 8
PARTS
 10
  2.3000
 20
  1.9500
 30
0.0
 0
SEQEND
 8
PARTS
 0
TEXT
 8
PARTTEXT
 10
  1.9300
 20
  1.7786
 30
0.0
 40
  0.0514
 1
CAM_D2
 0
POLYLINE
 8
PARTS
 66
1
 10
0.0
 20
0.0
 30
0.0
 0
VERTEX
 8
PARTS
 10
  2.4000
 20
  1.8000
 30
0.0
 0
VERTEX
 8
PARTS
 10
  2.3500
 20
  1.7500
 30
0.0
 0
SEQEND
 8
PARTS
 0
POLYLINE
 8
PARTS
 66
1
 10
0.0
 20
0.0
 30
0.0
 0
VERTEX
 8
PARTS
 10
  2.4000
 20
  1.8000
 30
0.0
 0
VERTEX
 8
PARTS
 10
  2.3500
 20
  1.8500
 30
0.0
 0
SEQEND
 8
PARTS
 0
POLYLINE
 8
PARTS
 66
1
 10
0.0
 20
0.0
 30
0.0
 0
VERTEX
 8
PARTS
 10
  2.3500
 20
  1.8000
 30
0.0
 0
VERTEX
 8
PARTS
 10
  2.3000
 20
  1.8500
 30
0.0
 0
SEQEND
 8
PARTS
 0
POLYLINE
 8
PARTS
 66
1
 10
0.0
 20
0.0
 30
0.0
 0
VERTEX
 8
PARTS
 10
  2.3500
 20
  1.8000
 30
0.0
 0
VERTEX
 8
PARTS
 10
  2.3000
 20
  1.7500
 30
0.0
 0
SEQEND
 8
PARTS
 0
TEXT
 8
PARTTEXT
 10
  1.9300
 20
  2.1786
 30
0.0
 40
  0.0514
 1
CAM_D3
 0
POLYLINE
 8
PARTS
 66
1
 10
0.0
 20
0.0
 30
0.0
 0
VERTEX
 8
PARTS
 10
  2.4000
 20
  2.2000
 30
0.0
 0
VERTEX
 8
PARTS
 10
  2.3500
 20
  2.1500
 30
0.0
 0
SEQEND
 8
PARTS
 0
POLYLINE
 8
PARTS
 66
1
 10
0.0
 20
0.0
 30
0.0
 0
VERTEX
 8
PARTS
 10
  2.4000
 20
  2.2000
 30
0.0
 0
VERTEX
 8
PARTS
 10
  2.3500
 20
  2.2500
 30
0.0
 0
SEQEND
 8
PARTS
 0
POLYLINE
 8
PARTS
 66
1
 10
0.0
 20
0.0
 30
0.0
 0
VERTEX
 8
PARTS
 10
  2.3500
 20
  2.2000
 30
0.0
 0
VERTEX
 8
PARTS
 10
  2.3000
 20
  2.2500
 30
0.0
 0
SEQEND
 8
PARTS
 0
POLYLINE
 8
PARTS
 66
1
 10
0.0
 20
0.0
 30
0.0
 0
VERTEX
 8
PARTS
 10
  2.3500
 20
  2.2000
 30
0.0
 0
VERTEX
 8
PARTS
 10
  2.3000
 20
  2.1500
 30
0.0
 0
SEQEND
 8
PARTS
 0
TEXT
 8
PARTTEXT
 10
  1.9300
 20
  2.5786
 30
0.0
 40
  0.0514
 1
CAM_D4
 0
POLYLINE
 8
PARTS
 66
1
 10
0.0
 20
0.0
 30
0.0
 0
VERTEX
 8
PARTS
 10
  2.4000
 20
  2.6000
 30
0.0
 0
VERTEX
 8
PARTS
 10
  2.3500
 20
  2.5500
 30
0.0
 0
SEQEND
 8
PARTS
 0
POLYLINE
 8
PARTS
 66
1
 10
0.0
 20
0.0
 30
0.0
 0
VERTEX
 8
PARTS
 10
  2.4000
 20
  2.6000
 30
0.0
 0
VERTEX
 8
PARTS
 10
  2.3500
 20
  2.6500
 30
0.0
 0
SEQEND
 8
PARTS
 0
POLYLINE
 8
PARTS
 66
1
 10
0.0
 20
0.0
 30
0.0
 0
VERTEX
 8
PARTS
 10
  2.3500
 20
  2.6000
 30
0.0
 0
VERTEX
 8
PARTS
 10
  2.3000
 20
  2.6500
 30
0.0
 0
SEQEND
 8
PARTS
 0
POLYLINE
 8
PARTS
 66
1
 10
0.0
 20
0.0
 30
0.0
 0
VERTEX
 8
PARTS
 10
  2.3500
 20
  2.6000
 30
0.0
 0
VERTEX
 8
PARTS
 10
  2.3000
 20
  2.5500
 30
0.0
 0
SEQEND
 8
PARTS
 0
TEXT
 8
PARTTEXT
 10
  1.9300
 20
  2.9786
 30
0.0
 40
  0.0514
 1
CAM_D5
 0
POLYLINE
 8
PARTS
 66
1
 10
0.0
 20
0.0
 30
0.0
 0
VERTEX
 8
PARTS
 10
  2.4000
 20
  3.0000
 30
0.0
 0
VERTEX
 8
PARTS
 10
  2.3500
 20
  2.9500
 30
0.0
 0
SEQEND
 8
PARTS
 0
POLYLINE
 8
PARTS
 66
1
 10
0.0
 20
0.0
 30
0.0
 0
VERTEX
 8
PARTS
 10
  2.4000
 20
  3.0000
 30
0.0
 0
VERTEX
 8
PARTS
 10
  2.3500
 20
  3.0500
 30
0.0
 0
SEQEND
 8
PARTS
 0
POLYLINE
 8
PARTS
 66
1
 10
0.0
 20
0.0
 30
0.0
 0
VERTEX
 8
PARTS
 10
  2.3500
 20
  3.0000
 30
0.0
 0
VERTEX
 8
PARTS
 10
  2.3000
 20
  3.0500
 30
0.0
 0
SEQEND
 8
PARTS
 0
POLYLINE
 8
PARTS
 66
1
 10
0.0
 20
0.0
 30
0.0
 0
VERTEX
 8
PARTS
 10
  2.3500
 20
  3.0000
 30
0.0
 0
VERTEX
 8
PARTS
 10
  2.3000
 20
  2.9500
 30
0.0
 0
SEQEND
 8
PARTS
 0
TEXT
 8
PARTTEXT
 10
  1.9300
 20
  3.1786
 30
0.0
 40
  0.0514
 1
CAM_D6
 0
POLYLINE
 8
PARTS
 66
1
 10
0.0
 20
0.0
 30
0.0
 0
VERTEX
 8
PARTS
 10
  2.4000
 20
  3.2000
 30
0.0
 0
VERTEX
 8
PARTS
 10
  2.3500
 20
  3.1500
 30
0.0
 0
SEQEND
 8
PARTS
 0
POLYLINE
 8
PARTS
 66
1
 10
0.0
 20
0.0
 30
0.0
 0
VERTEX
 8
PARTS
 10
  2.4000
 20
  3.2000
 30
0.0
 0
VERTEX
 8
PARTS
 10
  2.3500
 20
  3.2500
 30
0.0
 0
SEQEND
 8
PARTS
 0
POLYLINE
 8
PARTS
 66
1
 10
0.0
 20
0.0
 30
0.0
 0
VERTEX
 8
PARTS
 10
  2.3500
 20
  3.2000
 30
0.0
 0
VERTEX
 8
PARTS
 10
  2.3000
 20
  3.2500
 30
0.0
 0
SEQEND
 8
PARTS
 0
POLYLINE
 8
PARTS
 66
1
 10
0.0
 20
0.0
 30
0.0
 0
VERTEX
 8
PARTS
 10
  2.3500
 20
  3.2000
 30
0.0
 0
VERTEX
 8
PARTS
 10
  2.3000
 20
  3.1500
 30
0.0
 0
SEQEND
 8
PARTS
 0
TEXT
 8
PARTTEXT
 10
  1.9300
 20
  3.6786
 30
0.0
 40
  0.0514
 1
CAM_D7
 0
POLYLINE
 8
PARTS
 66
1
 10
0.0
 20
0.0
 30
0.0
 0
VERTEX
 8
PARTS
 10
  2.4000
 20
  3.7000
 30
0.0
 0
VERTEX
 8
PARTS
 10
  2.3500
 20
  3.6500
 30
0.0
 0
SEQEND
 8
PARTS
 0
POLYLINE
 8
PARTS
 66
1
 10
0.0
 20
0.0
 30
0.0
 0
VERTEX
 8
PARTS
 10
  2.4000
 20
  3.7000
 30
0.0
 0
VERTEX
 8
PARTS
 10
  2.3500
 20
  3.7500
 30
0.0
 0
SEQEND
 8
PARTS
 0
POLYLINE
 8
PARTS
 66
1
 10
0.0
 20
0.0
 30
0.0
 0
VERTEX
 8
PARTS
 10
  2.3500
 20
  3.7000
 30
0.0
 0
VERTEX
 8
PARTS
 10
  2.3000
 20
  3.7500
 30
0.0
 0
SEQEND
 8
PARTS
 0
POLYLINE
 8
PARTS
 66
1
 10
0.0
 20
0.0
 30
0.0
 0
VERTEX
 8
PARTS
 10
  2.3500
 20
  3.7000
 30
0.0
 0
VERTEX
 8
PARTS
 10
  2.3000
 20
  3.6500
 30
0.0
 0
SEQEND
 8
PARTS
 0
TEXT
 8
PARTTEXT
 10
  1.8100
 20
  2.7786
 30
0.0
 40
  0.0514
 1
CAM_PCLK
 0
POLYLINE
 8
PARTS
 66
1
 10
0.0
 20
0.0
 30
0.0
 0
VERTEX
 8
PARTS
 10
  2.4000
 20
  2.8000
 30
0.0
 0
VERTEX
 8
PARTS
 10
  2.3500
 20
  2.7500
 30
0.0
 0
SEQEND
 8
PARTS
 0
POLYLINE
 8
PARTS
 66
1
 10
0.0
 20
0.0
 30
0.0
 0
VERTEX
 8
PARTS
 10
  2.4000
 20
  2.8000
 30
0.0
 0
VERTEX
 8
PARTS
 10
  2.3500
 20
  2.8500
 30
0.0
 0
SEQEND
 8
PARTS
 0
POLYLINE
 8
PARTS
 66
1
 10
0.0
 20
0.0
 30
0.0
 0
VERTEX
 8
PARTS
 10
  2.3500
 20
  2.8000
 30
0.0
 0
VERTEX
 8
PARTS
 10
  2.3000
 20
  2.8500
 30
0.0
 0
SEQEND
 8
PARTS
 0
POLYLINE
 8
PARTS
 66
1
 10
0.0
 20
0.0
 30
0.0
 0
VERTEX
 8
PARTS
 10
  2.3500
 20
  2.8000
 30
0.0
 0
VERTEX
 8
PARTS
 10
  2.3000
 20
  2.7500
 30
0.0
 0
SEQEND
 8
PARTS
 0
TEXT
 8
PARTTEXT
 10
  2.2100
 20
  3.9786
 30
0.0
 40
  0.0514
 1
CAM_HSYNC
 0
POLYLINE
 8
PARTS
 66
1
 10
0.0
 20
0.0
 30
0.0
 0
VERTEX
 8
PARTS
 10
  2.9000
 20
  4.0000
 30
0.0
 0
VERTEX
 8
PARTS
 10
  2.8500
 20
  3.9500
 30
0.0
 0
SEQEND
 8
PARTS
 0
POLYLINE
 8
PARTS
 66
1
 10
0.0
 20
0.0
 30
0.0
 0
VERTEX
 8
PARTS
 10
  2.9000
 20
  4.0000
 30
0.0
 0
VERTEX
 8
PARTS
 10
  2.8500
 20
  4.0500
 30
0.0
 0
SEQEND
 8
PARTS
 0
POLYLINE
 8
PARTS
 66
1
 10
0.0
 20
0.0
 30
0.0
 0
VERTEX
 8
PARTS
 10
  2.8500
 20
  4.0000
 30
0.0
 0
VERTEX
 8
PARTS
 10
  2.8000
 20
  4.0500
 30
0.0
 0
SEQEND
 8
PARTS
 0
POLYLINE
 8
PARTS
 66
1
 10
0.0
 20
0.0
 30
0.0
 0
VERTEX
 8
PARTS
 10
  2.8500
 20
  4.0000
 30
0.0
 0
VERTEX
 8
PARTS
 10
  2.8000
 20
  3.9500
 30
0.0
 0
SEQEND
 8
PARTS
 0
TEXT
 8
PARTTEXT
 10
  2.2200
 20
  4.1786
 30
0.0
 40
  0.0514
 1
CAM_VSYNC
 0
POLYLINE
 8
PARTS
 66
1
 10
0.0
 20
0.0
 30
0.0
 0
VERTEX
 8
PARTS
 10
  2.9000
 20
  4.2000
 30
0.0
 0
VERTEX
 8
PARTS
 10
  2.8500
 20
  4.1500
 30
0.0
 0
SEQEND
 8
PARTS
 0
POLYLINE
 8
PARTS
 66
1
 10
0.0
 20
0.0
 30
0.0
 0
VERTEX
 8
PARTS
 10
  2.9000
 20
  4.2000
 30
0.0
 0
VERTEX
 8
PARTS
 10
  2.8500
 20
  4.2500
 30
0.0
 0
SEQEND
 8
PARTS
 0
POLYLINE
 8
PARTS
 66
1
 10
0.0
 20
0.0
 30
0.0
 0
VERTEX
 8
PARTS
 10
  2.8500
 20
  4.2000
 30
0.0
 0
VERTEX
 8
PARTS
 10
  2.8000
 20
  4.2500
 30
0.0
 0
SEQEND
 8
PARTS
 0
POLYLINE
 8
PARTS
 66
1
 10
0.0
 20
0.0
 30
0.0
 0
VERTEX
 8
PARTS
 10
  2.8500
 20
  4.2000
 30
0.0
 0
VERTEX
 8
PARTS
 10
  2.8000
 20
  4.1500
 30
0.0
 0
SEQEND
 8
PARTS
 0
TEXT
 8
PARTTEXT
 10
  1.8200
 20
  3.3786
 30
0.0
 40
  0.0514
 1
CAM_XCLK
 0
POLYLINE
 8
PARTS
 66
1
 10
0.0
 20
0.0
 30
0.0
 0
VERTEX
 8
PARTS
 10
  2.4000
 20
  3.4000
 30
0.0
 0
VERTEX
 8
PARTS
 10
  2.3500
 20
  3.3500
 30
0.0
 0
SEQEND
 8
PARTS
 0
POLYLINE
 8
PARTS
 66
1
 10
0.0
 20
0.0
 30
0.0
 0
VERTEX
 8
PARTS
 10
  2.4000
 20
  3.4000
 30
0.0
 0
VERTEX
 8
PARTS
 10
  2.3500
 20
  3.4500
 30
0.0
 0
SEQEND
 8
PARTS
 0
POLYLINE
 8
PARTS
 66
1
 10
0.0
 20
0.0
 30
0.0
 0
VERTEX
 8
PARTS
 10
  2.3500
 20
  3.4000
 30
0.0
 0
VERTEX
 8
PARTS
 10
  2.3000
 20
  3.4500
 30
0.0
 0
SEQEND
 8
PARTS
 0
POLYLINE
 8
PARTS
 66
1
 10
0.0
 20
0.0
 30
0.0
 0
VERTEX
 8
PARTS
 10
  2.3500
 20
  3.4000
 30
0.0
 0
VERTEX
 8
PARTS
 10
  2.3000
 20
  3.3500
 30
0.0
 0
SEQEND
 8
PARTS
 0
TEXT
 8
PARTTEXT
 10
  3.2900
 20
  1.4786
 30
0.0
 40
  0.0514
 1
GND
 0
POLYLINE
 8
PARTS
 66
1
 10
0.0
 20
0.0
 30
0.0
 0
VERTEX
 8
PARTS
 10
  3.6000
 20
  1.5000
 30
0.0
 0
VERTEX
 8
PARTS
 10
  3.5500
 20
  1.4500
 30
0.0
 0
SEQEND
 8
PARTS
 0
POLYLINE
 8
PARTS
 66
1
 10
0.0
 20
0.0
 30
0.0
 0
VERTEX
 8
PARTS
 10
  3.6000
 20
  1.5000
 30
0.0
 0
VERTEX
 8
PARTS
 10
  3.5500
 20
  1.5500
 30
0.0
 0
SEQEND
 8
PARTS
 0
POLYLINE
 8
PARTS
 66
1
 10
0.0
 20
0.0
 30
0.0
 0
VERTEX
 8
PARTS
 10
  3.5500
 20
  1.5000
 30
0.0
 0
VERTEX
 8
PARTS
 10
  3.5000
 20
  1.5500
 30
0.0
 0
SEQEND
 8
PARTS
 0
POLYLINE
 8
PARTS
 66
1
 10
0.0
 20
0.0
 30
0.0
 0
VERTEX
 8
PARTS
 10
  3.5500
 20
  1.5000
 30
0.0
 0
VERTEX
 8
PARTS
 10
  3.5000
 20
  1.4500
 30
0.0
 0
SEQEND
 8
PARTS
 0
ENDSEC
 0
EOF
