 0
SECTION
 2
HEADER
 9
$ACADVER
 1
AC1009
 0
ENDSEC
 0
SECTION
 2
ENTITIES
 0
POLYLINE
 8
TITLE
 66
1
 70
1
 10
0.0
 20
0.0
 30
0.0
 0
VERTEX
 8
TITLE
 10
 -0.1000
 20
  0.1000
 30
0.0
 0
VERTEX
 8
TITLE
 10
  9.6000
 20
  0.1000
 30
0.0
 0
VERTEX
 8
TITLE
 10
  9.6000
 20
  7.3000
 30
0.0
 0
VERTEX
 8
TITLE
 10
 -0.1000
 20
  7.3000
 30
0.0
 0
SEQEND
 8
TITLE
 0
POLYLINE
 8
TITLE
 66
1
 70
1
 10
0.0
 20
0.0
 30
0.0
 0
VERTEX
 8
TITLE
 10
  0.0000
 20
  0.2000
 30
0.0
 0
VERTEX
 8
TITLE
 10
  9.5000
 20
  0.2000
 30
0.0
 0
VERTEX
 8
TITLE
 10
  9.5000
 20
  7.2000
 30
0.0
 0
VERTEX
 8
TITLE
 10
  0.0000
 20
  7.2000
 30
0.0
 0
SEQEND
 8
TITLE
 0
POLYLINE
 8
TITLE
 66
1
 10
0.0
 20
0.0
 30
0.0
 0
VERTEX
 8
TITLE
 10
  2.0600
 20
  0.2000
 30
0.0
 0
VERTEX
 8
TITLE
 10
  2.0600
 20
  0.1000
 30
0.0
 0
SEQEND
 8
TITLE
 0
POLYLINE
 8
TITLE
 66
1
 10
0.0
 20
0.0
 30
0.0
 0
VERTEX
 8
TITLE
 10
  2.0600
 20
  7.2000
 30
0.0
 0
VERTEX
 8
TITLE
 10
  2.0600
 20
  7.3000
 30
0.0
 0
SEQEND
 8
TITLE
 0
POLYLINE
 8
TITLE
 66
1
 10
0.0
 20
0.0
 30
0.0
 0
VERTEX
 8
TITLE
 10
  3.9200
 20
  0.2000
 30
0.0
 0
VERTEX
 8
TITLE
 10
  3.9200
 20
  0.1000
 30
0.0
 0
SEQEND
 8
TITLE
 0
POLYLINE
 8
TITLE
 66
1
 10
0.0
 20
0.0
 30
0.0
 0
VERTEX
 8
TITLE
 10
  3.9200
 20
  7.2000
 30
0.0
 0
VERTEX
 8
TITLE
 10
  3.9200
 20
  7.3000
 30
0.0
 0
SEQEND
 8
TITLE
 0
POLYLINE
 8
TITLE
 66
1
 10
0.0
 20
0.0
 30
0.0
 0
VERTEX
 8
TITLE
 10
  5.7800
 20
  0.2000
 30
0.0
 0
VERTEX
 8
TITLE
 10
  5.7800
 20
  0.1000
 30
0.0
 0
SEQEND
 8
TITLE
 0
POLYLINE
 8
TITLE
 66
1
 10
0.0
 20
0.0
 30
0.0
 0
VERTEX
 8
TITLE
 10
  5.7800
 20
  7.2000
 30
0.0
 0
VERTEX
 8
TITLE
 10
  5.7800
 20
  7.3000
 30
0.0
 0
SEQEND
 8
TITLE
 0
POLYLINE
 8
TITLE
 66
1
 10
0.0
 20
0.0
 30
0.0
 0
VERTEX
 8
TITLE
 10
  7.6400
 20
  0.2000
 30
0.0
 0
VERTEX
 8
TITLE
 10
  7.6400
 20
  0.1000
 30
0.0
 0
SEQEND
 8
TITLE
 0
POLYLINE
 8
TITLE
 66
1
 10
0.0
 20
0.0
 30
0.0
 0
VERTEX
 8
TITLE
 10
  7.6400
 20
  7.2000
 30
0.0
 0
VERTEX
 8
TITLE
 10
  7.6400
 20
  7.3000
 30
0.0
 0
SEQEND
 8
TITLE
 0
TEXT
 8
TITLE
 10
  1.1300
 20
  0.1200
 30
0.0
 40
  0.0500
 1
5
 0
TEXT
 8
TITLE
 10
  1.1300
 20
  7.2200
 30
0.0
 40
  0.0500
 1
5
 0
TEXT
 8
TITLE
 10
  2.9900
 20
  0.1200
 30
0.0
 40
  0.0500
 1
4
 0
TEXT
 8
TITLE
 10
  2.9900
 20
  7.2200
 30
0.0
 40
  0.0500
 1
4
 0
TEXT
 8
TITLE
 10
  4.8500
 20
  0.1200
 30
0.0
 40
  0.0500
 1
3
 0
TEXT
 8
TITLE
 10
  4.8500
 20
  7.2200
 30
0.0
 40
  0.0500
 1
3
 0
TEXT
 8
TITLE
 10
  6.7100
 20
  0.1200
 30
0.0
 40
  0.0500
 1
2
 0
TEXT
 8
TITLE
 10
  6.7100
 20
  7.2200
 30
0.0
 40
  0.0500
 1
2
 0
TEXT
 8
TITLE
 10
  8.5700
 20
  0.1200
 30
0.0
 40
  0.0500
 1
1
 0
TEXT
 8
TITLE
 10
  8.5700
 20
  7.2200
 30
0.0
 40
  0.0500
 1
1
 0
POLYLINE
 8
TITLE
 66
1
 10
0.0
 20
0.0
 30
0.0
 0
VERTEX
 8
TITLE
 10
 -0.1000
 20
  5.3000
 30
0.0
 0
VERTEX
 8
TITLE
 10
  0.0000
 20
  5.3000
 30
0.0
 0
SEQEND
 8
TITLE
 0
POLYLINE
 8
TITLE
 66
1
 10
0.0
 20
0.0
 30
0.0
 0
VERTEX
 8
TITLE
 10
  9.5000
 20
  5.3000
 30
0.0
 0
VERTEX
 8
TITLE
 10
  9.6000
 20
  5.3000
 30
0.0
 0
SEQEND
 8
TITLE
 0
SOLID
 8
TITLE
 10
  0.0000
 20
  3.6000
 30
0.0
 11
 -0.0500
 21
  3.6200
 31
0.0
 12
 -0.0500
 22
  3.5800
 32
0.0
 13
 -0.0500
 23
  3.6000
 33
0.0
 0
SOLID
 8
TITLE
 10
  9.5000
 20
  3.6000
 30
0.0
 11
  9.5500
 21
  3.6200
 31
0.0
 12
  9.5500
 22
  3.5800
 32
0.0
 13
  9.5500
 23
  3.6000
 33
0.0
 0
POLYLINE
 8
TITLE
 66
1
 10
0.0
 20
0.0
 30
0.0
 0
VERTEX
 8
TITLE
 10
 -0.1000
 20
  3.6000
 30
0.0
 0
VERTEX
 8
TITLE
 10
  0.0000
 20
  3.6000
 30
0.0
 0
SEQEND
 8
TITLE
 0
POLYLINE
 8
TITLE
 66
1
 10
0.0
 20
0.0
 30
0.0
 0
VERTEX
 8
TITLE
 10
  9.5000
 20
  3.6000
 30
0.0
 0
VERTEX
 8
TITLE
 10
  9.6000
 20
  3.6000
 30
0.0
 0
SEQEND
 8
TITLE
 0
SOLID
 8
TITLE
 10
  0.0000
 20
  3.6000
 30
0.0
 11
 -0.0500
 21
  3.6200
 31
0.0
 12
 -0.0500
 22
  3.5800
 32
0.0
 13
 -0.0500
 23
  3.6000
 33
0.0
 0
SOLID
 8
TITLE
 10
  9.5000
 20
  3.6000
 30
0.0
 11
  9.5500
 21
  3.6200
 31
0.0
 12
  9.5500
 22
  3.5800
 32
0.0
 13
  9.5500
 23
  3.6000
 33
0.0
 0
POLYLINE
 8
TITLE
 66
1
 10
0.0
 20
0.0
 30
0.0
 0
VERTEX
 8
TITLE
 10
 -0.1000
 20
  1.9000
 30
0.0
 0
VERTEX
 8
TITLE
 10
  0.0000
 20
  1.9000
 30
0.0
 0
SEQEND
 8
TITLE
 0
POLYLINE
 8
TITLE
 66
1
 10
0.0
 20
0.0
 30
0.0
 0
VERTEX
 8
TITLE
 10
  9.5000
 20
  1.9000
 30
0.0
 0
VERTEX
 8
TITLE
 10
  9.6000
 20
  1.9000
 30
0.0
 0
SEQEND
 8
TITLE
 0
SOLID
 8
TITLE
 10
  0.0000
 20
  3.6000
 30
0.0
 11
 -0.0500
 21
  3.6200
 31
0.0
 12
 -0.0500
 22
  3.5800
 32
0.0
 13
 -0.0500
 23
  3.6000
 33
0.0
 0
SOLID
 8
TITLE
 10
  9.5000
 20
  3.6000
 30
0.0
 11
  9.5500
 21
  3.6200
 31
0.0
 12
  9.5500
 22
  3.5800
 32
0.0
 13
  9.5500
 23
  3.6000
 33
0.0
 0
TEXT
 8
TITLE
 10
 -0.0800
 20
  6.1500
 30
0.0
 40
  0.0500
 1
D
 0
TEXT
 8
TITLE
 10
  9.5200
 20
  6.1500
 30
0.0
 40
  0.0500
 1
D
 0
TEXT
 8
TITLE
 10
 -0.0800
 20
  4.4500
 30
0.0
 40
  0.0500
 1
C
 0
TEXT
 8
TITLE
 10
  9.5200
 20
  4.4500
 30
0.0
 40
  0.0500
 1
C
 0
TEXT
 8
TITLE
 10
 -0.0800
 20
  2.7500
 30
0.0
 40
  0.0500
 1
B
 0
TEXT
 8
TITLE
 10
  9.5200
 20
  2.7500
 30
0.0
 40
  0.0500
 1
B
 0
TEXT
 8
TITLE
 10
 -0.0800
 20
  1.0500
 30
0.0
 40
  0.0500
 1
A
 0
TEXT
 8
TITLE
 10
  9.5200
 20
  1.0500
 30
0.0
 40
  0.0500
 1
A
 0
TEXT
 8
TITLE
 10
  6.3000
 20
  0.4186
 30
0.0
 40
  0.0514
 1
<Doc>
 0
TEXT
 8
TITLE
 10
  9.3000
 20
  0.4186
 30
0.0
 40
  0.0514
 1
<RevCode>
 0
TEXT
 8
TITLE
 10
  6.3000
 20
  0.7186
 30
0.0
 40
  0.0514
 1
<Title>
 0
TEXT
 8
TITLE
 10
  6.0000
 20
  0.4186
 30
0.0
 40
  0.0514
 1
A
 0
TEXT
 8
TITLE
 10
  8.4000
 20
  0.2186
 30
0.0
 40
  0.0514
 1
1
 0
TEXT
 8
TITLE
 10
  9.0000
 20
  0.2186
 30
0.0
 40
  0.0514
 1
1
 0
TEXT
 8
TITLE
 10
  6.4200
 20
  0.2186
 30
0.0
 40
  0.0514
 1
Monday, March 02, 2026
 0
TEXT
 8
PARTTEXT
 10
  5.9000
 20
  0.8186
 30
0.0
 40
  0.0514
 1
Title
 0
TEXT
 8
PARTTEXT
 10
  5.9000
 20
  0.5186
 30
0.0
 40
  0.0514
 1
Size
 0
TEXT
 8
PARTTEXT
 10
  6.3000
 20
  0.5186
 30
0.0
 40
  0.0514
 1
Document Number
 0
TEXT
 8
PARTTEXT
 10
  9.2000
 20
  0.5186
 30
0.0
 40
  0.0514
 1
Rev
 0
TEXT
 8
PARTTEXT
 10
  5.9000
 20
  0.2186
 30
0.0
 40
  0.0514
 1
Date:
 0
TEXT
 8
PARTTEXT
 10
  7.9000
 20
  0.2186
 30
0.0
 40
  0.0514
 1
Sheet
 0
POLYLINE
 8
TITLE
 66
1
 70
1
 10
0.0
 20
0.0
 30
0.0
 0
VERTEX
 8
TITLE
 10
  5.9000
 20
  1.1000
 30
0.0
 0
VERTEX
 8
TITLE
 10
  9.5000
 20
  1.1000
 30
0.0
 0
VERTEX
 8
TITLE
 10
  9.5000
 20
  0.9000
 30
0.0
 0
VERTEX
 8
TITLE
 10
  5.9000
 20
  0.9000
 30
0.0
 0
SEQEND
 8
TITLE
 0
POLYLINE
 8
TITLE
 66
1
 70
1
 10
0.0
 20
0.0
 30
0.0
 0
VERTEX
 8
TITLE
 10
  5.9000
 20
  0.9000
 30
0.0
 0
VERTEX
 8
TITLE
 10
  9.5000
 20
  0.9000
 30
0.0
 0
VERTEX
 8
TITLE
 10
  9.5000
 20
  0.6000
 30
0.0
 0
VERTEX
 8
TITLE
 10
  5.9000
 20
  0.6000
 30
0.0
 0
SEQEND
 8
TITLE
 0
POLYLINE
 8
TITLE
 66
1
 70
1
 10
0.0
 20
0.0
 30
0.0
 0
VERTEX
 8
TITLE
 10
  5.9000
 20
  0.6000
 30
0.0
 0
VERTEX
 8
TITLE
 10
  6.2000
 20
  0.6000
 30
0.0
 0
VERTEX
 8
TITLE
 10
  6.2000
 20
  0.3000
 30
0.0
 0
VERTEX
 8
TITLE
 10
  5.9000
 20
  0.3000
 30
0.0
 0
SEQEND
 8
TITLE
 0
POLYLINE
 8
TITLE
 66
1
 70
1
 10
0.0
 20
0.0
 30
0.0
 0
VERTEX
 8
TITLE
 10
  6.2000
 20
  0.6000
 30
0.0
 0
VERTEX
 8
TITLE
 10
  9.2000
 20
  0.6000
 30
0.0
 0
VERTEX
 8
TITLE
 10
  9.2000
 20
  0.3000
 30
0.0
 0
VERTEX
 8
TITLE
 10
  6.2000
 20
  0.3000
 30
0.0
 0
SEQEND
 8
TITLE
 0
POLYLINE
 8
TITLE
 66
1
 70
1
 10
0.0
 20
0.0
 30
0.0
 0
VERTEX
 8
TITLE
 10
  9.2000
 20
  0.6000
 30
0.0
 0
VERTEX
 8
TITLE
 10
  9.5000
 20
  0.6000
 30
0.0
 0
VERTEX
 8
TITLE
 10
  9.5000
 20
  0.3000
 30
0.0
 0
VERTEX
 8
TITLE
 10
  9.2000
 20
  0.3000
 30
0.0
 0
SEQEND
 8
TITLE
 0
POLYLINE
 8
TITLE
 66
1
 70
1
 10
0.0
 20
0.0
 30
0.0
 0
VERTEX
 8
TITLE
 10
  5.9000
 20
  0.3000
 30
0.0
 0
VERTEX
 8
TITLE
 10
  7.9000
 20
  0.3000
 30
0.0
 0
VERTEX
 8
TITLE
 10
  7.9000
 20
  0.2000
 30
0.0
 0
VERTEX
 8
TITLE
 10
  5.9000
 20
  0.2000
 30
0.0
 0
SEQEND
 8
TITLE
 0
POLYLINE
 8
TITLE
 66
1
 70
1
 10
0.0
 20
0.0
 30
0.0
 0
VERTEX
 8
TITLE
 10
  7.9000
 20
  0.3000
 30
0.0
 0
VERTEX
 8
TITLE
 10
  9.5000
 20
  0.3000
 30
0.0
 0
VERTEX
 8
TITLE
 10
  9.5000
 20
  0.2000
 30
0.0
 0
VERTEX
 8
TITLE
 10
  7.9000
 20
  0.2000
 30
0.0
 0
SEQEND
 8
TITLE
 0
TEXT
 8
PARTTEXT
 10
  8.7000
 20
  0.2186
 30
0.0
 40
  0.0514
 1
of
 0
TEXT
 8
PARTTEXT
 10
  4.4000
 20
  4.9186
 30
0.0
 40
  0.0514
 1
J_SENSOR
 0
TEXT
 8
PARTTEXT
 10
  4.4000
 20
  4.2786
 30
0.0
 40
  0.0514
 1
TS-104-G-AA
 0
LINE
 8
PARTS
 10
  4.2000
 20
  4.8000
 30
0.0
 11
  4.4000
 21
  4.8000
 31
0.0
 0
TEXT
 8
PARTS
 10
  4.4900
 20
  4.7750
 30
0.0
 40
  0.0500
 1
01
 0
TEXT
 8
PARTS
 10
  4.2600
 20
  4.8300
 30
0.0
 40
  0.0500
 1
01
 0
LINE
 8
PARTS
 10
  4.2000
 20
  4.7000
 30
0.0
 11
  4.4000
 21
  4.7000
 31
0.0
 0
TEXT
 8
PARTS
 10
  4.4900
 20
  4.6750
 30
0.0
 40
  0.0500
 1
02
 0
TEXT
 8
PARTS
 10
  4.2600
 20
  4.7300
 30
0.0
 40
  0.0500
 1
02
 0
LINE
 8
PARTS
 10
  4.2000
 20
  4.6000
 30
0.0
 11
  4.4000
 21
  4.6000
 31
0.0
 0
TEXT
 8
PARTS
 10
  4.4900
 20
  4.5750
 30
0.0
 40
  0.0500
 1
03
 0
TEXT
 8
PARTS
 10
  4.2600
 20
  4.6300
 30
0.0
 40
  0.0500
 1
03
 0
LINE
 8
PARTS
 10
  4.2000
 20
  4.5000
 30
0.0
 11
  4.4000
 21
  4.5000
 31
0.0
 0
TEXT
 8
PARTS
 10
  4.4900
 20
  4.4750
 30
0.0
 40
  0.0500
 1
04
 0
TEXT
 8
PARTS
 10
  4.2600
 20
  4.5300
 30
0.0
 40
  0.0500
 1
04
 0
POLYLINE
 8
PARTS
 66
1
 10
0.0
 20
0.0
 30
0.0
 0
VERTEX
 8
PARTS
 10
  4.4000
 20
  4.4000
 30
0.0
 0
VERTEX
 8
PARTS
 10
  4.4000
 20
  4.9000
 30
0.0
 0
SEQEND
 8
PARTS
 0
POLYLINE
 8
PARTS
 66
1
 10
0.0
 20
0.0
 30
0.0
 0
VERTEX
 8
PARTS
 10
  4.4000
 20
  4.9000
 30
0.0
 0
VERTEX
 8
PARTS
 10
  5.0000
 20
  4.9000
 30
0.0
 0
SEQEND
 8
PARTS
 0
POLYLINE
 8
PARTS
 66
1
 10
0.0
 20
0.0
 30
0.0
 0
VERTEX
 8
PARTS
 10
  5.0000
 20
  4.9000
 30
0.0
 0
VERTEX
 8
PARTS
 10
  5.0000
 20
  4.4000
 30
0.0
 0
SEQEND
 8
PARTS
 0
POLYLINE
 8
PARTS
 66
1
 10
0.0
 20
0.0
 30
0.0
 0
VERTEX
 8
PARTS
 10
  5.0000
 20
  4.4000
 30
0.0
 0
VERTEX
 8
PARTS
 10
  4.4000
 20
  4.4000
 30
0.0
 0
SEQEND
 8
PARTS
 0
POLYLINE
 8
PARTS
 66
1
 10
0.0
 20
0.0
 30
0.0
 0
VERTEX
 8
PARTS
 10
  4.4000
 20
  4.8000
 30
0.0
 0
VERTEX
 8
PARTS
 10
  4.4000
 20
  4.8000
 30
0.0
 0
SEQEND
 8
PARTS
 0
POLYLINE
 8
PARTS
 66
1
 10
0.0
 20
0.0
 30
0.0
 0
VERTEX
 8
PARTS
 10
  4.4000
 20
  4.7000
 30
0.0
 0
VERTEX
 8
PARTS
 10
  4.4000
 20
  4.7000
 30
0.0
 0
SEQEND
 8
PARTS
 0
POLYLINE
 8
PARTS
 66
1
 10
0.0
 20
0.0
 30
0.0
 0
VERTEX
 8
PARTS
 10
  4.4000
 20
  4.6000
 30
0.0
 0
VERTEX
 8
PARTS
 10
  4.4000
 20
  4.6000
 30
0.0
 0
SEQEND
 8
PARTS
 0
POLYLINE
 8
PARTS
 66
1
 10
0.0
 20
0.0
 30
0.0
 0
VERTEX
 8
PARTS
 10
  4.4000
 20
  4.5000
 30
0.0
 0
VERTEX
 8
PARTS
 10
  4.4000
 20
  4.5000
 30
0.0
 0
SEQEND
 8
PARTS
 0
TEXT
 8
PARTTEXT
 10
  3.9500
 20
  5.6686
 30
0.0
 40
  0.0514
 1
4K7
 0
TEXT
 8
PARTTEXT
 10
  3.9300
 20
  5.9686
 30
0.0
 40
  0.0514
 1
R16
 0
LINE
 8
PARTS
 10
  4.2000
 20
  5.8000
 30
0.0
 11
  4.1000
 21
  5.8000
 31
0.0
 0
TEXT
 8
PARTS
 10
  3.9700
 20
  5.7750
 30
0.0
 40
  0.0500
 1
1
 0
LINE
 8
PARTS
 10
  3.7000
 20
  5.8000
 30
0.0
 11
  3.8000
 21
  5.8000
 31
0.0
 0
TEXT
 8
PARTS
 10
  3.8900
 20
  5.7750
 30
0.0
 40
  0.0500
 1
2
 0
POLYLINE
 8
PARTS
 66
1
 10
0.0
 20
0.0
 30
0.0
 40
  0.0600
 41
  0.0600
 0
VERTEX
 8
PARTS
 10
  3.8300
 20
  5.8500
 30
0.0
 0
VERTEX
 8
PARTS
 10
  3.8800
 20
  5.7500
 30
0.0
 0
SEQEND
 8
PARTS
 0
POLYLINE
 8
PARTS
 66
1
 10
0.0
 20
0.0
 30
0.0
 40
  0.0600
 41
  0.0600
 0
VERTEX
 8
PARTS
 10
  3.8800
 20
  5.7500
 30
0.0
 0
VERTEX
 8
PARTS
 10
  3.9300
 20
  5.8500
 30
0.0
 0
SEQEND
 8
PARTS
 0
POLYLINE
 8
PARTS
 66
1
 10
0.0
 20
0.0
 30
0.0
 40
  0.0600
 41
  0.0600
 0
VERTEX
 8
PARTS
 10
  3.9300
 20
  5.8500
 30
0.0
 0
VERTEX
 8
PARTS
 10
  3.9800
 20
  5.7500
 30
0.0
 0
SEQEND
 8
PARTS
 0
POLYLINE
 8
PARTS
 66
1
 10
0.0
 20
0.0
 30
0.0
 40
  0.0600
 41
  0.0600
 0
VERTEX
 8
PARTS
 10
  3.9800
 20
  5.7500
 30
0.0
 0
VERTEX
 8
PARTS
 10
  4.0300
 20
  5.8500
 30
0.0
 0
SEQEND
 8
PARTS
 0
POLYLINE
 8
PARTS
 66
1
 10
0.0
 20
0.0
 30
0.0
 40
  0.0600
 41
  0.0600
 0
VERTEX
 8
PARTS
 10
  4.0300
 20
  5.8500
 30
0.0
 0
VERTEX
 8
PARTS
 10
  4.0800
 20
  5.7500
 30
0.0
 0
SEQEND
 8
PARTS
 0
POLYLINE
 8
PARTS
 66
1
 10
0.0
 20
0.0
 30
0.0
 40
  0.0600
 41
  0.0600
 0
VERTEX
 8
PARTS
 10
  3.8000
 20
  5.8000
 30
0.0
 0
VERTEX
 8
PARTS
 10
  3.8300
 20
  5.8500
 30
0.0
 0
SEQEND
 8
PARTS
 0
POLYLINE
 8
PARTS
 66
1
 10
0.0
 20
0.0
 30
0.0
 40
  0.0600
 41
  0.0600
 0
VERTEX
 8
PARTS
 10
  4.0800
 20
  5.7500
 30
0.0
 0
VERTEX
 8
PARTS
 10
  4.1000
 20
  5.8000
 30
0.0
 0
SEQEND
 8
PARTS
 0
TEXT
 8
PARTTEXT
 10
  6.7000
 20
  5.2186
 30
0.0
 40
  0.0514
 1
TP12
 0
TEXT
 8
PARTTEXT
 10
  6.7000
 20
  4.7186
 30
0.0
 40
  0.0514
 1
TP_I2C_SDA
 0
LINE
 8
PARTS
 10
  6.4000
 20
  5.0000
 30
0.0
 11
  6.7000
 21
  5.0000
 31
0.0
 0
TEXT
 8
PARTS
 10
  6.6000
 20
  5.0300
 30
0.0
 40
  0.0500
 1
1
 0
POLYLINE
 8
PARTS
 66
1
 70
1
 10
0.0
 20
0.0
 30
0.0
 0
VERTEX
 8
PARTS
 10
  6.7000
 20
  5.1000
 30
0.0
 0
VERTEX
 8
PARTS
 10
  6.8000
 20
  5.1000
 30
0.0
 0
VERTEX
 8
PARTS
 10
  6.8000
 20
  4.9000
 30
0.0
 0
VERTEX
 8
PARTS
 10
  6.7000
 20
  4.9000
 30
0.0
 0
SEQEND
 8
PARTS
 0
TEXT
 8
PARTTEXT
 10
  6.7000
 20
  5.9186
 30
0.0
 40
  0.0514
 1
TP11
 0
TEXT
 8
PARTTEXT
 10
  6.7000
 20
  5.4186
 30
0.0
 40
  0.0514
 1
TP_I2C_SCL
 0
LINE
 8
PARTS
 10
  6.4000
 20
  5.7000
 30
0.0
 11
  6.7000
 21
  5.7000
 31
0.0
 0
TEXT
 8
PARTS
 10
  6.6000
 20
  5.7300
 30
0.0
 40
  0.0500
 1
1
 0
POLYLINE
 8
PARTS
 66
1
 70
1
 10
0.0
 20
0.0
 30
0.0
 0
VERTEX
 8
PARTS
 10
  6.7000
 20
  5.8000
 30
0.0
 0
VERTEX
 8
PARTS
 10
  6.8000
 20
  5.8000
 30
0.0
 0
VERTEX
 8
PARTS
 10
  6.8000
 20
  5.6000
 30
0.0
 0
VERTEX
 8
PARTS
 10
  6.7000
 20
  5.6000
 30
0.0
 0
SEQEND
 8
PARTS
 0
TEXT
 8
PARTTEXT
 10
  3.9500
 20
  5.8686
 30
0.0
 40
  0.0514
 1
4K7
 0
TEXT
 8
PARTTEXT
 10
  3.9300
 20
  6.1686
 30
0.0
 40
  0.0514
 1
R15
 0
LINE
 8
PARTS
 10
  4.2000
 20
  6.0000
 30
0.0
 11
  4.1000
 21
  6.0000
 31
0.0
 0
TEXT
 8
PARTS
 10
  3.9700
 20
  5.9750
 30
0.0
 40
  0.0500
 1
1
 0
LINE
 8
PARTS
 10
  3.7000
 20
  6.0000
 30
0.0
 11
  3.8000
 21
  6.0000
 31
0.0
 0
TEXT
 8
PARTS
 10
  3.8900
 20
  5.9750
 30
0.0
 40
  0.0500
 1
2
 0
POLYLINE
 8
PARTS
 66
1
 10
0.0
 20
0.0
 30
0.0
 40
  0.0600
 41
  0.0600
 0
VERTEX
 8
PARTS
 10
  3.8300
 20
  6.0500
 30
0.0
 0
VERTEX
 8
PARTS
 10
  3.8800
 20
  5.9500
 30
0.0
 0
SEQEND
 8
PARTS
 0
POLYLINE
 8
PARTS
 66
1
 10
0.0
 20
0.0
 30
0.0
 40
  0.0600
 41
  0.0600
 0
VERTEX
 8
PARTS
 10
  3.8800
 20
  5.9500
 30
0.0
 0
VERTEX
 8
PARTS
 10
  3.9300
 20
  6.0500
 30
0.0
 0
SEQEND
 8
PARTS
 0
POLYLINE
 8
PARTS
 66
1
 10
0.0
 20
0.0
 30
0.0
 40
  0.0600
 41
  0.0600
 0
VERTEX
 8
PARTS
 10
  3.9300
 20
  6.0500
 30
0.0
 0
VERTEX
 8
PARTS
 10
  3.9800
 20
  5.9500
 30
0.0
 0
SEQEND
 8
PARTS
 0
POLYLINE
 8
PARTS
 66
1
 10
0.0
 20
0.0
 30
0.0
 40
  0.0600
 41
  0.0600
 0
VERTEX
 8
PARTS
 10
  3.9800
 20
  5.9500
 30
0.0
 0
VERTEX
 8
PARTS
 10
  4.0300
 20
  6.0500
 30
0.0
 0
SEQEND
 8
PARTS
 0
POLYLINE
 8
PARTS
 66
1
 10
0.0
 20
0.0
 30
0.0
 40
  0.0600
 41
  0.0600
 0
VERTEX
 8
PARTS
 10
  4.0300
 20
  6.0500
 30
0.0
 0
VERTEX
 8
PARTS
 10
  4.0800
 20
  5.9500
 30
0.0
 0
SEQEND
 8
PARTS
 0
POLYLINE
 8
PARTS
 66
1
 10
0.0
 20
0.0
 30
0.0
 40
  0.0600
 41
  0.0600
 0
VERTEX
 8
PARTS
 10
  3.8000
 20
  6.0000
 30
0.0
 0
VERTEX
 8
PARTS
 10
  3.8300
 20
  6.0500
 30
0.0
 0
SEQEND
 8
PARTS
 0
POLYLINE
 8
PARTS
 66
1
 10
0.0
 20
0.0
 30
0.0
 40
  0.0600
 41
  0.0600
 0
VERTEX
 8
PARTS
 10
  4.0800
 20
  5.9500
 30
0.0
 0
VERTEX
 8
PARTS
 10
  4.1000
 20
  6.0000
 30
0.0
 0
SEQEND
 8
PARTS
 0
TEXT
 8
PARTTEXT
 10
  3.8600
 20
  4.9186
 30
0.0
 40
  0.0514
 1
C24
 0
TEXT
 8
PARTTEXT
 10
  3.8600
 20
  4.7986
 30
0.0
 40
  0.0514
 1
0.1UF
 0
LINE
 8
PARTS
 10
  3.7000
 20
  5.1000
 30
0.0
 11
  3.7000
 21
  5.0000
 31
0.0
 0
TEXT
 8
PARTS
 10
  3.6700
 20
  5.0600
 30
0.0
 40
  0.0500
 50
 90.0000
 1
1
 0
LINE
 8
PARTS
 10
  3.7000
 20
  4.8000
 30
0.0
 11
  3.7000
 21
  4.9000
 31
0.0
 0
TEXT
 8
PARTS
 10
  3.6700
 20
  4.7800
 30
0.0
 40
  0.0500
 50
 90.0000
 1
2
 0
POLYLINE
 8
PARTS
 66
1
 70
1
 10
0.0
 20
0.0
 30
0.0
 0
VERTEX
 8
PARTS
 10
  3.6200
 20
  5.0000
 30
0.0
 0
VERTEX
 8
PARTS
 10
  3.7700
 20
  5.0000
 30
0.0
 0
VERTEX
 8
PARTS
 10
  3.7700
 20
  4.9800
 30
0.0
 0
VERTEX
 8
PARTS
 10
  3.6200
 20
  4.9800
 30
0.0
 0
SEQEND
 8
PARTS
 0
POLYLINE
 8
PARTS
 66
1
 70
1
 10
0.0
 20
0.0
 30
0.0
 0
VERTEX
 8
PARTS
 10
  3.6200
 20
  4.9200
 30
0.0
 0
VERTEX
 8
PARTS
 10
  3.7700
 20
  4.9200
 30
0.0
 0
VERTEX
 8
PARTS
 10
  3.7700
 20
  4.9000
 30
0.0
 0
VERTEX
 8
PARTS
 10
  3.6200
 20
  4.9000
 30
0.0
 0
SEQEND
 8
PARTS
 0
POLYLINE
 8
PARTS
 66
1
 10
0.0
 20
0.0
 30
0.0
 0
VERTEX
 8
PARTS
 10
  3.7000
 20
  4.9000
 30
0.0
 0
VERTEX
 8
PARTS
 10
  3.7000
 20
  4.9000
 30
0.0
 0
SEQEND
 8
PARTS
 0
POLYLINE
 8
PARTS
 66
1
 10
0.0
 20
0.0
 30
0.0
 0
VERTEX
 8
PARTS
 10
  3.7000
 20
  5.0000
 30
0.0
 0
VERTEX
 8
PARTS
 10
  3.7000
 20
  5.0000
 30
0.0
 0
SEQEND
 8
PARTS
 0
POLYLINE
 8
WIRE
 66
1
 10
0.0
 20
0.0
 30
0.0
 0
VERTEX
 8
WIRE
 10
  3.4000
 20
  6.0000
 30
0.0
 0
VERTEX
 8
WIRE
 10
  3.7000
 20
  6.0000
 30
0.0
 0
SEQEND
 8
WIRE
 0
POLYLINE
 8
WIRE
 66
1
 10
0.0
 20
0.0
 30
0.0
 0
VERTEX
 8
WIRE
 10
  4.2000
 20
  6.0000
 30
0.0
 0
VERTEX
 8
WIRE
 10
  4.5000
 20
  6.0000
 30
0.0
 0
SEQEND
 8
WIRE
 0
POLYLINE
 8
WIRE
 66
1
 10
0.0
 20
0.0
 30
0.0
 0
VERTEX
 8
WIRE
 10
  4.5000
 20
  5.9000
 30
0.0
 0
VERTEX
 8
WIRE
 10
  4.5000
 20
  6.0000
 30
0.0
 0
SEQEND
 8
WIRE
 0
POLYLINE
 8
WIRE
 66
1
 10
0.0
 20
0.0
 30
0.0
 0
VERTEX
 8
WIRE
 10
  4.2000
 20
  5.8000
 30
0.0
 0
VERTEX
 8
WIRE
 10
  4.5000
 20
  5.8000
 30
0.0
 0
SEQEND
 8
WIRE
 0
POLYLINE
 8
WIRE
 66
1
 10
0.0
 20
0.0
 30
0.0
 0
VERTEX
 8
WIRE
 10
  3.7000
 20
  5.8000
 30
0.0
 0
VERTEX
 8
WIRE
 10
  3.4000
 20
  5.8000
 30
0.0
 0
SEQEND
 8
WIRE
 0
POLYLINE
 8
WIRE
 66
1
 10
0.0
 20
0.0
 30
0.0
 0
VERTEX
 8
WIRE
 10
  3.3000
 20
  4.7000
 30
0.0
 0
VERTEX
 8
WIRE
 10
  3.7000
 20
  4.7000
 30
0.0
 0
SEQEND
 8
WIRE
 0
POLYLINE
 8
WIRE
 66
1
 70
1
 10
0.0
 20
0.0
 30
0.0
 40
  0.0200
 41
  0.0200
 0
VERTEX
 8
WIRE
 10
  3.6900
 20
  4.7000
 30
0.0
 42
1.0
 0
VERTEX
 8
WIRE
 10
  3.7100
 20
  4.7000
 30
0.0
 42
1.0
 0
SEQEND
 8
WIRE
 0
POLYLINE
 8
WIRE
 66
1
 10
0.0
 20
0.0
 30
0.0
 0
VERTEX
 8
WIRE
 10
  4.0000
 20
  4.5000
 30
0.0
 0
VERTEX
 8
WIRE
 10
  4.2000
 20
  4.5000
 30
0.0
 0
SEQEND
 8
WIRE
 0
POLYLINE
 8
WIRE
 66
1
 10
0.0
 20
0.0
 30
0.0
 0
VERTEX
 8
WIRE
 10
  4.0000
 20
  4.6000
 30
0.0
 0
VERTEX
 8
WIRE
 10
  4.2000
 20
  4.6000
 30
0.0
 0
SEQEND
 8
WIRE
 0
POLYLINE
 8
WIRE
 66
1
 10
0.0
 20
0.0
 30
0.0
 0
VERTEX
 8
WIRE
 10
  4.7000
 20
  5.9000
 30
0.0
 0
VERTEX
 8
WIRE
 10
  4.5000
 20
  5.9000
 30
0.0
 0
SEQEND
 8
WIRE
 0
POLYLINE
 8
WIRE
 66
1
 70
1
 10
0.0
 20
0.0
 30
0.0
 40
  0.0200
 41
  0.0200
 0
VERTEX
 8
WIRE
 10
  4.4900
 20
  5.9000
 30
0.0
 42
1.0
 0
VERTEX
 8
WIRE
 10
  4.5100
 20
  5.9000
 30
0.0
 42
1.0
 0
SEQEND
 8
WIRE
 0
POLYLINE
 8
WIRE
 66
1
 10
0.0
 20
0.0
 30
0.0
 0
VERTEX
 8
WIRE
 10
  4.5000
 20
  5.9000
 30
0.0
 0
VERTEX
 8
WIRE
 10
  4.5000
 20
  5.8000
 30
0.0
 0
SEQEND
 8
WIRE
 0
POLYLINE
 8
WIRE
 66
1
 10
0.0
 20
0.0
 30
0.0
 0
VERTEX
 8
WIRE
 10
  4.1000
 20
  4.8000
 30
0.0
 0
VERTEX
 8
WIRE
 10
  4.2000
 20
  4.8000
 30
0.0
 0
SEQEND
 8
WIRE
 0
POLYLINE
 8
WIRE
 66
1
 10
0.0
 20
0.0
 30
0.0
 0
VERTEX
 8
WIRE
 10
  3.7000
 20
  5.1000
 30
0.0
 0
VERTEX
 8
WIRE
 10
  4.1000
 20
  5.1000
 30
0.0
 0
SEQEND
 8
WIRE
 0
POLYLINE
 8
WIRE
 66
1
 10
0.0
 20
0.0
 30
0.0
 0
VERTEX
 8
WIRE
 10
  4.1000
 20
  5.1000
 30
0.0
 0
VERTEX
 8
WIRE
 10
  4.1000
 20
  4.8000
 30
0.0
 0
SEQEND
 8
WIRE
 0
POLYLINE
 8
WIRE
 66
1
 10
0.0
 20
0.0
 30
0.0
 0
VERTEX
 8
WIRE
 10
  3.7000
 20
  4.8000
 30
0.0
 0
VERTEX
 8
WIRE
 10
  3.7000
 20
  4.7000
 30
0.0
 0
SEQEND
 8
WIRE
 0
POLYLINE
 8
WIRE
 66
1
 10
0.0
 20
0.0
 30
0.0
 0
VERTEX
 8
WIRE
 10
  3.7000
 20
  4.7000
 30
0.0
 0
VERTEX
 8
WIRE
 10
  4.2000
 20
  4.7000
 30
0.0
 0
SEQEND
 8
WIRE
 0
POLYLINE
 8
WIRE
 66
1
 10
0.0
 20
0.0
 30
0.0
 0
VERTEX
 8
WIRE
 10
  4.1000
 20
  5.1000
 30
0.0
 0
VERTEX
 8
WIRE
 10
  4.1000
 20
  5.3000
 30
0.0
 0
SEQEND
 8
WIRE
 0
POLYLINE
 8
WIRE
 66
1
 70
1
 10
0.0
 20
0.0
 30
0.0
 40
  0.0200
 41
  0.0200
 0
VERTEX
 8
WIRE
 10
  4.0900
 20
  5.1000
 30
0.0
 42
1.0
 0
VERTEX
 8
WIRE
 10
  4.1100
 20
  5.1000
 30
0.0
 42
1.0
 0
SEQEND
 8
WIRE
 0
POLYLINE
 8
WIRE
 66
1
 10
0.0
 20
0.0
 30
0.0
 0
VERTEX
 8
WIRE
 10
  4.1000
 20
  5.3000
 30
0.0
 0
VERTEX
 8
WIRE
 10
  3.7000
 20
  5.3000
 30
0.0
 0
SEQEND
 8
WIRE
 0
POLYLINE
 8
WIRE
 66
1
 10
0.0
 20
0.0
 30
0.0
 0
VERTEX
 8
WIRE
 10
  6.4000
 20
  5.7000
 30
0.0
 0
VERTEX
 8
WIRE
 10
  6.0000
 20
  5.7000
 30
0.0
 0
SEQEND
 8
WIRE
 0
TEXT
 8
WIRETEXT
 10
  6.0000
 20
  5.7300
 30
0.0
 40
  0.0514
 1
I2C_SCL
 0
POLYLINE
 8
WIRE
 66
1
 10
0.0
 20
0.0
 30
0.0
 0
VERTEX
 8
WIRE
 10
  6.4000
 20
  5.0000
 30
0.0
 0
VERTEX
 8
WIRE
 10
  6.0000
 20
  5.0000
 30
0.0
 0
SEQEND
 8
WIRE
 0
TEXT
 8
WIRETEXT
 10
  6.0000
 20
  5.0300
 30
0.0
 40
  0.0514
 1
I2C_SDA
 0
POLYLINE
 8
PARTS
 66
1
 10
0.0
 20
0.0
 30
0.0
 0
VERTEX
 8
PARTS
 10
  3.3000
 20
  4.8000
 30
0.0
 0
VERTEX
 8
PARTS
 10
  3.3000
 20
  4.6000
 30
0.0
 0
SEQEND
 8
PARTS
 0
POLYLINE
 8
PARTS
 66
1
 10
0.0
 20
0.0
 30
0.0
 0
VERTEX
 8
PARTS
 10
  3.2700
 20
  4.7700
 30
0.0
 0
VERTEX
 8
PARTS
 10
  3.2700
 20
  4.6300
 30
0.0
 0
SEQEND
 8
PARTS
 0
POLYLINE
 8
PARTS
 66
1
 10
0.0
 20
0.0
 30
0.0
 0
VERTEX
 8
PARTS
 10
  3.2400
 20
  4.6600
 30
0.0
 0
VERTEX
 8
PARTS
 10
  3.2400
 20
  4.7400
 30
0.0
 0
SEQEND
 8
PARTS
 0
POLYLINE
 8
PARTS
 66
1
 10
0.0
 20
0.0
 30
0.0
 0
VERTEX
 8
PARTS
 10
  3.2100
 20
  4.7100
 30
0.0
 0
VERTEX
 8
PARTS
 10
  3.2100
 20
  4.6900
 30
0.0
 0
SEQEND
 8
PARTS
 0
TEXT
 8
PARTTEXT
 10
  4.8000
 20
  5.8786
 30
0.0
 40
  0.0514
 1
V3V3_SYS
 0
POLYLINE
 8
PARTS
 66
1
 10
0.0
 20
0.0
 30
0.0
 0
VERTEX
 8
PARTS
 10
  4.7000
 20
  5.9000
 30
0.0
 0
VERTEX
 8
PARTS
 10
  4.7500
 20
  5.9500
 30
0.0
 0
SEQEND
 8
PARTS
 0
POLYLINE
 8
PARTS
 66
1
 10
0.0
 20
0.0
 30
0.0
 0
VERTEX
 8
PARTS
 10
  4.7000
 20
  5.9000
 30
0.0
 0
VERTEX
 8
PARTS
 10
  4.7500
 20
  5.8500
 30
0.0
 0
SEQEND
 8
PARTS
 0
POLYLINE
 8
PARTS
 66
1
 10
0.0
 20
0.0
 30
0.0
 0
VERTEX
 8
PARTS
 10
  4.7500
 20
  5.9000
 30
0.0
 0
VERTEX
 8
PARTS
 10
  4.8000
 20
  5.8500
 30
0.0
 0
SEQEND
 8
PARTS
 0
POLYLINE
 8
PARTS
 66
1
 10
0.0
 20
0.0
 30
0.0
 0
VERTEX
 8
PARTS
 10
  4.7500
 20
  5.9000
 30
0.0
 0
VERTEX
 8
PARTS
 10
  4.8000
 20
  5.9500
 30
0.0
 0
SEQEND
 8
PARTS
 0
TEXT
 8
PARTTEXT
 10
  2.9200
 20
  5.9786
 30
0.0
 40
  0.0514
 1
I2C_SCL
 0
POLYLINE
 8
PARTS
 66
1
 10
0.0
 20
0.0
 30
0.0
 0
VERTEX
 8
PARTS
 10
  3.4000
 20
  6.0000
 30
0.0
 0
VERTEX
 8
PARTS
 10
  3.3500
 20
  5.9500
 30
0.0
 0
SEQEND
 8
PARTS
 0
POLYLINE
 8
PARTS
 66
1
 10
0.0
 20
0.0
 30
0.0
 0
VERTEX
 8
PARTS
 10
  3.4000
 20
  6.0000
 30
0.0
 0
VERTEX
 8
PARTS
 10
  3.3500
 20
  6.0500
 30
0.0
 0
SEQEND
 8
PARTS
 0
POLYLINE
 8
PARTS
 66
1
 10
0.0
 20
0.0
 30
0.0
 0
VERTEX
 8
PARTS
 10
  3.3500
 20
  6.0000
 30
0.0
 0
VERTEX
 8
PARTS
 10
  3.3000
 20
  6.0500
 30
0.0
 0
SEQEND
 8
PARTS
 0
POLYLINE
 8
PARTS
 66
1
 10
0.0
 20
0.0
 30
0.0
 0
VERTEX
 8
PARTS
 10
  3.3500
 20
  6.0000
 30
0.0
 0
VERTEX
 8
PARTS
 10
  3.3000
 20
  5.9500
 30
0.0
 0
SEQEND
 8
PARTS
 0
TEXT
 8
PARTTEXT
 10
  2.9100
 20
  5.7786
 30
0.0
 40
  0.0514
 1
I2C_SDA
 0
POLYLINE
 8
PARTS
 66
1
 10
0.0
 20
0.0
 30
0.0
 0
VERTEX
 8
PARTS
 10
  3.4000
 20
  5.8000
 30
0.0
 0
VERTEX
 8
PARTS
 10
  3.3500
 20
  5.7500
 30
0.0
 0
SEQEND
 8
PARTS
 0
POLYLINE
 8
PARTS
 66
1
 10
0.0
 20
0.0
 30
0.0
 0
VERTEX
 8
PARTS
 10
  3.4000
 20
  5.8000
 30
0.0
 0
VERTEX
 8
PARTS
 10
  3.3500
 20
  5.8500
 30
0.0
 0
SEQEND
 8
PARTS
 0
POLYLINE
 8
PARTS
 66
1
 10
0.0
 20
0.0
 30
0.0
 0
VERTEX
 8
PARTS
 10
  3.3500
 20
  5.8000
 30
0.0
 0
VERTEX
 8
PARTS
 10
  3.3000
 20
  5.8500
 30
0.0
 0
SEQEND
 8
PARTS
 0
POLYLINE
 8
PARTS
 66
1
 10
0.0
 20
0.0
 30
0.0
 0
VERTEX
 8
PARTS
 10
  3.3500
 20
  5.8000
 30
0.0
 0
VERTEX
 8
PARTS
 10
  3.3000
 20
  5.7500
 30
0.0
 0
SEQEND
 8
PARTS
 0
TEXT
 8
PARTTEXT
 10
  3.5100
 20
  4.4786
 30
0.0
 40
  0.0514
 1
I2C_SDA
 0
POLYLINE
 8
PARTS
 66
1
 10
0.0
 20
0.0
 30
0.0
 0
VERTEX
 8
PARTS
 10
  4.0000
 20
  4.5000
 30
0.0
 0
VERTEX
 8
PARTS
 10
  3.9500
 20
  4.4500
 30
0.0
 0
SEQEND
 8
PARTS
 0
POLYLINE
 8
PARTS
 66
1
 10
0.0
 20
0.0
 30
0.0
 0
VERTEX
 8
PARTS
 10
  4.0000
 20
  4.5000
 30
0.0
 0
VERTEX
 8
PARTS
 10
  3.9500
 20
  4.5500
 30
0.0
 0
SEQEND
 8
PARTS
 0
POLYLINE
 8
PARTS
 66
1
 10
0.0
 20
0.0
 30
0.0
 0
VERTEX
 8
PARTS
 10
  3.9500
 20
  4.5000
 30
0.0
 0
VERTEX
 8
PARTS
 10
  3.9000
 20
  4.5500
 30
0.0
 0
SEQEND
 8
PARTS
 0
POLYLINE
 8
PARTS
 66
1
 10
0.0
 20
0.0
 30
0.0
 0
VERTEX
 8
PARTS
 10
  3.9500
 20
  4.5000
 30
0.0
 0
VERTEX
 8
PARTS
 10
  3.9000
 20
  4.4500
 30
0.0
 0
SEQEND
 8
PARTS
 0
TEXT
 8
PARTTEXT
 10
  3.5200
 20
  4.5786
 30
0.0
 40
  0.0514
 1
I2C_SCL
 0
POLYLINE
 8
PARTS
 66
1
 10
0.0
 20
0.0
 30
0.0
 0
VERTEX
 8
PARTS
 10
  4.0000
 20
  4.6000
 30
0.0
 0
VERTEX
 8
PARTS
 10
  3.9500
 20
  4.5500
 30
0.0
 0
SEQEND
 8
PARTS
 0
POLYLINE
 8
PARTS
 66
1
 10
0.0
 20
0.0
 30
0.0
 0
VERTEX
 8
PARTS
 10
  4.0000
 20
  4.6000
 30
0.0
 0
VERTEX
 8
PARTS
 10
  3.9500
 20
  4.6500
 30
0.0
 0
SEQEND
 8
PARTS
 0
POLYLINE
 8
PARTS
 66
1
 10
0.0
 20
0.0
 30
0.0
 0
VERTEX
 8
PARTS
 10
  3.9500
 20
  4.6000
 30
0.0
 0
VERTEX
 8
PARTS
 10
  3.9000
 20
  4.6500
 30
0.0
 0
SEQEND
 8
PARTS
 0
POLYLINE
 8
PARTS
 66
1
 10
0.0
 20
0.0
 30
0.0
 0
VERTEX
 8
PARTS
 10
  3.9500
 20
  4.6000
 30
0.0
 0
VERTEX
 8
PARTS
 10
  3.9000
 20
  4.5500
 30
0.0
 0
SEQEND
 8
PARTS
 0
TEXT
 8
PARTTEXT
 10
  3.1400
 20
  5.2786
 30
0.0
 40
  0.0514
 1
V3V3_SYS
 0
POLYLINE
 8
PARTS
 66
1
 10
0.0
 20
0.0
 30
0.0
 0
VERTEX
 8
PARTS
 10
  3.7000
 20
  5.3000
 30
0.0
 0
VERTEX
 8
PARTS
 10
  3.6500
 20
  5.2500
 30
0.0
 0
SEQEND
 8
PARTS
 0
POLYLINE
 8
PARTS
 66
1
 10
0.0
 20
0.0
 30
0.0
 0
VERTEX
 8
PARTS
 10
  3.7000
 20
  5.3000
 30
0.0
 0
VERTEX
 8
PARTS
 10
  3.6500
 20
  5.3500
 30
0.0
 0
SEQEND
 8
PARTS
 0
POLYLINE
 8
PARTS
 66
1
 10
0.0
 20
0.0
 30
0.0
 0
VERTEX
 8
PARTS
 10
  3.6500
 20
  5.3000
 30
0.0
 0
VERTEX
 8
PARTS
 10
  3.6000
 20
  5.3500
 30
0.0
 0
SEQEND
 8
PARTS
 0
POLYLINE
 8
PARTS
 66
1
 10
0.0
 20
0.0
 30
0.0
 0
VERTEX
 8
PARTS
 10
  3.6500
 20
  5.3000
 30
0.0
 0
VERTEX
 8
PARTS
 10
  3.6000
 20
  5.2500
 30
0.0
 0
SEQEND
 8
PARTS
 0
ENDSEC
 0
EOF
