G04 ================== begin FILE IDENTIFICATION RECORD ==================*
G04 Layout Name:  D:/CTW_SEVINA/PCB/DE10_NANO/Version_11/BOARD/1.brd*
G04 Film Name:    BOTTOM*
G04 File Format:  Gerber RS274X*
G04 File Origin:  Cadence Allegro 22.1-P001*
G04 Origin Date:  Mon Mar 16 15:45:38 2026*
G04 *
G04 Layer:  ETCH/BOTTOM*
G04 Layer:  PIN/BOTTOM*
G04 Layer:  VIA CLASS/BOTTOM*
G04 *
G04 Offset:    (0.0000 0.0000)*
G04 Mirror:    No*
G04 Mode:      Positive*
G04 Rotation:  0*
G04 FullContactRelief:  No*
G04 UndefLineWidth:     0.1270*
G04 ================== end FILE IDENTIFICATION RECORD ====================*
%FSLAX25Y25*MOMM*%
%IR0*IPPOS*OFA0.00000B0.00000*MIA0B0*SFA1.00000B1.00000*%
%AMMACRO23*
4,1,44,.4445,-.3334,
.4445,.3334,
.442838,.35267,
.437855,.37136,
.429703,.3889,
.418628,.404757,
.404969,.418451,
.389138,.429565,
.371619,.437761,
.352942,.44279,
.333676,.4445,
.3334,.4445,
-.3334,.4445,
-.35267,.442838,
-.37136,.437855,
-.3889,.429703,
-.404757,.418628,
-.418451,.404969,
-.429565,.389138,
-.437761,.371619,
-.44279,.352942,
-.4445,.333676,
-.4445,.3334,
-.4445,-.3334,
-.442838,-.35267,
-.437855,-.37136,
-.429703,-.3889,
-.418628,-.404757,
-.404969,-.418451,
-.389138,-.429565,
-.371619,-.437761,
-.352942,-.44279,
-.333676,-.4445,
-.3334,-.4445,
.3334,-.4445,
.35267,-.442838,
.37136,-.437855,
.3889,-.429703,
.404757,-.418628,
.418451,-.404969,
.429565,-.389138,
.437761,-.371619,
.44279,-.352942,
.4445,-.333676,
.4445,-.3334,
0.0*
%
%ADD23MACRO23*%
%ADD13C,.3*%
%ADD11C,.8*%
%ADD15C,.985*%
%ADD16R,.985X.985*%
%AMMACRO22*
4,1,44,-.4445,.3334,
-.4445,-.3334,
-.442838,-.35267,
-.437855,-.37136,
-.429703,-.3889,
-.418628,-.404757,
-.404969,-.418451,
-.389138,-.429565,
-.371619,-.437761,
-.352942,-.44279,
-.333676,-.4445,
-.3334,-.4445,
.3334,-.4445,
.35267,-.442838,
.37136,-.437855,
.3889,-.429703,
.404757,-.418628,
.418451,-.404969,
.429565,-.389138,
.437761,-.371619,
.44279,-.352942,
.4445,-.333676,
.4445,-.3334,
.4445,.3334,
.442838,.35267,
.437855,.37136,
.429703,.3889,
.418628,.404757,
.404969,.418451,
.389138,.429565,
.371619,.437761,
.352942,.44279,
.333676,.4445,
.3334,.4445,
-.3334,.4445,
-.35267,.442838,
-.37136,.437855,
-.3889,.429703,
-.404757,.418628,
-.418451,.404969,
-.429565,.389138,
-.437761,.371619,
-.44279,.352942,
-.4445,.333676,
-.4445,.3334,
0.0*
%
%ADD22MACRO22*%
%ADD10C,3.21*%
%ADD20R,1.16X1.47*%
%ADD12C,1.6*%
%ADD18C,1.37*%
%ADD14C,1.168*%
%ADD21R,1.016X1.1938*%
%ADD19R,1.37X1.37*%
%ADD17R,1.168X1.168*%
%ADD24C,.2*%
%ADD25C,.4*%
%ADD26C,.6*%
%ADD27C,.254*%
%ADD28C,1.*%
%ADD35C,.5544*%
%ADD31C,4.0004*%
%ADD36C,1.4224*%
%ADD29C,1.8004*%
%ADD34C,1.6244*%
%ADD33C,1.5704*%
%ADD32C,1.2394*%
%ADD37C,1.3684*%
%ADD30C,1.8544*%
G75*
%LPD*%
G75*
G36*
G01X-318000Y6540000D02*
X10362000D01*
Y-319000D01*
X-318000D01*
Y6540000D01*
G37*
%LPC*%
G75*
G36*
G01X710980Y385290D02*
Y414160D01*
G02X680980Y460000I20022J45840D01*
G02X781020I50020J0D01*
G02X751020Y414160I-50022J0D01*
G01Y376990D01*
G02X745160Y362840I-20023J4D01*
G01X725160Y342840D01*
G02X711010Y336980I-14154J14163D01*
G01X633560D01*
G03X627860Y318410I-2J-10159D01*
G02X645640Y297020I-28060J-41409D01*
G01X782150D01*
G02X796300Y291160I-4J-20023D01*
G01X811160Y276300D01*
G02X816640Y266030I-14162J-14154D01*
G01X816940Y264510D01*
X840430Y241020D01*
X873570D01*
G02X887860Y247020I14290J-14017D01*
G01X890010D01*
G02X904160Y241160I-4J-20023D01*
G01X1265530Y-120220D01*
G03X1282860Y-112370I7191J7180D01*
G02X1282730Y-108500I59138J3924D01*
G02X1401270I59270J0D01*
G02X1390990Y-141850I-59267J9D01*
G03X1399390Y-157730I8400J-5718D01*
G01X1518460D01*
X1542320Y-133870D01*
X1541060Y-130750D01*
G02X1536730Y-108520I54952J22240D01*
G01Y-108500D01*
G02X1596000Y-167770I59270J0D01*
G01X1595980D01*
G02X1573750Y-163440I10J59282D01*
G01X1570630Y-162180D01*
X1540910Y-191910D01*
G02X1526760Y-197770I-14154J14163D01*
G01X1294740D01*
G02X1280590Y-191910I4J20023D01*
G01X887710Y200980D01*
X832130D01*
G02X817980Y206840I4J20023D01*
G01X782840Y241980D01*
G02X777360Y252250I14162J14154D01*
G01X777060Y253770D01*
X773850Y256980D01*
X645640D01*
G02X599800Y226980I-45840J20022D01*
G02X549780Y277000I0J50020D01*
G02X571740Y318410I50023J0D01*
G03X566040Y336980I-5698J8411D01*
G01X413290D01*
X396450Y320140D01*
X378020Y301700D01*
Y143840D01*
G02X408020Y98000I-20022J-45840D01*
G02X307980I-50020J0D01*
G02X337980Y143840I50022J0D01*
G01Y310010D01*
G02X343840Y324160I20023J-4D01*
G01X390840Y371160D01*
G02X404990Y377020I14154J-14163D01*
G01X702710D01*
X710980Y385290D01*
G37*
G36*
G01X1706980Y5867210D02*
X1431170Y6143010D01*
X1427950Y6141510D01*
G02X1399000Y6135080I-28957J61988D01*
G02X1467420Y6203500I0J68420D01*
G02X1460990Y6174550I-68418J7D01*
G01X1459490Y6171330D01*
X1741160Y5889660D01*
G02X1747020Y5875500I-14163J-14154D01*
G01Y5194630D01*
X1753010Y5188640D01*
X1755970Y5189600D01*
G02X1771340Y5192020I15370J-47599D01*
G02X1721320Y5142000I0J-50020D01*
G02X1723740Y5157370I50019J0D01*
G01X1724700Y5160330D01*
X1712840Y5172180D01*
G02X1706980Y5186340I14163J14154D01*
G01Y5867210D01*
G37*
G36*
G01X3223280Y2048500D02*
Y2195500D01*
G02X3236000Y2208220I12720J0D01*
G01X3352000D01*
G02X3364720Y2195500I0J-12720D01*
G01Y2048500D01*
G02X3352000Y2035780I-12720J0D01*
G01X3236000D01*
G02X3223280Y2048500I0J12720D01*
G37*
G36*
G01X3994140Y1144020D02*
X4140480Y1290360D01*
Y1468500D01*
G02X4260520I60020J0D01*
G01Y1265500D01*
G02X4242940Y1223060I-60017J0D01*
G01X4061440Y1041560D01*
G02X4019000Y1023980I-42440J42437D01*
G01X3403380D01*
X3402760Y1023820D01*
G02X3388000Y1021980I-14748J58182D01*
G02X3350580Y1035070I0J60031D01*
G01X3081090D01*
G02X3052790Y1046790I0J40028D01*
G01X2992790Y1106790D01*
G02X2981070Y1135090I28308J28300D01*
G01Y1266900D01*
G02X2971070Y1296910I40030J30010D01*
G02X3071110I50020J0D01*
G02X3061110Y1266900I-50030J0D01*
G01Y1151670D01*
X3097670Y1115110D01*
X3337940D01*
G02X3345560Y1124440I50061J-33109D01*
G01X3347560Y1126440D01*
G02X3390000Y1144020I42440J-42437D01*
G01X3994140D01*
G37*
G36*
G01X3050980Y2841500D02*
Y2988500D01*
G02X3061000Y2998520I10020J0D01*
G01X3177000D01*
G02X3187020Y2988500I0J-10020D01*
G01Y2841500D01*
G02X3181710Y2832660I-10013J0D01*
G01X3179020Y2831220D01*
Y2741780D01*
X3181710Y2740340D01*
G02X3187020Y2731500I-4703J-8840D01*
G01Y2584500D01*
G02X3177000Y2574480I-10020J0D01*
G01X3061000D01*
G02X3051130Y2582770I0J10021D01*
G01X3050390Y2586980D01*
X2973000D01*
G02Y2707020I0J60020D01*
G01X3050980D01*
Y2731500D01*
G02X3056290Y2740340I10013J0D01*
G01X3058980Y2741780D01*
Y2831220D01*
X3056290Y2832660D01*
G02X3050980Y2841500I4703J8840D01*
G37*
G36*
G01X3223280Y2282500D02*
Y2429500D01*
G02X3236000Y2442220I12720J0D01*
G01X3352000D01*
G02X3364720Y2429500I0J-12720D01*
G01Y2282500D01*
G02X3352000Y2269780I-12720J0D01*
G01X3236000D01*
G02X3223280Y2282500I0J12720D01*
G37*
G36*
G01X6096240Y410610D02*
X6098460Y787270D01*
X6094730Y788310D01*
G02X6028980Y875000I24274J86690D01*
G02X6209020I90020J0D01*
G02X6142250Y788030I-90026J0D01*
G01X6138500Y787030D01*
X6136290Y411260D01*
X6139140Y409850D01*
G02X6167020Y365000I-22135J-44850D01*
G02X6117000Y314980I-50020J0D01*
G02X6101630Y317400I0J50019D01*
G01X6098670Y318360D01*
X5955020Y174710D01*
Y-45000D01*
G02X5949160Y-59160I-20023J-6D01*
G01X5882910Y-125400D01*
X5884630Y-128710D01*
G02X5893520Y-165000I-69625J-36290D01*
G02X5815000Y-86480I-78520J0D01*
G02X5851290Y-95370I0J-78515D01*
G01X5854600Y-97090D01*
X5914980Y-36710D01*
Y183000D01*
G02X5920840Y197160I20023J6D01*
G01X6070360Y346670D01*
X6069400Y349630D01*
G02X6066980Y365000I47599J15370D01*
G02X6093560Y409190I50024J0D01*
G01X6096240Y410610D01*
G37*
G36*
G01X5586730Y2715870D02*
G02X5607830Y2736970I21116J-16D01*
G01X5674570D01*
G02X5695670Y2715870I-16J-21116D01*
G01Y2702520D01*
X6600500D01*
G02X6614660Y2696660I6J-20023D01*
G01X6634660Y2676660D01*
G02X6640520Y2662500I-14163J-14154D01*
G01Y1295500D01*
G02X6634660Y1281340I-20023J-6D01*
G01X6548160Y1194840D01*
G02X6534000Y1188980I-14154J14163D01*
G01X6499840D01*
G02X6454000Y1158980I-45840J20022D01*
G02X6403980Y1209000I0J50020D01*
G02X6410550Y1233790I50022J8D01*
G03X6401730Y1248980I-8824J5032D01*
G01X6346290D01*
X6329640Y1232330D01*
X6330600Y1229370D01*
G02X6333020Y1214000I-47599J-15370D01*
G02X6283000Y1264020I-50020J0D01*
G02X6298370Y1261600I0J-50019D01*
G01X6301330Y1260640D01*
X6311320Y1270640D01*
G03X6304140Y1287980I-7183J7182D01*
G01X5590290D01*
X5578020Y1275710D01*
Y963850D01*
X5581760Y962830D01*
G02X5648020Y876000I-23763J-86830D01*
G02X5467980I-90020J0D01*
G02X5534240Y962830I90023J0D01*
G01X5537980Y963850D01*
Y1284000D01*
G02X5543840Y1298160I20023J6D01*
G01X5567840Y1322160D01*
G02X5582000Y1328020I14154J-14163D01*
G01X5931460D01*
G03X5937630Y1346250I2J10158D01*
G02X5917980Y1386000I30380J39750D01*
G02X5968000Y1436020I50020J0D01*
G02X6013840Y1406020I0J-50022D01*
G01X6368210D01*
X6376480Y1414290D01*
Y2195210D01*
X6368210Y2203480D01*
X5703670D01*
Y2190130D01*
G02X5682570Y2169030I-21116J16D01*
G01X5615830D01*
G02X5594730Y2190130I16J21116D01*
G01Y2256870D01*
G02X5615830Y2277970I21116J-16D01*
G01X5682570D01*
G02X5703670Y2256870I-16J-21116D01*
G01Y2243520D01*
X6376500D01*
G02X6390660Y2237660I6J-20023D01*
G01X6410660Y2217660D01*
G02X6416520Y2203500I-14163J-14154D01*
G01Y1406000D01*
G02X6410660Y1391840I-20023J-6D01*
G01X6390660Y1371840D01*
G02X6376500Y1365980I-14154J14163D01*
G01X6013840D01*
G02X5998370Y1346250I-45843J20015D01*
G03X6004540Y1328020I6168J-8072D01*
G01X6435210D01*
X6462480Y1355290D01*
Y2354210D01*
X6454210Y2362480D01*
X5719910D01*
Y2322810D01*
G02X5709890Y2312790I-10020J0D01*
G01X5608290D01*
G02X5598860Y2319430I0J10016D01*
G01X5597650Y2322790D01*
X5550350D01*
X5549140Y2319430D01*
G02X5539710Y2312790I-9430J3376D01*
G01X5438110D01*
G02X5428090Y2322810I0J10020D01*
G01Y2362480D01*
X5377340D01*
G02X5331500Y2332480I-45840J20022D01*
G02Y2432520I0J50020D01*
G02X5377340Y2402520I0J-50022D01*
G01X5428090D01*
Y2442190D01*
G02X5438110Y2452210I10020J0D01*
G01X5539710D01*
G02X5549140Y2445570I0J-10016D01*
G01X5550350Y2442210D01*
X5597650D01*
X5598860Y2445570D01*
G02X5608290Y2452210I9430J-3376D01*
G01X5709890D01*
G02X5719910Y2442190I0J-10020D01*
G01Y2402520D01*
X6462500D01*
G02X6476660Y2396660I6J-20023D01*
G01X6496660Y2376660D01*
G02X6502520Y2362500I-14163J-14154D01*
G01Y1347000D01*
G02X6496660Y1332840I-20023J-6D01*
G01X6470180Y1306360D01*
G03X6482760Y1290580I7180J-7180D01*
G01X6520480Y1328290D01*
Y2533210D01*
X6512210Y2541480D01*
X5694670D01*
Y2528130D01*
G02X5673570Y2507030I-21116J16D01*
G01X5606830D01*
G02X5585730Y2528130I16J21116D01*
G01Y2594870D01*
G02X5606830Y2615970I21116J-16D01*
G01X5673570D01*
G02X5694670Y2594870I-16J-21116D01*
G01Y2581520D01*
X6520500D01*
G02X6534660Y2575660I6J-20023D01*
G01X6554660Y2555660D01*
G02X6560520Y2541500I-14163J-14154D01*
G01Y1320000D01*
G02X6554660Y1305840I-20023J-6D01*
G01X6503660Y1254840D01*
G02X6499110Y1251430I-14162J14156D01*
G03X6495540Y1236860I4869J-8915D01*
G02X6499840Y1229020I-41530J-27877D01*
G01X6525710D01*
X6600480Y1303790D01*
Y2654210D01*
X6592210Y2662480D01*
X5695670D01*
Y2649130D01*
G02X5674570Y2628030I-21116J16D01*
G01X5607830D01*
G02X5586730Y2649130I16J21116D01*
G01Y2715870D01*
G37*
G36*
G01X4368680Y2609350D02*
G02X4411500Y2633520I42820J-25845D01*
G02X4455240Y2607770I0J-50024D01*
G03X4473390Y2608530I8885J4928D01*
G02X4519000Y2638020I45610J-20526D01*
G02X4569020Y2588000I0J-50020D01*
G02X4539020Y2542160I-50022J0D01*
G01Y1928290D01*
X4547290Y1920020D01*
X5885000D01*
G02X5899160Y1914160I6J-20023D01*
G01X6103670Y1709640D01*
X6106630Y1710600D01*
G02X6122000Y1713020I15370J-47599D01*
G02X6071980Y1663000I0J-50020D01*
G02X6074400Y1678370I50019J0D01*
G01X6075360Y1681330D01*
X5876710Y1879980D01*
X4539000D01*
G02X4524840Y1885840I-6J20023D01*
G01X4504840Y1905840D01*
G02X4498980Y1920000I14163J14154D01*
G01Y2542160D01*
G02X4475260Y2563730I20018J45841D01*
G03X4457110Y2562970I-8885J-4928D01*
G02X4431520Y2537660I-45614J20527D01*
G01Y1877790D01*
X4515290Y1794020D01*
X4858160D01*
G02X4904000Y1824020I45840J-20022D01*
G02Y1723980I0J-50020D01*
G02X4858160Y1753980I0J50022D01*
G01X4507000D01*
G02X4492840Y1759840I-6J20023D01*
G01X4397340Y1855340D01*
G02X4391480Y1869500I14163J14154D01*
G01Y2537660D01*
G02X4366630Y2561390I20019J45840D01*
G03X4348820Y2562150I-9113J-4492D01*
G02X4326020Y2542160I-42824J25847D01*
G01Y1800290D01*
X4448290Y1678020D01*
X5189000D01*
G02X5203160Y1672160I6J-20023D01*
G01X5231160Y1644160D01*
G02X5237020Y1630000I-14163J-14154D01*
G01Y961850D01*
X5240760Y960830D01*
G02X5307020Y874000I-23763J-86830D01*
G02X5126980I-90020J0D01*
G02X5193240Y960830I90023J0D01*
G01X5196980Y961850D01*
Y1621710D01*
X5180710Y1637980D01*
X4440000D01*
G02X4425840Y1643840I-6J20023D01*
G01X4291840Y1777840D01*
G02X4285980Y1792000I14163J14154D01*
G01Y2542160D01*
G02X4255980Y2588000I20022J45840D01*
G02X4306000Y2638020I50020J0D01*
G02X4350870Y2610110I0J-50023D01*
G03X4368680Y2609350I9113J4492D01*
G37*
G36*
G01X1926480Y6065500D02*
Y6202500D01*
G02X1936500Y6212520I10020J0D01*
G01X2073500D01*
G02X2083520Y6202500I0J-10020D01*
G01Y6065500D01*
G02X2073500Y6055480I-10020J0D01*
G01X1936500D01*
G02X1926480Y6065500I0J10020D01*
G37*
G36*
G01X6752480Y20500D02*
Y157500D01*
G02X6762500Y167520I10020J0D01*
G01X6899500D01*
G02X6909520Y157500I0J-10020D01*
G01Y20500D01*
G02X6899500Y10480I-10020J0D01*
G01X6762500D01*
G02X6752480Y20500I0J10020D01*
G37*
G36*
G01X774730Y-157750D02*
Y-59250D01*
G02X784750Y-49230I10020J0D01*
G01X883250D01*
G02X893270Y-59250I0J-10020D01*
G01Y-157750D01*
G02X883250Y-167770I-10020J0D01*
G01X784750D01*
G02X774730Y-157750I0J10020D01*
G37*
G36*
G01X5463430Y2277970D02*
X5530170D01*
G02X5551270Y2256870I-16J-21116D01*
G01Y2190130D01*
G02X5530170Y2169030I-21116J16D01*
G01X5463430D01*
G02X5442330Y2190130I16J21116D01*
G01Y2203480D01*
X5375840D01*
G02X5330000Y2173480I-45840J20022D01*
G02Y2273520I0J50020D01*
G02X5375840Y2243520I0J-50022D01*
G01X5442330D01*
Y2256870D01*
G02X5463430Y2277970I21116J-16D01*
G37*
G36*
G01X5454430Y2615970D02*
X5521170D01*
G02X5542270Y2594870I-16J-21116D01*
G01Y2528130D01*
G02X5521170Y2507030I-21116J16D01*
G01X5454430D01*
G02X5433330Y2528130I16J21116D01*
G01Y2541480D01*
X5372340D01*
G02X5326500Y2511480I-45840J20022D01*
G02Y2611520I0J50020D01*
G02X5372340Y2581520I0J-50022D01*
G01X5433330D01*
Y2594870D01*
G02X5454430Y2615970I21116J-16D01*
G37*
G36*
G01X5455430Y2736970D02*
X5522170D01*
G02X5543270Y2715870I-16J-21116D01*
G01Y2649130D01*
G02X5522170Y2628030I-21116J16D01*
G01X5455430D01*
G02X5434330Y2649130I16J21116D01*
G01Y2662480D01*
X5375840D01*
G02X5330000Y2632480I-45840J20022D01*
G02Y2732520I0J50020D01*
G02X5375840Y2702520I0J-50022D01*
G01X5434330D01*
Y2715870D01*
G02X5455430Y2736970I21116J-16D01*
G37*
G36*
G01X-149300Y5727800D02*
X315420Y6192520D01*
X315110Y6194980D01*
G02X314580Y6203460I67891J8500D01*
G01Y6203500D01*
G02X383000Y6135080I68420J0D01*
G01X382960D01*
G02X374480Y6135610I20J68421D01*
G01X372020Y6135920D01*
X-80980Y5682920D01*
Y4781010D01*
G02X-70980Y4751000I-40030J-30010D01*
G02X-171020I-50020J0D01*
G02X-161020Y4781010I50030J0D01*
G01Y5699500D01*
G02X-149300Y5727800I40028J0D01*
G37*
G36*
G01X2148970Y6257940D02*
X1735750D01*
X1721420Y6243610D01*
Y6145100D01*
G02X1711400Y6135080I-10020J0D01*
G01X1594600D01*
G02X1584580Y6145100I0J10020D01*
G01Y6261900D01*
G02X1594600Y6271920I10020J0D01*
G01X1693110D01*
X1713300Y6292120D01*
G02X1727450Y6297980I14154J-14163D01*
G01X2140670D01*
X2191090Y6348400D01*
X2189370Y6351710D01*
G02X2180480Y6388000I69625J36290D01*
G02X2259000Y6309480I78520J0D01*
G02X2222710Y6318370I0J78515D01*
G01X2219400Y6320090D01*
X2163120Y6263800D01*
G02X2148970Y6257940I-14154J14163D01*
G37*
G36*
G01X5462430Y3521970D02*
X5529170D01*
G02X5550270Y3500870I-16J-21116D01*
G01Y3434130D01*
G02X5543690Y3418830I-21116J16D01*
G03X5543040Y3404770I6993J-7368D01*
G02X5548270Y3390870I-15887J-13912D01*
G01Y3324130D01*
G02X5540090Y3307460I-21115J19D01*
G03X5538140Y3293390I6225J-8033D01*
G02X5542270Y3280870I-16985J-12544D01*
G01Y3214130D01*
G02X5534270Y3197600I-21116J18D01*
G03X5533620Y3182240I6312J-7961D01*
G02X5540270Y3166870I-14467J-15383D01*
G01Y3100130D01*
G02X5532570Y3083840I-21116J16D01*
G03Y3068160I6462J-7840D01*
G02X5540270Y3051870I-13416J-16306D01*
G01Y2985130D01*
G02X5519170Y2964030I-21116J16D01*
G01X5452430D01*
G02X5431330Y2985130I16J21116D01*
G01Y2998480D01*
X5375840D01*
G02X5330000Y2968480I-45840J20022D01*
G02Y3068520I0J50020D01*
G02X5375840Y3038520I0J-50022D01*
G01X5431330D01*
Y3051870D01*
G02X5439030Y3068160I21116J-16D01*
G03Y3083840I-6462J7840D01*
G02X5431330Y3100130I13416J16306D01*
G01Y3113480D01*
X5375840D01*
G02X5330000Y3083480I-45840J20022D01*
G02Y3183520I0J50020D01*
G02X5375840Y3153520I0J-50022D01*
G01X5431330D01*
Y3166870D01*
G02X5439330Y3183400I21116J-18D01*
G03X5439980Y3198760I-6312J7961D01*
G02X5433330Y3214130I14467J15383D01*
G01Y3227480D01*
X5375840D01*
G02X5330000Y3197480I-45840J20022D01*
G02X5279980Y3247500I0J50020D01*
G02X5309700Y3293210I50011J0D01*
G03Y3311790I-4125J9290D01*
G02Y3403210I20291J45710D01*
G03Y3421790I-4125J9290D01*
G02X5279980Y3467500I20291J45710D01*
G02X5330000Y3517520I50020J0D01*
G02X5375840Y3487520I0J-50022D01*
G01X5441330D01*
Y3500870D01*
G02X5462430Y3521970I21116J-16D01*
G37*
G36*
G01X2911000Y293980D02*
G02X2889770Y302770I0J30033D01*
G01X2670570Y521980D01*
X2263430D01*
X2232260Y490800D01*
X2196980Y455520D01*
X2196790Y453740D01*
G02X2191620Y437920I-39793J4250D01*
G03X2201520Y422720I8784J-5103D01*
G02X2206980Y423020I5470J-49721D01*
G01X2207010D01*
G02X2222380Y420600I0J-50021D01*
G01X2225340Y419650D01*
X2292840Y487160D01*
G02X2306990Y493020I14154J-14163D01*
G01X2637010D01*
G02X2651160Y487160I-4J-20023D01*
G01X2981400Y156910D01*
X2984710Y158630D01*
G02X3021000Y167520I36290J-69625D01*
G02X3099520Y89000I0J-78520D01*
G02X3023210Y10510I-78521J0D01*
G03X3016310Y-6830I284J-10156D01*
G01X3035160Y-25670D01*
G02X3041020Y-39820I-14163J-14154D01*
G01Y-88980D01*
X3044570Y-90100D01*
G02X3099520Y-165000I-23571J-74900D01*
G02X2942480I-78520J0D01*
G02X2997430Y-90100I78521J0D01*
G01X3000980Y-88980D01*
Y-48120D01*
X2862660Y90200D01*
G03X2845340Y83700I-7183J-7187D01*
G02X2767000Y10480I-78340J5299D01*
G02X2688480Y89000I0J78520D01*
G02X2761700Y167340I78519J0D01*
G03X2768200Y184660I-687J10137D01*
G01X2596880Y355980D01*
X2409840D01*
G02X2364000Y325980I-45840J20022D01*
G02Y426020I0J50020D01*
G02X2409840Y396020I0J-50022D01*
G01X2605180D01*
G02X2619330Y390160I-4J-20023D01*
G01X2925170Y84310D01*
G03X2942510Y91210I7184J7184D01*
G02X2951370Y125290I78489J-2214D01*
G01X2953090Y128600D01*
X2628710Y452980D01*
X2315290D01*
X2253650Y391340D01*
X2254600Y388380D01*
G02X2257020Y373020I-47601J-15370D01*
G01Y373000D01*
G02X2156980I-50020J0D01*
G02X2175060Y411490I50010J0D01*
G01X2175930Y412210D01*
X2177930Y416470D01*
X2173060Y421340D01*
G02X2161250Y418210I-16037J36665D01*
G01X2159470Y418020D01*
X1863730Y122270D01*
G02X1842500Y113480I-21230J21243D01*
G01X1755510D01*
G02X1715500Y93480I-40010J30020D01*
G02Y193520I0J50020D01*
G02X1755510Y173520I0J-50020D01*
G01X1830070D01*
X2057180Y400640D01*
G03X2050000Y417980I-7185J7182D01*
G01X1781010D01*
G02X1751000Y407980I-30010J40030D01*
G02Y508020I0J50020D01*
G02X1781010Y498020I0J-50030D01*
G01X2154570D01*
X2208580Y552030D01*
X2229770Y573230D01*
G02X2251000Y582020I21230J-21243D01*
G01X2683000D01*
G02X2704230Y573230I0J-30033D01*
G01X2923430Y354020D01*
X3299070D01*
X3413980Y468940D01*
Y650570D01*
X3393910Y670630D01*
X3371200Y693340D01*
X3368820Y693110D01*
G02X3364130Y692890I-4686J49802D01*
G01X3364090D01*
G02X3414110Y742910I0J50020D01*
G01Y742870D01*
G02X3413890Y738180I-50022J-4D01*
G01X3413660Y735800D01*
X3465230Y684230D01*
G02X3474020Y663000I-21243J-21230D01*
G01Y644520D01*
X3621490D01*
G02X3661500Y664520I40010J-30020D01*
G02Y564480I0J-50020D01*
G02X3621490Y584480I0J50020D01*
G01X3474020D01*
Y456500D01*
G02X3465230Y435270I-30033J0D01*
G01X3332730Y302770D01*
G02X3311500Y293980I-21230J21243D01*
G01X2911000D01*
G37*
G36*
G01X4160980Y1650000D02*
Y2539160D01*
G02X4130980Y2585000I20022J45840D01*
G02X4231020I50020J0D01*
G02X4201020Y2539160I-50022J0D01*
G01Y1658290D01*
X4253290Y1606020D01*
X4531000D01*
G02X4545160Y1600160I6J-20023D01*
G01X4565160Y1580160D01*
G02X4571020Y1566000I-14163J-14154D01*
G01Y978910D01*
X4571160Y972250D01*
X4574920Y971310D01*
G02X4643020Y884000I-21919J-87310D01*
G02X4462980I-90020J0D01*
G02X4527410Y970310I90025J0D01*
G01X4531130Y971410D01*
X4530980Y978280D01*
Y1557710D01*
X4522710Y1565980D01*
X4245000D01*
G02X4230840Y1571840I-6J20023D01*
G01X4166840Y1635840D01*
G02X4160980Y1650000I14163J14154D01*
G37*
G36*
G01X5538350Y2915210D02*
X5585650D01*
X5586860Y2918570D01*
G02X5596290Y2925210I9430J-3376D01*
G01X5697890D01*
G02X5707910Y2915190I0J-10020D01*
G01Y2875520D01*
X6647500D01*
G02X6661660Y2869660I6J-20023D01*
G01X6707160Y2824160D01*
G02X6713020Y2810000I-14163J-14154D01*
G01Y1234000D01*
G02X6707160Y1219840I-20023J-6D01*
G01X6600160Y1112840D01*
G02X6586000Y1106980I-14154J14163D01*
G01X5906290D01*
X5829020Y1029710D01*
Y971850D01*
X5832760Y970830D01*
G02X5899020Y884000I-23763J-86830D01*
G02X5718980I-90020J0D01*
G02X5785240Y970830I90023J0D01*
G01X5788980Y971850D01*
Y1038000D01*
G02X5794840Y1052160I20023J6D01*
G01X5883840Y1141160D01*
G02X5898000Y1147020I14154J-14163D01*
G01X6577710D01*
X6672980Y1242290D01*
Y2801710D01*
X6639210Y2835480D01*
X5707910D01*
Y2795810D01*
G02X5697890Y2785790I-10020J0D01*
G01X5596290D01*
G02X5586860Y2792430I0J10016D01*
G01X5585650Y2795790D01*
X5538350D01*
X5537140Y2792430D01*
G02X5527710Y2785790I-9430J3376D01*
G01X5426110D01*
G02X5416090Y2795810I0J10020D01*
G01Y2835480D01*
X5375840D01*
G02X5330000Y2805480I-45840J20022D01*
G02Y2905520I0J50020D01*
G02X5375840Y2875520I0J-50022D01*
G01X5416090D01*
Y2915190D01*
G02X5426110Y2925210I10020J0D01*
G01X5527710D01*
G02X5537140Y2918570I0J-10016D01*
G01X5538350Y2915210D01*
G37*
G36*
G01X5593730Y3500870D02*
G02X5614830Y3521970I21116J-16D01*
G01X5681570D01*
G02X5702670Y3500870I-16J-21116D01*
G01Y3487520D01*
X7160500D01*
G02X7174660Y3481660I6J-20023D01*
G01X7384160Y3272160D01*
G02X7390020Y3258000I-14163J-14154D01*
G01Y747000D01*
G02X7384160Y732840I-20023J-6D01*
G01X7170160Y518840D01*
G02X7156000Y512980I-14154J14163D01*
G01X6612290D01*
X6597020Y497710D01*
Y165020D01*
X6600570Y163900D01*
G02X6655520Y89000I-23571J-74900D01*
G02X6498480I-78520J0D01*
G02X6553430Y163900I78521J0D01*
G01X6556980Y165020D01*
Y506000D01*
G02X6562840Y520160I20023J6D01*
G01X6589840Y547160D01*
G02X6604000Y553020I14154J-14163D01*
G01X7147710D01*
X7349980Y755290D01*
Y3249710D01*
X7152210Y3447480D01*
X5702670D01*
Y3434130D01*
G02X5696090Y3418830I-21116J16D01*
G03X5695440Y3404770I6993J-7368D01*
G02X5700670Y3390870I-15887J-13912D01*
G01Y3377520D01*
X7065500D01*
G02X7079660Y3371660I6J-20023D01*
G01X7205160Y3246160D01*
G02X7211020Y3232000I-14163J-14154D01*
G01Y749840D01*
G02X7241020Y704000I-20022J-45840D01*
G02X7140980I-50020J0D01*
G02X7170980Y749840I50022J0D01*
G01Y3223710D01*
X7057210Y3337480D01*
X5700670D01*
Y3324130D01*
G02X5692490Y3307460I-21115J19D01*
G03X5690540Y3293390I6225J-8033D01*
G02X5694670Y3280870I-16985J-12544D01*
G01Y3267520D01*
X7029500D01*
G02X7043660Y3261660I6J-20023D01*
G01X7083160Y3222160D01*
G02X7089020Y3208000I-14163J-14154D01*
G01Y746840D01*
G02X7119020Y701000I-20022J-45840D01*
G02X7018980I-50020J0D01*
G02X7048980Y746840I50022J0D01*
G01Y3199710D01*
X7021210Y3227480D01*
X5694670D01*
Y3214130D01*
G02X5686670Y3197600I-21116J18D01*
G03X5686020Y3182240I6312J-7961D01*
G02X5692670Y3166870I-14467J-15383D01*
G01Y3153520D01*
X6791500D01*
G02X6805660Y3147660I6J-20023D01*
G01X6847160Y3106160D01*
G02X6853020Y3092000I-14163J-14154D01*
G01Y980850D01*
X6856760Y979830D01*
G02Y806170I-23763J-86830D01*
G01X6853020Y805150D01*
Y752840D01*
G02X6883020Y707000I-20022J-45840D01*
G02X6782980I-50020J0D01*
G02X6812980Y752840I50022J0D01*
G01Y805150D01*
X6809240Y806170D01*
G02Y979830I23763J86830D01*
G01X6812980Y980850D01*
Y3083710D01*
X6783210Y3113480D01*
X5692670D01*
Y3100130D01*
G02X5684970Y3083840I-21116J16D01*
G03Y3068160I6462J-7840D01*
G02X5692670Y3051870I-13416J-16306D01*
G01Y3038520D01*
X6694500D01*
G02X6708660Y3032660I6J-20023D01*
G01X6767160Y2974160D01*
G02X6773020Y2960000I-14163J-14154D01*
G01Y1170000D01*
G02X6767160Y1155840I-20023J-6D01*
G01X6660160Y1048840D01*
G02X6646000Y1042980I-14154J14163D01*
G01X6367290D01*
X6343020Y1018710D01*
Y165020D01*
X6346570Y163900D01*
G02X6401520Y89000I-23571J-74900D01*
G02X6244480I-78520J0D01*
G02X6299430Y163900I78521J0D01*
G01X6302980Y165020D01*
Y1027000D01*
G02X6308840Y1041160I20023J6D01*
G01X6344840Y1077160D01*
G02X6359000Y1083020I14154J-14163D01*
G01X6637710D01*
X6732980Y1178290D01*
Y2951710D01*
X6686210Y2998480D01*
X5692670D01*
Y2985130D01*
G02X5671570Y2964030I-21116J16D01*
G01X5604830D01*
G02X5583730Y2985130I16J21116D01*
G01Y3051870D01*
G02X5591430Y3068160I21116J-16D01*
G03Y3083840I-6462J7840D01*
G02X5583730Y3100130I13416J16306D01*
G01Y3166870D01*
G02X5591730Y3183400I21116J-18D01*
G03X5592380Y3198760I-6312J7961D01*
G02X5585730Y3214130I14467J15383D01*
G01Y3280870D01*
G02X5593910Y3297540I21115J-19D01*
G03X5595860Y3311610I-6225J8033D01*
G02X5591730Y3324130I16985J12544D01*
G01Y3390870D01*
G02X5598310Y3406170I21116J-16D01*
G03X5598960Y3420230I-6993J7368D01*
G02X5593730Y3434130I15887J13912D01*
G01Y3500870D01*
G37*
G36*
G01X3223280Y3086500D02*
Y3233500D01*
G02X3236000Y3246220I12720J0D01*
G01X3352000D01*
G02X3364720Y3233500I0J-12720D01*
G01Y3086500D01*
G02X3352000Y3073780I-12720J0D01*
G01X3236000D01*
G02X3223280Y3086500I0J12720D01*
G37*
G36*
G01Y3391500D02*
Y3538500D01*
G02X3236000Y3551220I12720J0D01*
G01X3352000D01*
G02X3364720Y3538500I0J-12720D01*
G01Y3391500D01*
G02X3352000Y3378780I-12720J0D01*
G01X3236000D01*
G02X3223280Y3391500I0J12720D01*
G37*
G36*
G01X3224280Y2841500D02*
Y2988500D01*
G02X3237000Y3001220I12720J0D01*
G01X3353000D01*
G02X3365720Y2988500I0J-12720D01*
G01Y2841500D01*
G02X3353000Y2828780I-12720J0D01*
G01X3237000D01*
G02X3224280Y2841500I0J12720D01*
G37*
G36*
G01Y2584500D02*
Y2731500D01*
G02X3237000Y2744220I12720J0D01*
G01X3353000D01*
G02X3365720Y2731500I0J-12720D01*
G01Y2584500D01*
G02X3353000Y2571780I-12720J0D01*
G01X3237000D01*
G02X3224280Y2584500I0J12720D01*
G37*
G36*
G01X3583980Y1793370D02*
Y2475160D01*
G02X3553980Y2521000I20022J45840D01*
G02X3654020I50020J0D01*
G02X3624020Y2475160I-50022J0D01*
G01Y1794290D01*
X3627870Y1793320D01*
G02X3696020Y1706000I-21866J-87320D01*
G02X3515980I-90020J0D01*
G02X3580350Y1792290I90022J0D01*
G01X3583980Y1793370D01*
G37*
G36*
G01X3049980Y3391500D02*
Y3538500D01*
G02X3060000Y3548520I10020J0D01*
G01X3176000D01*
G02X3186020Y3538500I0J-10020D01*
G01Y3391500D01*
G02X3180710Y3382660I-10013J0D01*
G01X3178020Y3381220D01*
Y3243780D01*
X3180710Y3242340D01*
G02X3186020Y3233500I-4703J-8840D01*
G01Y3086500D01*
G02X3176000Y3076480I-10020J0D01*
G01X3060000D01*
G02X3049980Y3086500I0J10020D01*
G01Y3099980D01*
X2946860D01*
X2847020Y3000140D01*
Y2777000D01*
G02X2829440Y2734560I-60017J0D01*
G01X2771210Y2676330D01*
X2771010Y2674570D01*
G02X2770130Y2669090I-59637J6766D01*
G01X2770020Y2668570D01*
Y2575860D01*
X2834860Y2511020D01*
X2993000D01*
G02X3043320Y2483720I0J-60026D01*
G01X3043610Y2483270D01*
X3087360Y2439520D01*
X3176000D01*
G02X3186020Y2429500I0J-10020D01*
G01Y2282500D01*
G02X3180710Y2273660I-10013J0D01*
G01X3178020Y2272220D01*
Y2205780D01*
X3180710Y2204340D01*
G02X3186020Y2195500I-4703J-8840D01*
G01Y2048500D01*
G02X3176000Y2038480I-10020J0D01*
G01X3060000D01*
G02X3049980Y2048500I0J10020D01*
G01Y2195500D01*
G02X3055290Y2204340I10013J0D01*
G01X3057980Y2205780D01*
Y2272220D01*
X3055290Y2273660D01*
G02X3049980Y2282500I4703J8840D01*
G01Y2307140D01*
X2966140Y2390980D01*
X2810000D01*
G02X2767560Y2408560I0J60017D01*
G01X2667560Y2508560D01*
G02X2649980Y2551000I42437J42440D01*
G01Y2680000D01*
G02X2651250Y2692290I60021J8D01*
G01X2651360Y2692810D01*
Y2701380D01*
G02X2668940Y2743820I60017J0D01*
G01X2726980Y2801860D01*
Y3025000D01*
G02X2744560Y3067440I60017J0D01*
G01X2879560Y3202440D01*
G02X2922000Y3220020I42440J-42437D01*
G01X3049980D01*
Y3233500D01*
G02X3055290Y3242340I10013J0D01*
G01X3057980Y3243780D01*
Y3381220D01*
X3055290Y3382660D01*
G02X3049980Y3391500I4703J8840D01*
G37*
G36*
G01X2488500Y1990820D02*
X2500360Y2002670D01*
X2499400Y2005630D01*
G02X2496980Y2021000I47599J15370D01*
G02X2547000Y1970980I50020J0D01*
G02X2531630Y1973400I0J50019D01*
G01X2528670Y1974360D01*
X2522680Y1968370D01*
Y1564630D01*
X2546040Y1541280D01*
X2549400Y1543200D01*
G02X2594000Y1555020I44592J-78202D01*
G02X2503980Y1465000I0J-90020D01*
G02X2515800Y1509600I90022J8D01*
G01X2517720Y1512960D01*
X2488500Y1542180D01*
G02X2482640Y1556340I14163J14154D01*
G01Y1976660D01*
G02X2488500Y1990820I20023J6D01*
G37*
G36*
G01X2238980Y6025000D02*
Y6057980D01*
X2235430Y6059100D01*
G02X2180480Y6134000I23571J74900D01*
G02X2337520I78520J0D01*
G02X2282570Y6059100I-78521J0D01*
G01X2279020Y6057980D01*
Y6033290D01*
X2558660Y5753660D01*
G02X2564520Y5739500I-14163J-14154D01*
G01Y5485340D01*
G02X2594520Y5439500I-20022J-45840D01*
G02X2494480I-50020J0D01*
G02X2524480Y5485340I50022J0D01*
G01Y5731210D01*
X2244840Y6010840D01*
G02X2238980Y6025000I14163J14154D01*
G37*
G36*
G01X-284020Y3684570D02*
G02X-266440Y3727010I60017J0D01*
G01X-164440Y3829010D01*
G02X-122000Y3846590I42440J-42437D01*
G02X-61980Y3786570I0J-60020D01*
G02X-79560Y3744130I-60017J0D01*
G01X-163980Y3659710D01*
Y1031860D01*
X160440Y707440D01*
G02X178020Y665000I-42437J-42440D01*
G02X118000Y604980I-60020J0D01*
G02X75560Y622560I0J60017D01*
G01X-266440Y964560D01*
G02X-284020Y1007000I42437J42440D01*
G01Y3684570D01*
G37*
G54D35*
X318500Y4640250D03*
X410250Y4548500D03*
X502000Y4640250D03*
X593750Y4548500D03*
X685500Y4640250D03*
X318500Y4823750D03*
X410250Y4732000D03*
Y4915500D03*
X502000Y4823750D03*
X593750Y4732000D03*
Y4915500D03*
X685500Y4823750D03*
G54D31*
X0Y0D03*
X10044000D03*
X0Y6223000D03*
X10044000D03*
G54D36*
X637000Y6203500D03*
G54D29*
X1253000Y1688000D03*
X731000Y1086000D03*
X2840000Y5579000D03*
X1966000Y5423000D03*
X2835000Y5792000D03*
X4269000Y883000D03*
X2847000Y838000D03*
Y1076000D03*
X2991000Y498000D03*
X2252000Y5427000D03*
X3966000Y5725000D03*
X3232000Y502000D03*
X4902000Y879000D03*
X-166000Y662000D03*
G54D34*
X3275000Y-165000D03*
X5561000Y6388000D03*
G54D33*
X2005000Y-165000D03*
Y89000D03*
X2259000D03*
Y-165000D03*
X2767000D03*
X2513000Y89000D03*
Y-165000D03*
X3275000Y89000D03*
X3783000D03*
Y-165000D03*
X3529000Y89000D03*
Y-165000D03*
X4291000Y89000D03*
Y-165000D03*
X4037000Y89000D03*
Y-165000D03*
X5053000Y89000D03*
Y-165000D03*
X4799000Y89000D03*
Y-165000D03*
X4545000Y89000D03*
Y-165000D03*
X5561000Y89000D03*
Y-165000D03*
X5307000Y89000D03*
Y-165000D03*
X6069000Y89000D03*
Y-165000D03*
X5815000Y89000D03*
X6577000Y-165000D03*
X6323000D03*
X6831000D03*
X2005000Y6388000D03*
X2767000D03*
Y6134000D03*
X2513000Y6388000D03*
Y6134000D03*
X3275000Y6388000D03*
Y6134000D03*
X3021000Y6388000D03*
Y6134000D03*
X3783000Y6388000D03*
Y6134000D03*
X3529000Y6388000D03*
Y6134000D03*
X4291000Y6388000D03*
Y6134000D03*
X4037000Y6388000D03*
Y6134000D03*
X5053000Y6388000D03*
Y6134000D03*
X4799000Y6388000D03*
Y6134000D03*
X4545000Y6388000D03*
Y6134000D03*
X5561000D03*
X5307000Y6388000D03*
Y6134000D03*
X6069000Y6388000D03*
Y6134000D03*
X5815000Y6388000D03*
Y6134000D03*
X6577000Y6388000D03*
Y6134000D03*
X6323000Y6388000D03*
Y6134000D03*
X6831000Y6388000D03*
Y6134000D03*
G54D32*
X1088000Y-108500D03*
G54D37*
X891000Y6203500D03*
X1145000D03*
G54D30*
X6694000Y3977000D03*
%LPD*%
G75*
G36*
G01X5375840Y3447480D02*
X5441330D01*
Y3434130D01*
G03X5446560Y3420230I21117J12D01*
G02X5445910Y3406170I-7643J-6692D01*
G03X5439330Y3390870I14536J-15316D01*
G01Y3377520D01*
X5375840D01*
G03X5350300Y3403210I-45835J-20026D01*
G02Y3421790I4125J9290D01*
G03X5375840Y3447480I-20295J45716D01*
G37*
G36*
G01Y3337480D02*
X5439330D01*
Y3324130D01*
G03X5443460Y3311610I21115J24D01*
G02X5441510Y3297540I-8175J-6037D01*
G03X5433330Y3280870I12935J-16689D01*
G01Y3267520D01*
X5375840D01*
G03X5350300Y3293210I-45835J-20026D01*
G02Y3311790I4125J9290D01*
G03X5375840Y3337480I-20295J45716D01*
G37*
G54D10*
X0Y0D03*
Y6223000D03*
X10044000Y0D03*
Y6223000D03*
G54D20*
X3294000Y2122000D03*
X3118000D03*
X3294000Y2356000D03*
X3118000D03*
X3119000Y2658000D03*
X3295000D03*
Y2915000D03*
X3119000D03*
X3118000Y3160000D03*
X3294000D03*
X3118000Y3465000D03*
X3294000D03*
G54D11*
X-139090Y259090D03*
X-73000Y1109000D03*
X-122000Y3786570D03*
X-248000Y4366000D03*
X-121000Y4751000D03*
X-248000Y5372000D03*
X277000Y266000D03*
X358000Y98000D03*
X118000Y665000D03*
X189000Y1107000D03*
X857000Y281000D03*
X599800Y277000D03*
X945500Y655500D03*
X805000Y785000D03*
X731000Y460000D03*
X1045000Y1449000D03*
X625000Y1657000D03*
X1505500Y698500D03*
X1525000Y1182000D03*
X1252000Y1183000D03*
X1669500Y4260500D03*
X1715500Y143500D03*
X2207000Y373000D03*
X1751000Y458000D03*
X1930000Y1634000D03*
X2137000Y1635000D03*
X2151000Y4125000D03*
X1771340Y5142000D03*
X2364000Y376000D03*
X2547000Y2021000D03*
X2784000Y2774000D03*
X2522000Y4122000D03*
X2544500Y5439500D03*
X3021090Y1296910D03*
X2991000Y2451000D03*
X2973000Y2647000D03*
X2993000Y3016000D03*
X3274000Y5224000D03*
X3005500Y5106500D03*
X3364090Y742910D03*
X3661500Y614500D03*
X3388000Y1082000D03*
X3420000Y2113000D03*
X3476000Y2330000D03*
X3604000Y2521000D03*
X3559000Y3597000D03*
X3590000Y4295000D03*
X3893000D03*
X3586000Y5228000D03*
X3790000Y5190000D03*
X4200500Y1468500D03*
X4181000Y2585000D03*
X4411500Y2583500D03*
X4306000Y2588000D03*
X4904000Y1774000D03*
X4519000Y2588000D03*
X5330000Y2223500D03*
X5331500Y2382500D03*
X5326500Y2561500D03*
X5330000Y2682500D03*
Y2855500D03*
Y3018500D03*
Y3247500D03*
Y3357500D03*
Y3467500D03*
Y3133500D03*
X6117000Y365000D03*
X5968000Y1386000D03*
X6122000Y1663000D03*
X5941000Y3839000D03*
X6454000Y1209000D03*
X6283000Y1214000D03*
X6255000Y3832000D03*
X6833000Y707000D03*
X7191000Y704000D03*
X7069000Y701000D03*
G54D21*
X5488910Y2382500D03*
X5476910Y2855500D03*
X5659090Y2382500D03*
X5647090Y2855500D03*
G54D12*
X-166000Y662000D03*
X731000Y1086000D03*
X1253000Y1688000D03*
X2252000Y5427000D03*
X1966000Y5423000D03*
X2847000Y838000D03*
Y1076000D03*
X2594000Y1465000D03*
X2840000Y5579000D03*
X2835000Y5792000D03*
X2991000Y498000D03*
X3232000Y502000D03*
X3606000Y1706000D03*
X4269000Y883000D03*
X3966000Y5725000D03*
X4553000Y884000D03*
X4902000Y879000D03*
X5217000Y874000D03*
X5558000Y876000D03*
X6119000Y875000D03*
X5809000Y884000D03*
X6694000Y3977000D03*
X6833000Y893000D03*
G54D22*
X5496800Y2223500D03*
X5485800Y3018500D03*
X5487800Y2561500D03*
X5488800Y2682500D03*
X5485800Y3133500D03*
X5649200Y2223500D03*
X5638200Y3018500D03*
X5640200Y2561500D03*
X5641200Y2682500D03*
X5638200Y3133500D03*
G54D13*
X502000Y4640250D03*
X410250Y4548500D03*
X318500Y4640250D03*
X502000Y4823750D03*
X410250Y4915500D03*
Y4732000D03*
X318500Y4823750D03*
X685500Y4640250D03*
X593750Y4548500D03*
X685500Y4823750D03*
X593750Y4915500D03*
Y4732000D03*
G54D14*
X383000Y6203500D03*
X637000D03*
X891000D03*
X1145000D03*
X1399000D03*
G54D23*
X5487800Y3247500D03*
X5493800Y3357500D03*
X5495800Y3467500D03*
X5640200Y3247500D03*
X5646200Y3357500D03*
X5648200Y3467500D03*
G54D24*
G01X358000Y98000D02*
Y310000D01*
X405000Y357000D01*
X711000D01*
X731000Y377000D01*
Y460000D01*
G01X1596000Y-108500D02*
X1526750Y-177750D01*
X1294750D01*
X890000Y227000D01*
X887860D01*
X881860Y221000D01*
X832140D01*
X797000Y256140D01*
Y262140D01*
X782140Y277000D01*
X599800D01*
G01X1771340Y5142000D02*
X1727000Y5186340D01*
Y5875500D01*
X1399000Y6203500D01*
G01X1653000D02*
X1727460Y6277960D01*
X2148960D01*
X2259000Y6388000D01*
G01X2207000Y373000D02*
X2307000Y473000D01*
X2637000D01*
X3021000Y89000D01*
G01X2364000Y376000D02*
X2605170D01*
X3021000Y-39830D01*
Y-165000D01*
G01X2547000Y2021000D02*
X2502660Y1976660D01*
Y1556340D01*
X2594000Y1465000D01*
G01X2544500Y5439500D02*
Y5739500D01*
X2259000Y6025000D01*
Y6134000D01*
G01X3604000Y2521000D02*
Y1708000D01*
X3606000Y1706000D01*
G01X4181000Y2585000D02*
Y1650000D01*
X4245000Y1586000D01*
X4531000D01*
X4551000Y1566000D01*
Y978700D01*
X4553000Y884000D01*
G01X4904000Y1774000D02*
X4507000D01*
X4411500Y1869500D01*
Y2583500D01*
G01X5217000Y874000D02*
Y1630000D01*
X5189000Y1658000D01*
X4440000D01*
X4306000Y1792000D01*
Y2588000D01*
G01X4519000D02*
Y1920000D01*
X4539000Y1900000D01*
X5885000D01*
X6122000Y1663000D01*
G01X5496800Y2223500D02*
X5330000D01*
G01X5488910Y2382500D02*
X5331500D01*
G01X5487800Y2561500D02*
X5326500D01*
G01X5488800Y2682500D02*
X5330000D01*
G01X5476910Y2855500D02*
X5330000D01*
G01X5485800Y3018500D02*
X5330000D01*
G01X5487800Y3247500D02*
X5330000D01*
G01X5493800Y3357500D02*
X5330000D01*
G01X5495800Y3467500D02*
X5330000D01*
G01X5485800Y3133500D02*
X5330000D01*
G01X5815000Y-165000D02*
X5935000Y-45000D01*
Y183000D01*
X6117000Y365000D01*
G01X5647090Y2855500D02*
X6647500D01*
X6693000Y2810000D01*
Y1234000D01*
X6586000Y1127000D01*
X5898000D01*
X5809000Y1038000D01*
Y884000D01*
G01X5558000Y876000D02*
Y1284000D01*
X5582000Y1308000D01*
X6443500D01*
X6482500Y1347000D01*
Y2362500D01*
X6462500Y2382500D01*
X5659090D01*
G01X5968000Y1386000D02*
X6376500D01*
X6396500Y1406000D01*
Y2203500D01*
X6376500Y2223500D01*
X5649200D01*
G01X5638200Y3018500D02*
X6694500D01*
X6753000Y2960000D01*
Y1170000D01*
X6646000Y1063000D01*
X6359000D01*
X6323000Y1027000D01*
Y89000D01*
G01X6454000Y1209000D02*
X6534000D01*
X6620500Y1295500D01*
Y2662500D01*
X6600500Y2682500D01*
X5641200D01*
G01X6283000Y1214000D02*
X6338000Y1269000D01*
X6489500D01*
X6540500Y1320000D01*
Y2541500D01*
X6520500Y2561500D01*
X5640200D01*
G01X6833000Y893000D02*
Y3092000D01*
X6791500Y3133500D01*
X5638200D01*
G01X7191000Y704000D02*
Y3232000D01*
X7065500Y3357500D01*
X5646200D01*
G01X6577000Y89000D02*
Y506000D01*
X6604000Y533000D01*
X7156000D01*
X7370000Y747000D01*
Y3258000D01*
X7160500Y3467500D01*
X5648200D01*
G01X7069000Y701000D02*
Y3208000D01*
X7029500Y3247500D01*
X5640200D01*
G01X6117000Y365000D02*
X6116000Y366000D01*
X6119000Y875000D01*
G01X6833000Y707000D02*
Y893000D01*
G54D15*
X1088000Y-108500D03*
X1596000D03*
X1342000D03*
G54D25*
G01X2157000Y458000D02*
X1842500Y143500D01*
X1715500D01*
G01X2157000Y458000D02*
X2251000Y552000D01*
X2683000D01*
X2911000Y324000D01*
X3311500D01*
X3444000Y456500D01*
Y610000D01*
G01X3661500Y614500D02*
X3448500D01*
X3444000Y610000D01*
G01D02*
Y663000D01*
X3364090Y742910D01*
G54D16*
X834000Y-108500D03*
G54D26*
G01X383000Y6203500D02*
X-121000Y5699500D01*
Y4751000D01*
G01X2157000Y458000D02*
X1751000D01*
G01X3388000Y1082000D02*
X3381090Y1075090D01*
X3081090D01*
X3021090Y1135090D01*
Y1296910D01*
G54D17*
X1653000Y6203500D03*
G54D27*
G01X502000Y4607450D02*
Y4640250D01*
G01D02*
Y4673050D01*
G01X469200Y4640250D02*
X502000D01*
G01D02*
X534800D01*
G01X318500Y4607450D02*
Y4640250D01*
G01D02*
Y4673050D01*
G01X285700Y4640250D02*
X318500D01*
G01D02*
X351300D01*
G01X410250Y4515700D02*
Y4548500D01*
G01D02*
Y4581300D01*
G01X377450Y4548500D02*
X410250D01*
G01D02*
X443050D01*
G01X318500Y4790950D02*
Y4823750D01*
G01D02*
Y4856550D01*
G01X285700Y4823750D02*
X318500D01*
G01D02*
X351300D01*
G01X410250Y4699200D02*
Y4732000D01*
G01D02*
Y4764800D01*
G01X377450Y4732000D02*
X410250D01*
G01D02*
X443050D01*
G01X410250Y4882700D02*
Y4915500D01*
G01D02*
Y4948300D01*
G01X377450Y4915500D02*
X410250D01*
G01D02*
X443050D01*
G01X502000Y4790950D02*
Y4823750D01*
G01D02*
Y4856550D01*
G01X469200Y4823750D02*
X502000D01*
G01D02*
X534800D01*
G01X1088000Y-175550D02*
Y-108500D01*
G01D02*
Y-41450D01*
G01X1020950Y-108500D02*
X1088000D01*
G01D02*
X1155050D01*
G01X685500Y4607450D02*
Y4640250D01*
G01D02*
Y4673050D01*
G01X652700Y4640250D02*
X685500D01*
G01D02*
X718300D01*
G01X593750Y4515700D02*
Y4548500D01*
G01D02*
Y4581300D01*
G01X560950Y4548500D02*
X593750D01*
G01D02*
X626550D01*
G01X593750Y4699200D02*
Y4732000D01*
G01D02*
Y4764800D01*
G01X560950Y4732000D02*
X593750D01*
G01D02*
X626550D01*
G01X593750Y4882700D02*
Y4915500D01*
G01D02*
Y4948300D01*
G01X560950Y4915500D02*
X593750D01*
G01D02*
X626550D01*
G01X685500Y4790950D02*
Y4823750D01*
G01D02*
Y4856550D01*
G01X652700Y4823750D02*
X685500D01*
G01D02*
X718300D01*
G01X637000Y6127300D02*
Y6203500D01*
G01D02*
Y6279700D01*
G01X560800Y6203500D02*
X637000D01*
G01D02*
X713200D01*
G01X3275000Y-251300D02*
Y-165000D01*
G01D02*
Y-78700D01*
G01X3188700Y-165000D02*
X3275000D01*
G01D02*
X3361300D01*
G01X3294000Y2030700D02*
Y2122000D01*
G01D02*
Y2213300D01*
G01X3218200Y2122000D02*
X3294000D01*
G01D02*
X3369800D01*
G01X3294000Y2264700D02*
Y2356000D01*
G01D02*
Y2447300D01*
G01X3218200Y2356000D02*
X3294000D01*
G01D02*
X3369800D01*
G01X3295000Y2823700D02*
Y2915000D01*
G01D02*
Y3006300D01*
G01X3219200Y2915000D02*
X3295000D01*
G01D02*
X3370800D01*
G01X3295000Y2566700D02*
Y2658000D01*
G01D02*
Y2749300D01*
G01X3219200Y2658000D02*
X3295000D01*
G01D02*
X3370800D01*
G01X3294000Y3068700D02*
Y3160000D01*
G01D02*
Y3251300D01*
G01X3218200Y3160000D02*
X3294000D01*
G01D02*
X3369800D01*
G01X3294000Y3373700D02*
Y3465000D01*
G01D02*
Y3556300D01*
G01X3218200Y3465000D02*
X3294000D01*
G01D02*
X3369800D01*
G01X5474700Y6388000D02*
X5561000D01*
G01Y6301700D02*
Y6388000D01*
G01D02*
Y6474300D01*
G01Y6388000D02*
X5647300D01*
G01X6596200Y3977000D02*
X6694000D01*
G01Y3879200D02*
Y3977000D01*
G01D02*
Y4074800D01*
G01Y3977000D02*
X6791800D01*
G54D18*
X2005000Y-165000D03*
Y89000D03*
X2259000Y-165000D03*
Y89000D03*
Y6388000D03*
Y6134000D03*
X2005000Y6388000D03*
X2513000Y-165000D03*
Y89000D03*
X2767000Y-165000D03*
Y89000D03*
Y6388000D03*
Y6134000D03*
X2513000Y6388000D03*
Y6134000D03*
X3021000Y-165000D03*
Y89000D03*
X3275000Y-165000D03*
Y89000D03*
Y6388000D03*
Y6134000D03*
X3021000Y6388000D03*
Y6134000D03*
X3529000Y-165000D03*
Y89000D03*
X3783000Y-165000D03*
Y89000D03*
Y6388000D03*
Y6134000D03*
X3529000Y6388000D03*
Y6134000D03*
X4037000Y-165000D03*
Y89000D03*
X4291000Y-165000D03*
Y89000D03*
Y6388000D03*
Y6134000D03*
X4037000Y6388000D03*
Y6134000D03*
X4545000Y-165000D03*
Y89000D03*
X4799000Y-165000D03*
Y89000D03*
X5053000Y-165000D03*
Y89000D03*
Y6388000D03*
Y6134000D03*
X4799000Y6388000D03*
Y6134000D03*
X4545000Y6388000D03*
Y6134000D03*
X5307000Y-165000D03*
Y89000D03*
X5561000Y-165000D03*
Y89000D03*
Y6388000D03*
Y6134000D03*
X5307000Y6388000D03*
Y6134000D03*
X5815000Y-165000D03*
Y89000D03*
X6069000Y-165000D03*
Y89000D03*
Y6388000D03*
Y6134000D03*
X5815000Y6388000D03*
Y6134000D03*
X6323000Y-165000D03*
Y89000D03*
X6577000Y-165000D03*
Y89000D03*
Y6388000D03*
Y6134000D03*
X6323000Y6388000D03*
Y6134000D03*
X6831000Y-165000D03*
Y6388000D03*
Y6134000D03*
G54D28*
G01X-122000Y3786570D02*
X-224000Y3684570D01*
Y1007000D01*
X118000Y665000D01*
G01X2784000Y2774000D02*
X2711380Y2701380D01*
Y2681380D01*
X2710000Y2680000D01*
Y2551000D01*
X2810000Y2451000D01*
X2991000D01*
G01X2784000Y2774000D02*
X2787000Y2777000D01*
Y3025000D01*
X2922000Y3160000D01*
X3118000D01*
G01X3388000Y1082000D02*
X3390000Y1084000D01*
X4019000D01*
X4200500Y1265500D01*
Y1468500D01*
G01X2991000Y2451000D02*
X2993000D01*
G01X3118000Y2356000D02*
X3086000D01*
X2991000Y2451000D01*
G01X3118000Y2122000D02*
Y2356000D01*
G01X3119000Y2915000D02*
Y2658000D01*
G01X2973000Y2647000D02*
X3108000D01*
X3119000Y2658000D01*
G01X3118000Y3465000D02*
Y3160000D01*
G54D19*
X2005000Y6134000D03*
X6831000Y89000D03*
M02*
