G04 ================== begin FILE IDENTIFICATION RECORD ==================*
G04 Layout Name:  D:/CTW_SEVINA/PCB/DE10_NANO/Version_11/BOARD/1.brd*
G04 Film Name:    POWER*
G04 File Format:  Gerber RS274X*
G04 File Origin:  Cadence Allegro 22.1-P001*
G04 Origin Date:  Mon Mar 16 15:45:38 2026*
G04 *
G04 Layer:  ETCH/POWER*
G04 Layer:  PIN/POWER*
G04 Layer:  VIA CLASS/POWER*
G04 *
G04 Offset:    (0.0000 0.0000)*
G04 Mirror:    No*
G04 Mode:      Positive*
G04 Rotation:  0*
G04 FullContactRelief:  No*
G04 UndefLineWidth:     0.1270*
G04 ================== end FILE IDENTIFICATION RECORD ====================*
%FSLAX25Y25*MOMM*%
%IR0*IPPOS*OFA0.00000B0.00000*MIA0B0*SFA1.00000B1.00000*%
%ADD12C,.3*%
%ADD10C,.8*%
%ADD14C,.985*%
%ADD11C,1.6*%
%ADD15C,1.37*%
%ADD13C,1.168*%
%LPD*%
G75*
G54D10*
X-139090Y259090D03*
X-73000Y1109000D03*
X-122000Y3786570D03*
X-248000Y4366000D03*
X-121000Y4751000D03*
X-248000Y5372000D03*
X277000Y266000D03*
X358000Y98000D03*
X118000Y665000D03*
X189000Y1107000D03*
X857000Y281000D03*
X599800Y277000D03*
X945500Y655500D03*
X805000Y785000D03*
X731000Y460000D03*
X1045000Y1449000D03*
X625000Y1657000D03*
X1505500Y698500D03*
X1525000Y1182000D03*
X1252000Y1183000D03*
X1669500Y4260500D03*
X1715500Y143500D03*
X2207000Y373000D03*
X1751000Y458000D03*
X1930000Y1634000D03*
X2137000Y1635000D03*
X2151000Y4125000D03*
X1771340Y5142000D03*
X2364000Y376000D03*
X2547000Y2021000D03*
X2784000Y2774000D03*
X2522000Y4122000D03*
X2544500Y5439500D03*
X3021090Y1296910D03*
X2991000Y2451000D03*
X2973000Y2647000D03*
X2993000Y3016000D03*
X3274000Y5224000D03*
X3005500Y5106500D03*
X3364090Y742910D03*
X3661500Y614500D03*
X3388000Y1082000D03*
X3420000Y2113000D03*
X3476000Y2330000D03*
X3604000Y2521000D03*
X3559000Y3597000D03*
X3590000Y4295000D03*
X3893000D03*
X3586000Y5228000D03*
X3790000Y5190000D03*
X4200500Y1468500D03*
X4181000Y2585000D03*
X4411500Y2583500D03*
X4306000Y2588000D03*
X4904000Y1774000D03*
X4519000Y2588000D03*
X5330000Y2223500D03*
X5331500Y2382500D03*
X5326500Y2561500D03*
X5330000Y2682500D03*
Y2855500D03*
Y3018500D03*
Y3247500D03*
Y3357500D03*
Y3467500D03*
Y3133500D03*
X6117000Y365000D03*
X5968000Y1386000D03*
X6122000Y1663000D03*
X5941000Y3839000D03*
X6454000Y1209000D03*
X6283000Y1214000D03*
X6255000Y3832000D03*
X6833000Y707000D03*
X7191000Y704000D03*
X7069000Y701000D03*
G54D11*
X-166000Y662000D03*
X731000Y1086000D03*
X1253000Y1688000D03*
X2252000Y5427000D03*
X1966000Y5423000D03*
X2847000Y838000D03*
Y1076000D03*
X2594000Y1465000D03*
X2840000Y5579000D03*
X2835000Y5792000D03*
X2991000Y498000D03*
X3232000Y502000D03*
X3606000Y1706000D03*
X4269000Y883000D03*
X3966000Y5725000D03*
X4553000Y884000D03*
X4902000Y879000D03*
X5217000Y874000D03*
X5558000Y876000D03*
X6119000Y875000D03*
X5809000Y884000D03*
X6694000Y3977000D03*
X6833000Y893000D03*
G54D12*
X502000Y4640250D03*
X410250Y4548500D03*
X318500Y4640250D03*
X502000Y4823750D03*
X410250Y4915500D03*
Y4732000D03*
X318500Y4823750D03*
X685500Y4640250D03*
X593750Y4548500D03*
X685500Y4823750D03*
X593750Y4915500D03*
Y4732000D03*
G54D13*
X383000Y6203500D03*
X637000D03*
X891000D03*
X1145000D03*
X1399000D03*
X1653000D03*
G54D14*
X1088000Y-108500D03*
X834000D03*
X1596000D03*
X1342000D03*
G54D15*
X2005000Y-165000D03*
Y89000D03*
X2259000Y-165000D03*
Y89000D03*
Y6388000D03*
Y6134000D03*
X2005000Y6388000D03*
Y6134000D03*
X2513000Y-165000D03*
Y89000D03*
X2767000Y-165000D03*
Y89000D03*
Y6388000D03*
Y6134000D03*
X2513000Y6388000D03*
Y6134000D03*
X3021000Y-165000D03*
Y89000D03*
X3275000Y-165000D03*
Y89000D03*
Y6388000D03*
Y6134000D03*
X3021000Y6388000D03*
Y6134000D03*
X3529000Y-165000D03*
Y89000D03*
X3783000Y-165000D03*
Y89000D03*
Y6388000D03*
Y6134000D03*
X3529000Y6388000D03*
Y6134000D03*
X4037000Y-165000D03*
Y89000D03*
X4291000Y-165000D03*
Y89000D03*
Y6388000D03*
Y6134000D03*
X4037000Y6388000D03*
Y6134000D03*
X4545000Y-165000D03*
Y89000D03*
X4799000Y-165000D03*
Y89000D03*
X5053000Y-165000D03*
Y89000D03*
Y6388000D03*
Y6134000D03*
X4799000Y6388000D03*
Y6134000D03*
X4545000Y6388000D03*
Y6134000D03*
X5307000Y-165000D03*
Y89000D03*
X5561000Y-165000D03*
Y89000D03*
Y6388000D03*
Y6134000D03*
X5307000Y6388000D03*
Y6134000D03*
X5815000Y-165000D03*
Y89000D03*
X6069000Y-165000D03*
Y89000D03*
Y6388000D03*
Y6134000D03*
X5815000Y6388000D03*
Y6134000D03*
X6323000Y-165000D03*
Y89000D03*
X6577000Y-165000D03*
Y89000D03*
Y6388000D03*
Y6134000D03*
X6323000Y6388000D03*
Y6134000D03*
X6831000Y-165000D03*
Y89000D03*
Y6388000D03*
Y6134000D03*
M02*
