G04 ================== begin FILE IDENTIFICATION RECORD ==================*
G04 Layout Name:  D:/CTW_SEVINA/PCB/DE10_NANO/Version_11/BOARD/1.brd*
G04 Film Name:    Silkscreen_bottom*
G04 File Format:  Gerber RS274X*
G04 File Origin:  Cadence Allegro 22.1-P001*
G04 Origin Date:  Mon Mar 16 15:45:38 2026*
G04 *
G04 Layer:  REF DES/SILKSCREEN_BOTTOM*
G04 Layer:  PACKAGE GEOMETRY/SILKSCREEN_BOTTOM*
G04 Layer:  BOARD GEOMETRY/SILKSCREEN_BOTTOM*
G04 Layer:  BOARD GEOMETRY/OUTLINE*
G04 *
G04 Offset:    (0.0000 0.0000)*
G04 Mirror:    No*
G04 Mode:      Positive*
G04 Rotation:  0*
G04 FullContactRelief:  No*
G04 UndefLineWidth:     0.1270*
G04 ================== end FILE IDENTIFICATION RECORD ====================*
%FSLAX25Y25*MOMM*%
%IR0*IPPOS*OFA0.00000B0.00000*MIA0B0*SFA1.00000B1.00000*%
%ADD10C,.127*%
G75*
%LPD*%
G75*
G54D10*
G01X-318000Y-318000D02*
X10362000D01*
Y6541000D01*
X-318000D01*
Y-318000D01*
G01X2970350Y3521420D02*
X2980000Y3527770D01*
X2991260Y3532000D01*
X3004130D01*
X3018610Y3525650D01*
X3029870Y3515070D01*
X3037910Y3502370D01*
X3044350Y3481200D01*
X3045960Y3462150D01*
X3042740Y3443100D01*
X3037910Y3430400D01*
X3028260Y3417700D01*
X3017000Y3409230D01*
X3005740Y3405000D01*
X2994480D01*
X2983220Y3409230D01*
X2973570Y3415580D01*
X2965520Y3424050D01*
G01X2876200Y3405000D02*
Y3532000D01*
X2895500Y3506600D01*
G01Y3405000D02*
X2856900D01*
G01X2746660D02*
X2735400Y3407120D01*
X2722530Y3413460D01*
X2714490Y3424050D01*
X2711270Y3438870D01*
X2714490Y3453680D01*
X2724140Y3466380D01*
X2738620Y3472730D01*
X2754700D01*
X2764360Y3476970D01*
X2772400Y3487550D01*
X2775620Y3502370D01*
X2770790Y3517180D01*
X2759530Y3527770D01*
X2746660Y3532000D01*
X2733790Y3527770D01*
X2722530Y3517180D01*
X2717700Y3502370D01*
X2720920Y3487550D01*
X2728960Y3476970D01*
X2738620Y3472730D01*
X2754700D01*
X2769180Y3466380D01*
X2778830Y3453680D01*
X2782050Y3438870D01*
X2778830Y3424050D01*
X2770790Y3413460D01*
X2757920Y3407120D01*
X2746660Y3405000D01*
G01X3447650Y2604580D02*
X3438000Y2598230D01*
X3426740Y2594000D01*
X3413870D01*
X3399390Y2600350D01*
X3388130Y2610930D01*
X3380090Y2623630D01*
X3373650Y2644800D01*
X3372040Y2663850D01*
X3375260Y2682900D01*
X3380090Y2695600D01*
X3389740Y2708300D01*
X3401000Y2716770D01*
X3412260Y2721000D01*
X3423520D01*
X3434780Y2716770D01*
X3444430Y2710420D01*
X3452480Y2701950D01*
G01X3541800Y2721000D02*
Y2594000D01*
X3522500Y2619400D01*
G01Y2721000D02*
X3561100D01*
G01X3635950Y2701950D02*
X3645600Y2712540D01*
X3656860Y2718880D01*
X3671340Y2721000D01*
X3685820Y2716770D01*
X3697080Y2708300D01*
X3705120Y2693490D01*
X3706730Y2676550D01*
X3703510Y2659620D01*
X3695470Y2649030D01*
X3684210Y2640570D01*
X3672950Y2638450D01*
X3661690Y2640570D01*
X3647210Y2649030D01*
X3652040Y2594000D01*
X3695470D01*
G01X5421010Y3174500D02*
Y3301500D01*
X5380800D01*
X5367930Y3295150D01*
X5359880Y3286680D01*
X5356670Y3269750D01*
X5359880Y3252820D01*
X5369540Y3242230D01*
X5380800Y3235880D01*
X5421010D01*
G01X5380800D02*
X5356670Y3174500D01*
G01X5289870Y3280330D02*
X5280210Y3293030D01*
X5268950Y3299380D01*
X5256080Y3301500D01*
X5240000Y3297270D01*
X5228730Y3286680D01*
X5225520Y3273990D01*
X5227130Y3261280D01*
X5233560Y3250700D01*
X5265730Y3229530D01*
X5280210Y3214720D01*
X5289870Y3193550D01*
X5293080Y3174500D01*
X5225520D01*
G01X5160330Y3280330D02*
X5150670Y3293030D01*
X5139410Y3299380D01*
X5126540Y3301500D01*
X5110460Y3297270D01*
X5099190Y3286680D01*
X5095980Y3273990D01*
X5097590Y3261280D01*
X5104020Y3250700D01*
X5136190Y3229530D01*
X5150670Y3214720D01*
X5160330Y3193550D01*
X5163540Y3174500D01*
X5095980D01*
G01X5428010Y3295500D02*
Y3422500D01*
X5387800D01*
X5374930Y3416150D01*
X5366880Y3407680D01*
X5363670Y3390750D01*
X5366880Y3373820D01*
X5376540Y3363230D01*
X5387800Y3356880D01*
X5428010D01*
G01X5387800D02*
X5363670Y3295500D01*
G01X5296870Y3401330D02*
X5287210Y3414030D01*
X5275950Y3420380D01*
X5263080Y3422500D01*
X5247000Y3418270D01*
X5235730Y3407680D01*
X5232520Y3394990D01*
X5234130Y3382280D01*
X5240560Y3371700D01*
X5272730Y3350530D01*
X5287210Y3335720D01*
X5296870Y3314550D01*
X5300080Y3295500D01*
X5232520D01*
G01X5172150Y3320900D02*
X5162500Y3306080D01*
X5149630Y3297620D01*
X5135150Y3295500D01*
X5122280Y3297620D01*
X5109410Y3308200D01*
X5101370Y3320900D01*
X5099760Y3333600D01*
X5102980Y3348410D01*
X5114240Y3359000D01*
X5125500Y3363230D01*
X5139980D01*
G01X5125500D02*
X5115850Y3369580D01*
X5107800Y3380160D01*
X5104590Y3392870D01*
X5107800Y3405570D01*
X5115850Y3416150D01*
X5130330Y3422500D01*
X5144800Y3420380D01*
X5159280Y3411920D01*
G01X5425010Y3414500D02*
Y3541500D01*
X5384800D01*
X5371930Y3535150D01*
X5363880Y3526680D01*
X5360670Y3509750D01*
X5363880Y3492820D01*
X5373540Y3482230D01*
X5384800Y3475880D01*
X5425010D01*
G01X5384800D02*
X5360670Y3414500D01*
G01X5293870Y3520330D02*
X5284210Y3533030D01*
X5272950Y3539380D01*
X5260080Y3541500D01*
X5244000Y3537270D01*
X5232730Y3526680D01*
X5229520Y3513990D01*
X5231130Y3501280D01*
X5237560Y3490700D01*
X5269730Y3469530D01*
X5284210Y3454720D01*
X5293870Y3433550D01*
X5297080Y3414500D01*
X5229520D01*
G01X5114460D02*
Y3541500D01*
X5173980Y3450480D01*
X5093540D01*
G01X5738060Y2450000D02*
Y2323000D01*
X5778270D01*
X5791140Y2329350D01*
X5799190Y2337820D01*
X5802400Y2354750D01*
X5799190Y2371680D01*
X5789530Y2382270D01*
X5778270Y2388620D01*
X5738060D01*
G01X5778270D02*
X5802400Y2450000D01*
G01X5864380Y2424600D02*
X5874030Y2439420D01*
X5886900Y2447880D01*
X5901380Y2450000D01*
X5914250Y2447880D01*
X5927120Y2437300D01*
X5935160Y2424600D01*
X5936770Y2411900D01*
X5933550Y2397090D01*
X5922290Y2386500D01*
X5911030Y2382270D01*
X5896550D01*
G01X5911030D02*
X5920680Y2375920D01*
X5928730Y2365340D01*
X5931940Y2352630D01*
X5928730Y2339930D01*
X5920680Y2329350D01*
X5906200Y2323000D01*
X5891730Y2325120D01*
X5877250Y2333580D01*
G01X5744990Y2285500D02*
Y2158500D01*
X5785200D01*
X5798070Y2164850D01*
X5806120Y2173320D01*
X5809330Y2190250D01*
X5806120Y2207180D01*
X5796460Y2217770D01*
X5785200Y2224120D01*
X5744990D01*
G01X5785200D02*
X5809330Y2285500D01*
G01X5906700D02*
Y2158500D01*
X5887400Y2183900D01*
G01Y2285500D02*
X5926000D01*
G01X6033020D02*
X6036240Y2257990D01*
X6041070Y2234700D01*
X6047500Y2213530D01*
X6055540Y2190250D01*
X6068410Y2158500D01*
X6004070D01*
G01X5723060Y2922000D02*
Y2795000D01*
X5763270D01*
X5776140Y2801350D01*
X5784190Y2809820D01*
X5787400Y2826750D01*
X5784190Y2843680D01*
X5774530Y2854270D01*
X5763270Y2860620D01*
X5723060D01*
G01X5763270D02*
X5787400Y2922000D01*
G01X5904070D02*
Y2795000D01*
X5844550Y2886020D01*
X5924990D01*
G01X5711990Y3092500D02*
Y2965500D01*
X5752200D01*
X5765070Y2971850D01*
X5773120Y2980320D01*
X5776330Y2997250D01*
X5773120Y3014180D01*
X5763460Y3024770D01*
X5752200Y3031120D01*
X5711990D01*
G01X5752200D02*
X5776330Y3092500D01*
G01X5843130Y2986670D02*
X5852790Y2973970D01*
X5864050Y2967620D01*
X5876920Y2965500D01*
X5893000Y2969730D01*
X5904270Y2980320D01*
X5907480Y2993010D01*
X5905870Y3005720D01*
X5899440Y3016300D01*
X5867270Y3037470D01*
X5852790Y3052280D01*
X5843130Y3073450D01*
X5839920Y3092500D01*
X5907480D01*
G01X6003240Y2965500D02*
X5990370Y2969730D01*
X5980720Y2980320D01*
X5974280Y2993010D01*
X5969460Y3009950D01*
X5967850Y3029000D01*
X5969460Y3048050D01*
X5974280Y3064990D01*
X5980720Y3077690D01*
X5990370Y3088270D01*
X6003240Y3092500D01*
X6016110Y3088270D01*
X6025760Y3077690D01*
X6032200Y3064990D01*
X6037020Y3048050D01*
X6038630Y3029000D01*
X6037020Y3009950D01*
X6032200Y2993010D01*
X6025760Y2980320D01*
X6016110Y2969730D01*
X6003240Y2965500D01*
G01X5717990Y2634500D02*
Y2507500D01*
X5758200D01*
X5771070Y2513850D01*
X5779120Y2522320D01*
X5782330Y2539250D01*
X5779120Y2556180D01*
X5769460Y2566770D01*
X5758200Y2573120D01*
X5717990D01*
G01X5758200D02*
X5782330Y2634500D01*
G01X5879700D02*
Y2507500D01*
X5860400Y2532900D01*
G01Y2634500D02*
X5899000D01*
G01X6009240D02*
X6020500Y2632380D01*
X6033370Y2626040D01*
X6041410Y2615450D01*
X6044630Y2600630D01*
X6041410Y2585820D01*
X6031760Y2573120D01*
X6017280Y2566770D01*
X6001200D01*
X5991540Y2562530D01*
X5983500Y2551950D01*
X5980280Y2537130D01*
X5985110Y2522320D01*
X5996370Y2511730D01*
X6009240Y2507500D01*
X6022110Y2511730D01*
X6033370Y2522320D01*
X6038200Y2537130D01*
X6034980Y2551950D01*
X6026940Y2562530D01*
X6017280Y2566770D01*
X6001200D01*
X5986720Y2573120D01*
X5977070Y2585820D01*
X5973850Y2600630D01*
X5977070Y2615450D01*
X5985110Y2626040D01*
X5997980Y2632380D01*
X6009240Y2634500D01*
G01X5721990Y2749500D02*
Y2622500D01*
X5762200D01*
X5775070Y2628850D01*
X5783120Y2637320D01*
X5786330Y2654250D01*
X5783120Y2671180D01*
X5773460Y2681770D01*
X5762200Y2688120D01*
X5721990D01*
G01X5762200D02*
X5786330Y2749500D01*
G01X5883700D02*
Y2622500D01*
X5864400Y2647900D01*
G01Y2749500D02*
X5903000D01*
G01X5985890Y2734690D02*
X5997150Y2745270D01*
X6010020Y2749500D01*
X6022890Y2745270D01*
X6034150Y2732570D01*
X6042200Y2713520D01*
X6045410Y2694470D01*
Y2671180D01*
X6042200Y2652130D01*
X6034150Y2635200D01*
X6024500Y2626730D01*
X6013240Y2622500D01*
X6000370Y2626730D01*
X5990720Y2635200D01*
X5984280Y2647900D01*
X5981070Y2664840D01*
X5984280Y2679650D01*
X5992330Y2694470D01*
X6001980Y2702940D01*
X6013240Y2705050D01*
X6026110Y2700820D01*
X6035760Y2690230D01*
X6045410Y2671180D01*
G01X5716990Y3203500D02*
Y3076500D01*
X5757200D01*
X5770070Y3082850D01*
X5778120Y3091320D01*
X5781330Y3108250D01*
X5778120Y3125180D01*
X5768460Y3135770D01*
X5757200Y3142120D01*
X5716990D01*
G01X5757200D02*
X5781330Y3203500D01*
G01X5848130Y3097670D02*
X5857790Y3084970D01*
X5869050Y3078620D01*
X5881920Y3076500D01*
X5898000Y3080730D01*
X5909270Y3091320D01*
X5912480Y3104010D01*
X5910870Y3116720D01*
X5904440Y3127300D01*
X5872270Y3148470D01*
X5857790Y3163280D01*
X5848130Y3184450D01*
X5844920Y3203500D01*
X5912480D01*
G01X6008240D02*
Y3076500D01*
X5988940Y3101900D01*
G01Y3203500D02*
X6027540D01*
M02*
