M48
METRIC,LZ
T01C.2
T02C.4
T03C.635
T04C.66
T05C1.
T06C1.02
T07C3.2
;LEADER: 12 
;HEADER: 
;CODE  : ASCII 
;FILE  : 1-1-4.drl for board D:/CTW_SEVINA/PCB/DE10_NANO/Version_11/BOARD/#Taaaaag34240.tmp ... layers TOP and BOTTOM
;T01 Holesize 1. = 0.200000 Tolerance = +0.000000/-0.000000 PLATED MM Quantity = 12
;T02 Holesize 2. = 0.400000 Tolerance = +0.000000/-0.000000 PLATED MM Quantity = 76
;T03 Holesize 3. = 0.635000 Tolerance = +0.000000/-0.000000 PLATED MM Quantity = 4
;T04 Holesize 4. = 0.660000 Tolerance = +0.000000/-0.000000 PLATED MM Quantity = 6
;T05 Holesize 5. = 1.000000 Tolerance = +0.000000/-0.000000 PLATED MM Quantity = 23
;T06 Holesize 6. = 1.020000 Tolerance = +0.000000/-0.000000 PLATED MM Quantity = 80
;T07 Holesize 7. = 3.200000 Tolerance = +0.000000/-0.000000 PLATED MM Quantity = 4
%
G90
T01
X0041025Y045485
X003185Y0464025
X00502Y0464025
X0041025Y04732
X003185Y0482375
X00502Y0482375
X0041025Y049155
X0059375Y049155
X006855Y0482375
X0059375Y04732
X006855Y0464025
X0059375Y045485
T02
X-0013909Y0025909
X00118Y00665
X00277Y00266
X00358Y00098
X005998Y00277
X00731Y0046
X00805Y00785
X00857Y00281
X009455Y006555
X015055Y006985
X017155Y001435
X01751Y00458
X02207Y00373
X02364Y00376
X0336409Y0074291
X036615Y006145
X06117Y00365
X06833Y00707
X07069Y00701
X07191Y00704
X06454Y01209
X06283Y01214
X06122Y01663
X05968Y01386
X04904Y01774
X042005Y014685
X03388Y01082
X0302109Y0129691
X02547Y02021
X02137Y01635
X0193Y01634
X01525Y01182
X01252Y01183
X01045Y01449
X00625Y01657
X00189Y01107
X-00073Y01109
X02784Y02774
X02973Y02647
X02991Y02451
X02993Y03016
X0342Y02113
X03476Y0233
X03604Y02521
X04181Y02585
X04306Y02588
X044115Y025835
X04519Y02588
X053265Y025615
X0533Y022235
X0533Y026825
X0533Y028555
X0533Y030185
X053315Y023825
X06255Y03832
X05941Y03839
X0533Y034675
X0533Y033575
X0533Y032475
X0533Y031335
X03559Y03597
X-00122Y0378657
X-00248Y04366
X-00121Y04751
X016695Y042605
X02151Y04125
X02522Y04122
X0359Y04295
X03893Y04295
X0379Y0519
X03586Y05228
X03274Y05224
X030055Y051065
X025445Y054395
X0177134Y05142
X-00248Y05372
T03
X00834Y-001085
X01088Y-001085
X01342Y-001085
X01596Y-001085
T04
X00383Y062035
X00637Y062035
X00891Y062035
X01145Y062035
X01399Y062035
X01653Y062035
T05
X-00166Y00662
X00731Y01086
X01253Y01688
X02594Y01465
X02847Y00838
X02847Y01076
X02991Y00498
X03232Y00502
X03606Y01706
X04269Y00883
X04553Y00884
X04902Y00879
X05217Y00874
X05558Y00876
X05809Y00884
X06119Y00875
X06833Y00893
X06694Y03977
X03966Y05725
X0284Y05579
X02835Y05792
X02252Y05427
X01966Y05423
T06
X02005Y-00165
X02259Y-00165
X02513Y-00165
X02767Y-00165
X03021Y-00165
X03275Y-00165
X03529Y-00165
X03783Y-00165
X04037Y-00165
X04291Y-00165
X04545Y-00165
X04799Y-00165
X05053Y-00165
X05307Y-00165
X05561Y-00165
X05815Y-00165
X06069Y-00165
X06323Y-00165
X06577Y-00165
X06831Y-00165
X06831Y00089
X06577Y00089
X06323Y00089
X06069Y00089
X05815Y00089
X05561Y00089
X05307Y00089
X05053Y00089
X04799Y00089
X04545Y00089
X04291Y00089
X04037Y00089
X03783Y00089
X03529Y00089
X03275Y00089
X03021Y00089
X02767Y00089
X02513Y00089
X02259Y00089
X02005Y00089
X02005Y06134
X02259Y06134
X02513Y06134
X02767Y06134
X03021Y06134
X03275Y06134
X03529Y06134
X03783Y06134
X04037Y06134
X04291Y06134
X04545Y06134
X04799Y06134
X05053Y06134
X05307Y06134
X05561Y06134
X05815Y06134
X06069Y06134
X06323Y06134
X06577Y06134
X06831Y06134
X06831Y06388
X06577Y06388
X06323Y06388
X06069Y06388
X05815Y06388
X05561Y06388
X05307Y06388
X05053Y06388
X04799Y06388
X04545Y06388
X04291Y06388
X04037Y06388
X03783Y06388
X03529Y06388
X03275Y06388
X03021Y06388
X02767Y06388
X02513Y06388
X02259Y06388
X02005Y06388
T07
X0Y0
X0Y06223
X10044Y06223
X10044Y0
M30
