G04 ================== begin FILE IDENTIFICATION RECORD ==================*
G04 Layout Name:  D:/CTW_SEVINA/PCB/DE10_NANO/Version_11/BOARD/1.brd*
G04 Film Name:    GND*
G04 File Format:  Gerber RS274X*
G04 File Origin:  Cadence Allegro 22.1-P001*
G04 Origin Date:  Mon Mar 16 15:45:38 2026*
G04 *
G04 Layer:  ETCH/GND*
G04 Layer:  PIN/GND*
G04 Layer:  VIA CLASS/GND*
G04 *
G04 Offset:    (0.0000 0.0000)*
G04 Mirror:    No*
G04 Mode:      Positive*
G04 Rotation:  0*
G04 FullContactRelief:  No*
G04 UndefLineWidth:     0.1270*
G04 ================== end FILE IDENTIFICATION RECORD ====================*
%FSLAX25Y25*MOMM*%
%IR0*IPPOS*OFA0.00000B0.00000*MIA0B0*SFA1.00000B1.00000*%
%ADD12C,.3*%
%ADD10C,.8*%
%ADD14C,.985*%
%ADD11C,1.6*%
%ADD15C,1.37*%
%ADD13C,1.168*%
%ADD16C,.254*%
%ADD25C,.5544*%
%ADD17C,1.0004*%
%ADD20C,4.0004*%
%ADD27C,1.4224*%
%ADD18C,1.8004*%
%ADD24C,1.6244*%
%ADD23C,1.5704*%
%ADD22C,1.1854*%
%ADD21C,1.2394*%
%ADD26C,1.3684*%
%ADD19C,1.8544*%
G75*
%LPD*%
G75*
G36*
G01X10356000Y-312000D02*
X-311000D01*
Y6535000D01*
X10356000D01*
Y-312000D01*
G37*
%LPC*%
G75*
G36*
G01X4368680Y2609350D02*
G02X4411500Y2633520I42820J-25845D01*
G02X4455240Y2607770I0J-50024D01*
G03X4473390Y2608530I8885J4928D01*
G02X4519000Y2638020I45610J-20526D01*
G02Y2537980I0J-50020D01*
G02X4475260Y2563730I0J50024D01*
G03X4457110Y2562970I-8885J-4928D01*
G02X4411500Y2533480I-45610J20526D01*
G02X4366630Y2561390I0J50023D01*
G03X4348820Y2562150I-9113J-4492D01*
G02X4306000Y2537980I-42820J25845D01*
G02Y2638020I0J50020D01*
G02X4350870Y2610110I0J-50023D01*
G03X4368680Y2609350I9113J4492D01*
G37*
G36*
G01X5309700Y3421790D02*
G02X5279980Y3467500I20291J45710D01*
G02X5380020I50020J0D01*
G02X5350300Y3421790I-50011J0D01*
G03Y3403210I4125J-9290D01*
G02Y3311790I-20291J-45710D01*
G03Y3293210I4125J-9290D01*
G02X5380020Y3247500I-20291J-45710D01*
G02X5279980I-50020J0D01*
G02X5309700Y3293210I50011J0D01*
G03Y3311790I-4125J9290D01*
G02Y3403210I20291J45710D01*
G03Y3421790I-4125J9290D01*
G37*
G54D25*
X318500Y4640250D03*
X410250Y4548500D03*
X502000Y4640250D03*
X593750Y4548500D03*
X685500Y4640250D03*
X318500Y4823750D03*
X410250Y4732000D03*
Y4915500D03*
X502000Y4823750D03*
X593750Y4732000D03*
Y4915500D03*
X685500Y4823750D03*
G54D17*
X358000Y98000D03*
X1771340Y5142000D03*
X2547000Y2021000D03*
X2784000Y2774000D03*
X5968000Y1386000D03*
X3661500Y614500D03*
X599800Y277000D03*
X1715500Y143500D03*
X118000Y665000D03*
X1751000Y458000D03*
X2207000Y373000D03*
X2364000Y376000D03*
X6117000Y365000D03*
X6833000Y707000D03*
X7069000Y701000D03*
X7191000Y704000D03*
X3021090Y1296910D03*
X3388000Y1082000D03*
X6283000Y1214000D03*
X6454000Y1209000D03*
X4904000Y1774000D03*
X6122000Y1663000D03*
X5331500Y2382500D03*
X5330000Y2223500D03*
X3604000Y2521000D03*
X4181000Y2585000D03*
X5326500Y2561500D03*
X5330000Y3018500D03*
Y2855500D03*
Y2682500D03*
Y3133500D03*
X-122000Y3786570D03*
X-121000Y4751000D03*
X2544500Y5439500D03*
X3364090Y742910D03*
X2991000Y2451000D03*
X2973000Y2647000D03*
X4200500Y1468500D03*
X731000Y460000D03*
G54D20*
X0Y0D03*
X10044000D03*
X0Y6223000D03*
X10044000D03*
G54D27*
X637000Y6203500D03*
G54D18*
X1253000Y1688000D03*
X4902000Y879000D03*
X2594000Y1465000D03*
X731000Y1086000D03*
X1966000Y5423000D03*
X2835000Y5792000D03*
X4553000Y884000D03*
X3606000Y1706000D03*
X3232000Y502000D03*
X5217000Y874000D03*
X2252000Y5427000D03*
X3966000Y5725000D03*
X6119000Y875000D03*
X5558000Y876000D03*
X5809000Y884000D03*
X2991000Y498000D03*
X2847000Y1076000D03*
Y838000D03*
X4269000Y883000D03*
X6833000Y893000D03*
X2840000Y5579000D03*
X-166000Y662000D03*
G54D24*
X3275000Y-165000D03*
X5561000Y6388000D03*
G54D23*
X2005000Y-165000D03*
Y89000D03*
X2259000D03*
Y-165000D03*
X2767000Y89000D03*
Y-165000D03*
X2513000Y89000D03*
Y-165000D03*
X3275000Y89000D03*
X3021000D03*
Y-165000D03*
X3783000Y89000D03*
Y-165000D03*
X3529000Y89000D03*
Y-165000D03*
X4291000Y89000D03*
Y-165000D03*
X4037000Y89000D03*
Y-165000D03*
X5053000Y89000D03*
Y-165000D03*
X4799000Y89000D03*
Y-165000D03*
X4545000Y89000D03*
Y-165000D03*
X5561000Y89000D03*
Y-165000D03*
X5307000Y89000D03*
Y-165000D03*
X6069000Y89000D03*
Y-165000D03*
X5815000Y89000D03*
Y-165000D03*
X6577000Y89000D03*
Y-165000D03*
X6323000Y89000D03*
Y-165000D03*
X6831000Y89000D03*
Y-165000D03*
X2259000Y6388000D03*
Y6134000D03*
X2005000Y6388000D03*
Y6134000D03*
X2767000Y6388000D03*
Y6134000D03*
X2513000Y6388000D03*
Y6134000D03*
X3275000Y6388000D03*
Y6134000D03*
X3021000Y6388000D03*
Y6134000D03*
X3783000Y6388000D03*
Y6134000D03*
X3529000Y6388000D03*
Y6134000D03*
X4291000Y6388000D03*
Y6134000D03*
X4037000Y6388000D03*
Y6134000D03*
X5053000Y6388000D03*
Y6134000D03*
X4799000Y6388000D03*
Y6134000D03*
X4545000Y6388000D03*
Y6134000D03*
X5561000D03*
X5307000Y6388000D03*
Y6134000D03*
X6069000Y6388000D03*
Y6134000D03*
X5815000Y6388000D03*
Y6134000D03*
X6577000Y6388000D03*
Y6134000D03*
X6323000Y6388000D03*
Y6134000D03*
X6831000Y6388000D03*
Y6134000D03*
G54D22*
X834000Y-108500D03*
X1596000D03*
X1342000D03*
G54D21*
X1088000D03*
G54D26*
X383000Y6203500D03*
X891000D03*
X1145000D03*
X1399000D03*
X1653000D03*
G54D19*
X6694000Y3977000D03*
%LPD*%
G75*
G54D10*
X-139090Y259090D03*
X-73000Y1109000D03*
X-122000Y3786570D03*
X-248000Y4366000D03*
X-121000Y4751000D03*
X-248000Y5372000D03*
X277000Y266000D03*
X358000Y98000D03*
X118000Y665000D03*
X189000Y1107000D03*
X857000Y281000D03*
X599800Y277000D03*
X945500Y655500D03*
X805000Y785000D03*
X731000Y460000D03*
X1045000Y1449000D03*
X625000Y1657000D03*
X1505500Y698500D03*
X1525000Y1182000D03*
X1252000Y1183000D03*
X1669500Y4260500D03*
X1715500Y143500D03*
X2207000Y373000D03*
X1751000Y458000D03*
X1930000Y1634000D03*
X2137000Y1635000D03*
X2151000Y4125000D03*
X1771340Y5142000D03*
X2364000Y376000D03*
X2547000Y2021000D03*
X2784000Y2774000D03*
X2522000Y4122000D03*
X2544500Y5439500D03*
X3021090Y1296910D03*
X2991000Y2451000D03*
X2973000Y2647000D03*
X2993000Y3016000D03*
X3274000Y5224000D03*
X3005500Y5106500D03*
X3364090Y742910D03*
X3661500Y614500D03*
X3388000Y1082000D03*
X3420000Y2113000D03*
X3476000Y2330000D03*
X3604000Y2521000D03*
X3559000Y3597000D03*
X3590000Y4295000D03*
X3893000D03*
X3586000Y5228000D03*
X3790000Y5190000D03*
X4200500Y1468500D03*
X4181000Y2585000D03*
X4411500Y2583500D03*
X4306000Y2588000D03*
X4904000Y1774000D03*
X4519000Y2588000D03*
X5330000Y2223500D03*
X5331500Y2382500D03*
X5326500Y2561500D03*
X5330000Y2682500D03*
Y2855500D03*
Y3018500D03*
Y3247500D03*
Y3357500D03*
Y3467500D03*
Y3133500D03*
X6117000Y365000D03*
X5968000Y1386000D03*
X6122000Y1663000D03*
X5941000Y3839000D03*
X6454000Y1209000D03*
X6283000Y1214000D03*
X6255000Y3832000D03*
X6833000Y707000D03*
X7191000Y704000D03*
X7069000Y701000D03*
G54D11*
X-166000Y662000D03*
X731000Y1086000D03*
X1253000Y1688000D03*
X2252000Y5427000D03*
X1966000Y5423000D03*
X2847000Y838000D03*
Y1076000D03*
X2594000Y1465000D03*
X2840000Y5579000D03*
X2835000Y5792000D03*
X2991000Y498000D03*
X3232000Y502000D03*
X3606000Y1706000D03*
X4269000Y883000D03*
X3966000Y5725000D03*
X4553000Y884000D03*
X4902000Y879000D03*
X5217000Y874000D03*
X5558000Y876000D03*
X6119000Y875000D03*
X5809000Y884000D03*
X6694000Y3977000D03*
X6833000Y893000D03*
G54D12*
X502000Y4640250D03*
X410250Y4548500D03*
X318500Y4640250D03*
X502000Y4823750D03*
X410250Y4915500D03*
Y4732000D03*
X318500Y4823750D03*
X685500Y4640250D03*
X593750Y4548500D03*
X685500Y4823750D03*
X593750Y4915500D03*
Y4732000D03*
G54D13*
X383000Y6203500D03*
X637000D03*
X891000D03*
X1145000D03*
X1399000D03*
X1653000D03*
G54D14*
X1088000Y-108500D03*
X834000D03*
X1596000D03*
X1342000D03*
G54D15*
X2005000Y-165000D03*
Y89000D03*
X2259000Y-165000D03*
Y89000D03*
Y6388000D03*
Y6134000D03*
X2005000Y6388000D03*
Y6134000D03*
X2513000Y-165000D03*
Y89000D03*
X2767000Y-165000D03*
Y89000D03*
Y6388000D03*
Y6134000D03*
X2513000Y6388000D03*
Y6134000D03*
X3021000Y-165000D03*
Y89000D03*
X3275000Y-165000D03*
Y89000D03*
Y6388000D03*
Y6134000D03*
X3021000Y6388000D03*
Y6134000D03*
X3529000Y-165000D03*
Y89000D03*
X3783000Y-165000D03*
Y89000D03*
Y6388000D03*
Y6134000D03*
X3529000Y6388000D03*
Y6134000D03*
X4037000Y-165000D03*
Y89000D03*
X4291000Y-165000D03*
Y89000D03*
Y6388000D03*
Y6134000D03*
X4037000Y6388000D03*
Y6134000D03*
X4545000Y-165000D03*
Y89000D03*
X4799000Y-165000D03*
Y89000D03*
X5053000Y-165000D03*
Y89000D03*
Y6388000D03*
Y6134000D03*
X4799000Y6388000D03*
Y6134000D03*
X4545000Y6388000D03*
Y6134000D03*
X5307000Y-165000D03*
Y89000D03*
X5561000Y-165000D03*
Y89000D03*
Y6388000D03*
Y6134000D03*
X5307000Y6388000D03*
Y6134000D03*
X5815000Y-165000D03*
Y89000D03*
X6069000Y-165000D03*
Y89000D03*
Y6388000D03*
Y6134000D03*
X5815000Y6388000D03*
Y6134000D03*
X6323000Y-165000D03*
Y89000D03*
X6577000Y-165000D03*
Y89000D03*
Y6388000D03*
Y6134000D03*
X6323000Y6388000D03*
Y6134000D03*
X6831000Y-165000D03*
Y89000D03*
Y6388000D03*
Y6134000D03*
G54D16*
G01X318500Y4607450D02*
Y4640250D01*
G01D02*
Y4673050D01*
G01X285700Y4640250D02*
X318500D01*
G01D02*
X351300D01*
G01X410250Y4515700D02*
Y4548500D01*
G01D02*
Y4581300D01*
G01X377450Y4548500D02*
X410250D01*
G01D02*
X443050D01*
G01X502000Y4607450D02*
Y4640250D01*
G01D02*
Y4673050D01*
G01X469200Y4640250D02*
X502000D01*
G01D02*
X534800D01*
G01X318500Y4790950D02*
Y4823750D01*
G01D02*
Y4856550D01*
G01X285700Y4823750D02*
X318500D01*
G01D02*
X351300D01*
G01X410250Y4699200D02*
Y4732000D01*
G01D02*
Y4764800D01*
G01X377450Y4732000D02*
X410250D01*
G01D02*
X443050D01*
G01X410250Y4882700D02*
Y4915500D01*
G01D02*
Y4948300D01*
G01X377450Y4915500D02*
X410250D01*
G01D02*
X443050D01*
G01X502000Y4790950D02*
Y4823750D01*
G01D02*
Y4856550D01*
G01X469200Y4823750D02*
X502000D01*
G01D02*
X534800D01*
G01X1088000Y-175550D02*
Y-108500D01*
G01D02*
Y-41450D01*
G01X1020950Y-108500D02*
X1088000D01*
G01D02*
X1155050D01*
G01X685500Y4607450D02*
Y4640250D01*
G01D02*
Y4673050D01*
G01X652700Y4640250D02*
X685500D01*
G01D02*
X718300D01*
G01X593750Y4515700D02*
Y4548500D01*
G01D02*
Y4581300D01*
G01X560950Y4548500D02*
X593750D01*
G01D02*
X626550D01*
G01X593750Y4699200D02*
Y4732000D01*
G01D02*
Y4764800D01*
G01X560950Y4732000D02*
X593750D01*
G01D02*
X626550D01*
G01X593750Y4882700D02*
Y4915500D01*
G01D02*
Y4948300D01*
G01X560950Y4915500D02*
X593750D01*
G01D02*
X626550D01*
G01X685500Y4790950D02*
Y4823750D01*
G01D02*
Y4856550D01*
G01X652700Y4823750D02*
X685500D01*
G01D02*
X718300D01*
G01X637000Y6127300D02*
Y6203500D01*
G01D02*
Y6279700D01*
G01X560800Y6203500D02*
X637000D01*
G01D02*
X713200D01*
G01X3275000Y-251300D02*
Y-165000D01*
G01D02*
Y-78700D01*
G01X3188700Y-165000D02*
X3275000D01*
G01D02*
X3361300D01*
G01X5474700Y6388000D02*
X5561000D01*
G01Y6301700D02*
Y6388000D01*
G01D02*
Y6474300D01*
G01Y6388000D02*
X5647300D01*
G01X6596200Y3977000D02*
X6694000D01*
G01Y3879200D02*
Y3977000D01*
G01D02*
Y4074800D01*
G01Y3977000D02*
X6791800D01*
M02*
