G04 ================== begin FILE IDENTIFICATION RECORD ==================*
G04 Layout Name:  D:/CTW_SEVINA/PCB/DE10_NANO/Version_11/BOARD/1.brd*
G04 Film Name:    TOP*
G04 File Format:  Gerber RS274X*
G04 File Origin:  Cadence Allegro 22.1-P001*
G04 Origin Date:  Mon Mar 16 15:45:38 2026*
G04 *
G04 Layer:  ETCH/TOP*
G04 Layer:  PIN/TOP*
G04 Layer:  VIA CLASS/TOP*
G04 *
G04 Offset:    (0.0000 0.0000)*
G04 Mirror:    No*
G04 Mode:      Positive*
G04 Rotation:  0*
G04 FullContactRelief:  No*
G04 UndefLineWidth:     0.1270*
G04 ================== end FILE IDENTIFICATION RECORD ====================*
%FSLAX25Y25*MOMM*%
%IR0*IPPOS*OFA0.00000B0.00000*MIA0B0*SFA1.00000B1.00000*%
%ADD32R,1.1X.3*%
%ADD25R,2.X.9*%
%ADD15R,.9X2.*%
%ADD19C,.3*%
%ADD11C,.8*%
%ADD22C,.985*%
%ADD33R,1.4732X.889*%
%ADD23R,.985X.985*%
%ADD30R,1.X1.4*%
%ADD31R,3.1X2.3*%
%ADD17R,1.016X1.2*%
%ADD18R,1.33X1.33*%
%ADD14R,1.47X1.16*%
%ADD10C,3.21*%
%ADD21R,1.16X1.47*%
%ADD13C,1.6*%
%ADD16R,.55X.25*%
%ADD27C,1.37*%
%ADD28R,1.1938X1.016*%
%ADD20C,1.168*%
%ADD12R,1.016X1.1938*%
%ADD29R,1.37X1.37*%
%ADD26R,1.168X1.168*%
%AMMACRO24*
4,1,44,.265,.2887,
.265,-.2887,
.264005,-.300203,
.261027,-.311358,
.256158,-.321826,
.249545,-.331291,
.241389,-.339462,
.231938,-.346094,
.221479,-.350984,
.210329,-.353983,
.198828,-.355,
.1988,-.355,
-.1988,-.355,
-.210301,-.353988,
-.221452,-.350993,
-.231913,-.346108,
-.241367,-.339481,
-.249527,-.331312,
-.256144,-.321851,
-.261018,-.311385,
-.264,-.300231,
-.265,-.288728,
-.265,-.2887,
-.265,.2887,
-.264005,.300203,
-.261027,.311358,
-.256158,.321826,
-.249545,.331291,
-.241389,.339462,
-.231938,.346094,
-.221479,.350984,
-.210329,.353983,
-.198828,.355,
-.1988,.355,
.1988,.355,
.210301,.353988,
.221452,.350993,
.231913,.346108,
.241367,.339481,
.249527,.331312,
.256144,.321851,
.261018,.311385,
.264,.300231,
.265,.288728,
.265,.2887,
0.0*
%
%ADD24MACRO24*%
%ADD34C,.2*%
%ADD35C,.4*%
%ADD36C,.5*%
%ADD37C,.6*%
%ADD38C,1.*%
G75*
%LPD*%
G75*
G36*
G01X4689060Y5032520D02*
Y5347480D01*
X4541740D01*
Y5032520D01*
X4689060D01*
G37*
G54D10*
X0Y0D03*
Y6223000D03*
X10044000Y0D03*
Y6223000D03*
G54D20*
X383000Y6203500D03*
X637000D03*
X891000D03*
X1145000D03*
X1399000D03*
G54D11*
X-139090Y259090D03*
X-73000Y1109000D03*
X-122000Y3786570D03*
X-248000Y4366000D03*
X-121000Y4751000D03*
X-248000Y5372000D03*
X277000Y266000D03*
X358000Y98000D03*
X118000Y665000D03*
X189000Y1107000D03*
X857000Y281000D03*
X599800Y277000D03*
X945500Y655500D03*
X805000Y785000D03*
X731000Y460000D03*
X1045000Y1449000D03*
X625000Y1657000D03*
X1505500Y698500D03*
X1525000Y1182000D03*
X1252000Y1183000D03*
X1669500Y4260500D03*
X1715500Y143500D03*
X2207000Y373000D03*
X1751000Y458000D03*
X1930000Y1634000D03*
X2137000Y1635000D03*
X2151000Y4125000D03*
X1771340Y5142000D03*
X2364000Y376000D03*
X2547000Y2021000D03*
X2784000Y2774000D03*
X2522000Y4122000D03*
X2544500Y5439500D03*
X3021090Y1296910D03*
X2991000Y2451000D03*
X2973000Y2647000D03*
X2993000Y3016000D03*
X3274000Y5224000D03*
X3005500Y5106500D03*
X3364090Y742910D03*
X3661500Y614500D03*
X3388000Y1082000D03*
X3420000Y2113000D03*
X3476000Y2330000D03*
X3604000Y2521000D03*
X3559000Y3597000D03*
X3590000Y4295000D03*
X3893000D03*
X3586000Y5228000D03*
X3790000Y5190000D03*
X4200500Y1468500D03*
X4181000Y2585000D03*
X4411500Y2583500D03*
X4306000Y2588000D03*
X4904000Y1774000D03*
X4519000Y2588000D03*
X5330000Y2223500D03*
X5331500Y2382500D03*
X5326500Y2561500D03*
X5330000Y2682500D03*
Y2855500D03*
Y3018500D03*
Y3247500D03*
Y3357500D03*
Y3467500D03*
Y3133500D03*
X6117000Y365000D03*
X5968000Y1386000D03*
X6122000Y1663000D03*
X5941000Y3839000D03*
X6454000Y1209000D03*
X6283000Y1214000D03*
X6255000Y3832000D03*
X6833000Y707000D03*
X7191000Y704000D03*
X7069000Y701000D03*
G54D12*
X-139090Y411000D03*
X31090D03*
X356910Y-109000D03*
X527090D03*
X1044910Y145500D03*
X1215090D03*
X1409910Y143500D03*
X1580090D03*
X5028090Y4151000D03*
X4857910D03*
G54D21*
X857000Y147500D03*
X681000D03*
X805000Y653000D03*
X629000D03*
G54D30*
X3231000Y1246000D03*
X3136000Y1466000D03*
X3326000D03*
X3882000Y1468500D03*
X3977000Y1248500D03*
X4072000Y1468500D03*
G54D13*
X-166000Y662000D03*
X731000Y1086000D03*
X1253000Y1688000D03*
X2252000Y5427000D03*
X1966000Y5423000D03*
X2847000Y838000D03*
Y1076000D03*
X2594000Y1465000D03*
X2840000Y5579000D03*
X2835000Y5792000D03*
X2991000Y498000D03*
X3232000Y502000D03*
X3606000Y1706000D03*
X4269000Y883000D03*
X3966000Y5725000D03*
X4553000Y884000D03*
X4902000Y879000D03*
X5217000Y874000D03*
X5558000Y876000D03*
X6119000Y875000D03*
X5809000Y884000D03*
X6694000Y3977000D03*
X6833000Y893000D03*
G54D31*
X3166000Y2113000D03*
Y3597000D03*
G54D22*
X1088000Y-108500D03*
X1596000D03*
X1342000D03*
G54D14*
X-73000Y1296500D03*
Y1472500D03*
X189000Y1296500D03*
Y1472500D03*
X1115000Y655500D03*
Y479500D03*
X895000Y1273000D03*
Y1449000D03*
X1252000Y1306000D03*
X1525000Y1302000D03*
X1252000Y1482000D03*
X1525000Y1478000D03*
X2137000Y1294500D03*
Y1470500D03*
X2151000Y3959500D03*
Y3783500D03*
X2522000Y3968500D03*
Y3792500D03*
X2838000Y5282500D03*
Y5106500D03*
X3274000Y5364000D03*
Y5540000D03*
X3590000Y4609500D03*
Y4433500D03*
X3893000Y4606500D03*
Y4430500D03*
X3586000Y5369500D03*
Y5545500D03*
X5941000Y4151500D03*
Y3975500D03*
X6255000Y4152500D03*
Y3976500D03*
G54D23*
X834000Y-108500D03*
G54D32*
X3336000Y2280000D03*
Y2330000D03*
Y2380000D03*
Y2430000D03*
Y2480000D03*
Y3030000D03*
Y2530000D03*
Y2580000D03*
Y2630000D03*
Y2680000D03*
Y2730000D03*
Y2780000D03*
Y2830000D03*
Y2880000D03*
Y2930000D03*
Y2980000D03*
Y3080000D03*
Y3130000D03*
Y3180000D03*
Y3230000D03*
Y3280000D03*
Y3330000D03*
Y3380000D03*
Y3430000D03*
G54D24*
X1405500Y570500D03*
X1505500D03*
X1605500D03*
Y373500D03*
X1505500D03*
X1405500D03*
G54D33*
X3961600Y4960000D03*
Y5190000D03*
Y5420000D03*
G54D15*
X6000Y3982000D03*
X-121000D03*
X-248000D03*
Y5682000D03*
X-121000D03*
X6000D03*
X514000Y3982000D03*
X387000D03*
X260000D03*
X133000D03*
Y5682000D03*
X260000D03*
X387000D03*
X514000D03*
X768000Y3982000D03*
X641000D03*
X1149000D03*
X1022000D03*
X895000D03*
X641000Y5682000D03*
X768000D03*
X895000D03*
X1022000D03*
X1149000D03*
X1403000Y3982000D03*
X1276000D03*
Y5682000D03*
X1403000D03*
G54D34*
G01X99480Y186110D02*
X88230Y190770D01*
G01X358000Y98000D02*
Y-29520D01*
X357910Y-29610D01*
X356910Y-109000D01*
G01X1215090Y270000D02*
Y346000D01*
X1195090Y366000D01*
X1035000D01*
X873000Y528000D01*
X670200D01*
X602200Y460000D01*
X552000D01*
G01Y360000D02*
Y324800D01*
X599800Y277000D01*
G01X1605500Y570500D02*
Y628700D01*
X1603000Y631200D01*
Y760000D01*
X1505000Y858000D01*
X501000D01*
X453300Y810300D01*
Y315880D01*
X492180Y277000D01*
X599800D01*
G01X552000Y410000D02*
X501800D01*
X486000Y425800D01*
Y634000D01*
X505000Y653000D01*
X629000D01*
G01X731000Y460000D02*
X677000D01*
X627000Y410000D01*
X552000D01*
G01X31090Y411000D02*
X225800D01*
X226800Y410000D01*
X277000D01*
G01X1771340Y5142000D02*
Y4098340D01*
X1456000Y3783000D01*
X72990D01*
X6000Y3849990D01*
Y3982000D01*
G01X891000Y6203500D02*
X708500Y6021000D01*
X349300D01*
X133000Y5804700D01*
Y5682000D01*
G01X1145000Y6203500D02*
X864500Y5923000D01*
X353000D01*
X260000Y5830000D01*
Y5682000D01*
G01X1980000Y5628410D02*
X1897610D01*
X1492020Y6034000D01*
X1197000D01*
X1022000Y5859000D01*
Y5682000D01*
G01X1215090Y145500D02*
Y18410D01*
X1342000Y-108500D01*
G01X1215090Y270000D02*
Y145500D01*
G01X1409910Y143500D02*
Y77590D01*
X1596000Y-108500D01*
G01X1605500Y373500D02*
X2173500D01*
X2174000Y373000D01*
X2207000D01*
G01D02*
X2105000Y271000D01*
X1216090D01*
X1215090Y270000D01*
G01X1605500Y570500D02*
X2169500D01*
X2364000Y376000D01*
G01X2254000Y5624410D02*
X2245110D01*
X2178250Y5557550D01*
Y5548660D01*
X2095000Y5465410D01*
Y5349010D01*
X2042290Y5296300D01*
X1860450D01*
X1841300Y5315450D01*
Y5425870D01*
X1843000Y5427570D01*
Y5599010D01*
X1459010Y5983000D01*
X1271000D01*
X1149000Y5861000D01*
Y5682000D01*
G01X1403000D02*
Y5879000D01*
X1420000Y5896000D01*
X1464000D01*
X1738000Y5622000D01*
Y5318000D01*
X1837000Y5219000D01*
X2202090D01*
X2532000Y5548910D01*
Y5622410D01*
G01X2544500Y5281090D02*
X2386090D01*
X2247000Y5142000D01*
X1771340D01*
G01X2005000Y6134000D02*
Y5961200D01*
X2171610Y5794590D01*
X2254000D01*
G01X2005000Y6388000D02*
X1865000Y6248000D01*
Y6011000D01*
X1980000Y5896000D01*
Y5798590D01*
G01X1966000Y5423000D02*
X2118000Y5575000D01*
Y5742980D01*
X2062390Y5798590D01*
X1980000D01*
G01X3982500Y912090D02*
X3634590D01*
X3360500Y638000D01*
X2918000D01*
X2767000Y487000D01*
Y89000D01*
G01X2847000Y838000D02*
X2659000Y650000D01*
Y-57000D01*
X2767000Y-165000D01*
G01X2594000Y1465000D02*
X2761520D01*
X2763610Y1467090D01*
X2846000D01*
G01X3336000Y2380000D02*
X2906000D01*
X2547000Y2021000D01*
G01X2544500Y5281090D02*
Y5439500D01*
G01Y5281090D02*
X2740390D01*
X2741800Y5282500D01*
X2838000D01*
G01X2259000Y6388000D02*
X2396000Y6251000D01*
Y6035000D01*
X2532000Y5899000D01*
Y5792590D01*
G01D02*
X2731710D01*
X2732300Y5792000D01*
X2835000D01*
G01X2252000Y5427000D02*
X2398000Y5573000D01*
Y5732980D01*
X2336390Y5794590D01*
X2254000D01*
G01X3021000Y89000D02*
Y468000D01*
X2991000Y498000D01*
G01X3232000Y502000D02*
X3144000Y414000D01*
Y-42000D01*
X3021000Y-165000D01*
G01X3231500Y913090D02*
Y1152800D01*
X3231000Y1153300D01*
Y1246000D01*
G01X3231500Y913090D02*
X3078090D01*
X3002000Y837000D01*
X2950700D01*
X2949700Y838000D01*
X2847000D01*
G01X3136000Y1466000D02*
X2929480D01*
X2928390Y1467090D01*
X2846000D01*
G01X2838000Y5282500D02*
Y5474300D01*
X2840000Y5476300D01*
Y5579000D01*
G01X3606500Y1468090D02*
X3615390D01*
G01X3882000Y1468500D02*
X3809300D01*
X3808890Y1468090D01*
X3615390D01*
G01X3602000Y1481480D02*
X3615390Y1468090D01*
G01X3606500D02*
Y1602800D01*
X3606000Y1603300D01*
Y1706000D01*
G01X4519000Y2588000D02*
X4384700Y2722300D01*
X4140940D01*
X4098640Y2680000D01*
X3336000D01*
G01X4181000Y2585000D02*
X4177900Y2581900D01*
X3580040D01*
X3528140Y2530000D01*
X3336000D01*
G01X4411500Y2583500D02*
X4317300Y2677700D01*
X4142590D01*
X4112190Y2647300D01*
X3552940D01*
X3535640Y2630000D01*
X3336000D01*
G01Y2480000D02*
X3563000D01*
X3604000Y2521000D01*
G01X5330000Y2223500D02*
X4723500Y2830000D01*
X3336000D01*
G01Y2880000D02*
X4799000D01*
X4802000Y2877000D01*
X4837000D01*
X5331500Y2382500D01*
G01X3336000Y2930000D02*
X4931000D01*
X4933000Y2932000D01*
X4956000D01*
X5326500Y2561500D01*
G01X5330000Y2682500D02*
X4982500Y3030000D01*
X3336000D01*
G01X4306000Y2588000D02*
X4262860D01*
X4205860Y2645000D01*
X4156140D01*
X4125740Y2614600D01*
X3566490D01*
X3531890Y2580000D01*
X3336000D01*
G01X5330000Y3247500D02*
X5267300D01*
X5249800Y3230000D01*
X3336000D01*
G01X5330000Y3357500D02*
X5252500Y3280000D01*
X3336000D01*
G01X5330000Y3467500D02*
X5192500Y3330000D01*
X3336000D01*
G01X5330000Y2855500D02*
X5105500Y3080000D01*
X3336000D01*
G01X5330000Y3018500D02*
X5218500Y3130000D01*
X3336000D01*
G01X5330000Y3133500D02*
X5283500Y3180000D01*
X3336000D01*
G01X3982500Y912090D02*
Y985590D01*
X3977000Y991090D01*
Y1248500D01*
G01X3982500Y912090D02*
X4103920D01*
X4133010Y883000D01*
X4269000D01*
G01X5053000Y89000D02*
X4551000Y591000D01*
Y773300D01*
X4553000Y884000D01*
G01X4902000Y879000D02*
Y568000D01*
X5157000Y313000D01*
Y-61000D01*
X5053000Y-165000D01*
G01X4904000Y1774000D02*
Y1711300D01*
X4902000Y1709300D01*
Y879000D01*
G01X5558000Y876000D02*
Y548000D01*
X5449000Y439000D01*
Y-23000D01*
X5307000Y-165000D01*
G01Y89000D02*
Y784000D01*
X5217000Y874000D01*
G01X6283000Y1214000D02*
Y303000D01*
X6069000Y89000D01*
G01X5968000Y1386000D02*
Y-64000D01*
X6069000Y-165000D01*
G01X5815000Y89000D02*
Y775300D01*
X5809000Y781300D01*
Y884000D01*
G01X7069000Y701000D02*
Y-3000D01*
X7049000Y-23000D01*
X6719000D01*
X6577000Y-165000D01*
G01X6454000Y1209000D02*
Y-34000D01*
X6323000Y-165000D01*
G01X6119000Y875000D02*
X6116000Y1497000D01*
X6122000Y1503000D01*
Y1663000D01*
G01X6831000Y89000D02*
Y642300D01*
X6833000Y644300D01*
Y707000D01*
G01X7191000Y704000D02*
Y-152000D01*
X7171000Y-172000D01*
X6929200D01*
X6922200Y-165000D01*
X6831000D01*
G54D16*
X552000Y460000D03*
Y410000D03*
Y360000D03*
X277000D03*
Y410000D03*
Y460000D03*
G54D25*
X1503000Y4641500D03*
Y4514500D03*
Y4387500D03*
Y4260500D03*
Y5276500D03*
Y5149500D03*
Y5022500D03*
Y4895500D03*
Y4768500D03*
Y5403500D03*
G54D35*
G01X-166000Y662000D02*
X81500Y664500D01*
X118500D01*
G01X834000Y-108500D02*
X823500Y-119000D01*
G01X1044910Y145500D02*
Y53110D01*
X1047000Y51020D01*
Y-1000D01*
X939500Y-108500D01*
X834000D01*
G01X1715500Y143500D02*
Y70800D01*
X1714000Y69300D01*
Y-160000D01*
X1609000Y-265000D01*
X990500D01*
X834000Y-108500D01*
G01X1580090Y143500D02*
X1715500D01*
G01X1505500Y570500D02*
Y698500D01*
G54D26*
X1653000Y6203500D03*
G54D17*
X530000Y1274000D03*
X435000Y1486000D03*
X625000D03*
X1837000Y1295000D03*
X1742000Y1507000D03*
X1932000D03*
G54D36*
G01X118500Y664500D02*
X118000Y665000D01*
G01X435000Y1486000D02*
Y1049540D01*
X554250Y930290D01*
X2223790D01*
X2589410Y1295910D01*
X2748610Y1296910D01*
X2846000D01*
G01X410250Y4548500D02*
X318500D01*
G01X502000D02*
X410250D01*
G01X593750D02*
X502000D01*
G01X318500Y4640250D02*
Y4732000D01*
G01Y4548500D02*
Y4640250D01*
G01X502000D02*
Y4732000D01*
G01Y4548500D02*
Y4640250D01*
G01X318500Y4823750D02*
Y4915500D01*
G01Y4732000D02*
Y4823750D01*
G01X502000Y4915500D02*
X593750D01*
G01X410250D02*
X502000D01*
G01X318500D02*
X410250D01*
G01X502000Y4823750D02*
Y4915500D01*
G01Y4732000D02*
Y4823750D01*
G01X410250Y4732000D02*
X318500D01*
G01X502000D02*
X410250D01*
G01X593750D02*
X502000D01*
G01X1115000Y479500D02*
X1499500D01*
X1505500Y473500D01*
G01X685500Y4640250D02*
Y4732000D01*
G01Y4548500D02*
Y4640250D01*
G01Y4548500D02*
X593750D01*
G01X685500Y4823750D02*
Y4915500D01*
G01Y4732000D02*
Y4823750D01*
G01X593750Y4915500D02*
X685500D01*
G01Y4732000D02*
X593750D01*
G01X1505500Y473500D02*
Y373500D01*
G01X3389300Y1295000D02*
X3326000Y1358300D01*
Y1466000D01*
G01X3606500Y1297910D02*
X3462910D01*
X3460000Y1295000D01*
X3389300D01*
G54D27*
X2005000Y-165000D03*
Y89000D03*
X2259000Y-165000D03*
Y89000D03*
Y6388000D03*
Y6134000D03*
X2005000Y6388000D03*
X2513000Y-165000D03*
Y89000D03*
X2767000Y-165000D03*
Y89000D03*
Y6388000D03*
Y6134000D03*
X2513000Y6388000D03*
Y6134000D03*
X3021000Y-165000D03*
Y89000D03*
X3275000Y-165000D03*
Y89000D03*
Y6388000D03*
Y6134000D03*
X3021000Y6388000D03*
Y6134000D03*
X3529000Y-165000D03*
Y89000D03*
X3783000Y-165000D03*
Y89000D03*
Y6388000D03*
Y6134000D03*
X3529000Y6388000D03*
Y6134000D03*
X4037000Y-165000D03*
Y89000D03*
X4291000Y-165000D03*
Y89000D03*
Y6388000D03*
Y6134000D03*
X4037000Y6388000D03*
Y6134000D03*
X4545000Y-165000D03*
Y89000D03*
X4799000Y-165000D03*
Y89000D03*
X5053000Y-165000D03*
Y89000D03*
Y6388000D03*
Y6134000D03*
X4799000Y6388000D03*
Y6134000D03*
X4545000Y6388000D03*
Y6134000D03*
X5307000Y-165000D03*
Y89000D03*
X5561000Y-165000D03*
Y89000D03*
Y6388000D03*
Y6134000D03*
X5307000Y6388000D03*
Y6134000D03*
X5815000Y-165000D03*
Y89000D03*
X6069000Y-165000D03*
Y89000D03*
Y6388000D03*
Y6134000D03*
X5815000Y6388000D03*
Y6134000D03*
X6323000Y-165000D03*
Y89000D03*
X6577000Y-165000D03*
Y89000D03*
Y6388000D03*
Y6134000D03*
X6323000Y6388000D03*
Y6134000D03*
X6831000Y-165000D03*
Y6388000D03*
Y6134000D03*
G54D18*
X502000Y4732000D03*
Y4548500D03*
X318500Y4732000D03*
Y4548500D03*
X502000Y4915500D03*
X318500D03*
X685500Y4732000D03*
Y4548500D03*
Y4915500D03*
G54D37*
G01X-248000Y3982000D02*
Y4366000D01*
G01Y5682000D02*
Y5372000D01*
G01X527090Y-109000D02*
X741550D01*
X742050Y-108500D01*
X834000D01*
G01X857000Y147500D02*
Y281000D01*
G01X681000Y147500D02*
Y44500D01*
X834000Y-108500D01*
G01X805000Y653000D02*
Y785000D01*
G01X1837000Y1295000D02*
Y1033000D01*
X1838000Y1032000D01*
G01X625000Y1486000D02*
Y1657000D01*
G01X1751000Y458000D02*
X1521000D01*
X1505500Y473500D01*
G01X1837000Y1295000D02*
X1930500D01*
X1931000Y1294500D01*
X2137000D01*
G01X3231500Y742910D02*
X3364090D01*
G01X2846000Y1296910D02*
X3021090D01*
G01X2847000Y1076000D02*
Y1202410D01*
X2846000Y1203410D01*
Y1296910D01*
G01X3661500Y614500D02*
X3788910Y741910D01*
X3982500D01*
G01X3388000Y1082000D02*
Y1293700D01*
X3389300Y1295000D01*
G01X3961600Y5420000D02*
Y5597900D01*
X3966000Y5602300D01*
Y5725000D01*
G01X5941000Y3975500D02*
Y3839000D01*
G01X6255000Y3976500D02*
Y3832000D01*
G54D28*
X2254000Y5624410D03*
Y5794590D03*
X1980000Y5628410D03*
Y5798590D03*
X2544500Y5110910D03*
Y5281090D03*
X2532000Y5622410D03*
Y5792590D03*
X3231500Y742910D03*
Y913090D03*
X2846000Y1296910D03*
Y1467090D03*
X3606500Y1297910D03*
Y1468090D03*
X3589000Y5000590D03*
Y4830410D03*
X3982500Y741910D03*
Y912090D03*
G54D19*
G01X277000Y460000D02*
X278000Y459000D01*
X379000D01*
X409000Y429000D01*
Y204000D01*
X465500Y147500D01*
X681000D01*
G01X277000Y360000D02*
Y266000D01*
G01Y460000D02*
Y634500D01*
X247000Y664500D01*
X118500D01*
G01X3336000Y2430000D02*
X3012000D01*
X2991000Y2451000D01*
G01X3336000Y2780000D02*
X2857700D01*
X2851700Y2774000D01*
X2784000D01*
G01X2973000Y2647000D02*
X3056000Y2730000D01*
X3336000D01*
G01Y2980000D02*
X3029000D01*
X2993000Y3016000D01*
G01X3476000Y2330000D02*
X3336000D01*
X502000Y4640250D03*
X410250Y4548500D03*
X318500Y4640250D03*
X502000Y4823750D03*
X410250Y4915500D03*
Y4732000D03*
X318500Y4823750D03*
X685500Y4640250D03*
X593750Y4548500D03*
X685500Y4823750D03*
X593750Y4915500D03*
Y4732000D03*
G54D38*
G01X-139090Y411000D02*
Y259090D01*
G01X-73000Y1296500D02*
Y1109000D01*
G01X189000Y1472500D02*
X-73000D01*
G01X-121000Y4751000D02*
Y3982000D01*
G01X-122000Y3786570D02*
Y3800000D01*
X-121000Y3801000D01*
Y3982000D01*
G01X-122000Y3786570D02*
X44570Y3620000D01*
X1972000D01*
X2135500Y3783500D01*
X2151000D01*
G01X189000Y1296500D02*
Y1107000D01*
G01X530000Y1274000D02*
X757800D01*
X758800Y1273000D01*
X895000D01*
G01X731000Y1086000D02*
X645000D01*
X545000Y1186000D01*
Y1259000D01*
X530000Y1274000D01*
G01X435000Y1486000D02*
X313700D01*
X300200Y1472500D01*
X189000D01*
G01X2784000Y2774000D02*
X1329000D01*
X435000Y1880000D01*
Y1486000D01*
G01X1115000Y655500D02*
X945500D01*
G01X1838000Y1032000D02*
X1021000D01*
X895000Y1158000D01*
Y1273000D01*
G01Y1449000D02*
X1045000D01*
G01X1525000Y1302000D02*
Y1182000D01*
G01X1252000Y1306000D02*
Y1183000D01*
G01Y1482000D02*
X1409800D01*
X1413800Y1478000D01*
X1525000D01*
G01X1742000Y1507000D02*
X1569500D01*
X1540500Y1478000D01*
X1525000D01*
G01X1252000Y1482000D02*
Y1687000D01*
X1253000Y1688000D01*
G01X1503000Y4260500D02*
X1669500D01*
G01X5028090Y4151000D02*
Y3980910D01*
X5508500Y3500500D01*
Y2183500D01*
X5199000Y1874000D01*
X2756860D01*
X2177360Y1294500D01*
X2137000D01*
G01X1742000Y1507000D02*
Y1984000D01*
X2387000Y2629000D01*
X2852300D01*
X2870300Y2647000D01*
X2973000D01*
G01X2137000Y1470500D02*
Y1635000D01*
G01X1932000Y1507000D02*
X1930000Y1634000D01*
G01X2151000Y3959500D02*
Y4125000D01*
G01Y3783500D02*
X2376800D01*
X2385800Y3792500D01*
X2522000D01*
G01Y3968500D02*
Y4122000D01*
G01X4326500Y4151000D02*
X3113000D01*
X2754500Y3792500D01*
X2522000D01*
G01X2544500Y5110910D02*
Y4928500D01*
X2644500Y4828500D01*
X3587090D01*
X3589000Y4830410D01*
G01X3166000Y2113000D02*
X3420000D01*
G01X3166000Y3597000D02*
X3559000D01*
G01X3274000Y5364000D02*
Y5224000D01*
G01X2838000Y5106500D02*
X3005500D01*
G01X3274000Y5540000D02*
X3444300D01*
X3449800Y5545500D01*
X3586000D01*
G01X3274000Y5540000D02*
Y5660700D01*
X3271000Y5663700D01*
Y5953200D01*
X3275000Y5957200D01*
Y6134000D01*
G01X3590000Y4433500D02*
Y4295000D01*
G01X3893000Y4430500D02*
Y4295000D01*
G01X3590000Y4609500D02*
X3753800D01*
X3756800Y4606500D01*
X3893000D01*
G01X4326500Y4151000D02*
X4324000Y4153500D01*
Y4496200D01*
X4213700Y4606500D01*
X3893000D01*
G01X3589000Y4830410D02*
Y4610500D01*
X3590000Y4609500D01*
G01X3586000Y5369500D02*
Y5228000D01*
G01X3961600Y5190000D02*
X3790000D01*
G01X3961600Y4960000D02*
X3758000D01*
X3717410Y5000590D01*
X3589000D01*
G01X3586000Y5545500D02*
X3806890D01*
X3932390Y5420000D01*
X3961600D01*
G01X4072000Y1468500D02*
X4200500D01*
G01X4857910Y4151000D02*
X4326500D01*
G01X5028090D02*
X5804300D01*
X5804800Y4151500D01*
X5941000D01*
G01D02*
X6117800D01*
X6118800Y4152500D01*
X6255000D01*
G01Y3976500D02*
X6550800D01*
X6551300Y3977000D01*
X6694000D01*
G54D29*
X2005000Y6134000D03*
X6831000Y89000D03*
M02*
